{"glyphs":{"0":{"ha":888,"x_min":104,"x_max":785,"o":"m 444 -17 q 610 31 540 -17 q 717 156 681 78 q 769 316 753 235 q 785 486 785 397 q 767 667 785 582 q 713 826 750 751 q 607 945 676 901 q 444 989 538 989 q 277 942 347 989 q 171 816 207 894 q 119 656 135 738 q 104 486 104 575 q 122 304 104 389 q 176 145 139 219 q 282 27 213 71 q 444 -17 351 -17 m 444 97 q 340 130 383 97 q 272 221 296 163 q 239 344 249 279 q 229 486 229 408 q 238 622 229 558 q 269 745 247 685 q 336 841 292 806 q 444 876 381 876 q 549 843 506 876 q 615 752 592 810 q 647 629 638 694 q 657 486 657 564 q 648 351 657 413 q 617 228 639 289 q 551 132 596 167 q 444 97 507 97 "},"1":{"ha":518,"x_min":56,"x_max":339,"o":"m 218 0 l 339 0 l 339 972 l 251 972 q 56 857 213 857 l 56 775 l 218 775 l 218 0 "},"2":{"ha":850,"x_min":97,"x_max":751,"o":"m 97 0 l 751 0 l 751 118 l 238 118 q 312 254 253 196 q 474 372 371 313 q 558 424 526 404 q 629 478 589 444 q 691 542 669 511 q 728 615 713 572 q 743 708 743 658 q 660 912 743 835 q 432 989 576 989 q 228 931 314 989 q 113 782 142 874 l 221 733 q 428 876 267 876 q 566 829 514 876 q 618 711 618 782 q 587 614 618 660 q 519 541 556 568 q 419 475 483 514 q 300 396 350 435 q 200 300 250 357 q 124 167 150 243 q 97 0 97 92 "},"3":{"ha":836,"x_min":72,"x_max":739,"o":"m 404 -17 q 643 64 547 -17 q 739 276 739 144 q 696 426 739 364 q 576 519 653 489 q 669 607 636 550 q 701 731 701 664 q 618 915 701 842 q 408 989 535 989 q 216 933 294 989 q 103 788 138 876 l 215 744 q 408 875 276 875 q 528 832 482 875 q 575 717 575 789 q 528 605 575 647 q 404 563 481 563 l 342 563 l 342 449 l 411 449 q 561 401 510 449 q 613 272 613 353 q 554 143 613 188 q 404 99 496 99 q 185 256 250 99 l 72 210 q 404 -17 158 -17 "},"4":{"ha":863,"x_min":35,"x_max":790,"o":"m 532 0 l 653 0 l 653 242 l 790 242 l 790 350 l 653 350 l 653 972 l 539 972 l 35 314 l 35 242 l 532 242 l 532 0 m 532 350 l 193 350 l 532 801 l 532 350 "},"5":{"ha":863,"x_min":93,"x_max":767,"o":"m 404 -17 q 666 81 565 -17 q 767 321 767 179 q 681 543 767 453 q 456 633 594 633 q 251 567 335 633 l 289 860 l 703 860 l 703 972 l 183 972 l 126 481 l 246 439 q 442 518 317 518 q 585 461 531 518 q 640 313 640 404 q 573 157 640 219 q 403 94 506 94 q 165 183 267 94 l 93 90 q 215 15 135 47 q 404 -17 296 -17 "},"6":{"ha":829,"x_min":90,"x_max":743,"o":"m 419 -17 q 651 74 558 -17 q 743 301 743 164 q 658 518 743 429 q 449 607 574 607 q 236 528 306 607 q 369 755 265 658 q 604 882 472 851 l 604 989 q 228 765 367 940 q 90 360 90 590 q 176 88 90 193 q 419 -17 261 -17 m 418 97 q 271 152 329 97 q 213 294 213 207 q 270 440 213 385 q 418 494 328 494 q 566 440 510 494 q 622 294 622 385 q 565 151 622 206 q 418 97 508 97 "},"7":{"ha":725,"x_min":49,"x_max":667,"o":"m 243 0 l 367 0 q 381 194 367 96 q 425 408 394 292 q 517 644 456 525 q 667 863 579 763 l 667 972 l 49 972 l 49 860 l 532 860 q 313 451 379 656 q 243 0 246 246 "},"8":{"ha":849,"x_min":97,"x_max":751,"o":"m 424 -17 q 660 67 568 -17 q 751 279 751 151 q 706 435 751 368 q 583 535 660 501 q 708 736 708 596 q 628 916 708 843 q 424 989 547 989 q 220 916 300 989 q 140 736 140 843 q 172 618 140 671 q 264 535 204 565 q 143 435 189 503 q 97 279 97 368 q 189 67 97 151 q 424 -17 281 -17 m 307 624 q 263 726 263 665 q 308 835 263 794 q 424 876 353 876 q 541 835 496 876 q 586 726 586 794 q 541 624 586 665 q 424 583 496 583 q 329 604 351 583 q 307 624 307 624 m 278 149 q 222 289 222 201 q 279 426 222 369 q 424 482 336 482 q 569 425 511 482 q 626 289 626 368 q 569 149 626 201 q 424 97 513 97 q 307 123 335 97 q 278 149 278 149 "},"9":{"ha":829,"x_min":79,"x_max":733,"o":"m 242 -17 q 602 191 471 15 q 733 613 733 367 q 651 885 733 781 q 410 989 569 989 q 173 899 267 989 q 79 672 79 810 q 165 454 79 542 q 378 367 250 367 q 590 450 522 367 q 470 213 567 306 q 242 96 374 119 l 242 -17 m 406 479 q 258 533 313 479 q 203 678 203 588 q 259 817 203 763 q 406 872 315 872 q 551 817 493 872 q 608 678 608 763 q 552 534 608 589 q 406 479 496 479 "}," ":{"ha":326,"x_min":0,"x_max":0,"o":""},"!":{"ha":379,"x_min":94,"x_max":286,"o":"m 171 268 l 211 268 l 253 685 l 253 989 l 131 989 l 131 685 l 171 268 m 258 10 q 286 76 286 39 q 258 144 286 115 q 190 172 231 172 q 122 144 150 172 q 94 76 94 115 q 122 10 94 38 q 190 -18 150 -18 q 244 -4 231 -18 q 258 10 258 10 "},"\"":{"ha":560,"x_min":74,"x_max":486,"o":"m 74 972 l 99 593 l 197 593 l 224 972 l 74 972 m 335 972 l 361 593 l 460 593 l 486 972 l 335 972 "},"#":{"ha":949,"x_min":69,"x_max":879,"o":"m 192 0 l 301 0 l 343 274 l 538 274 l 496 0 l 606 0 l 647 274 l 807 274 l 822 376 l 663 376 l 699 615 l 864 615 l 879 717 l 714 717 l 754 972 l 644 972 l 606 717 l 410 717 l 449 972 l 340 972 l 300 717 l 142 717 l 126 615 l 285 615 l 249 376 l 86 376 l 69 274 l 233 274 l 192 0 m 358 376 l 394 615 l 590 615 l 553 376 l 358 376 "},"$":{"ha":817,"x_min":81,"x_max":725,"o":"m 346 -136 l 468 -136 l 468 -12 q 654 75 583 3 q 725 264 725 147 q 701 385 725 332 q 629 476 676 439 q 541 533 582 513 q 439 578 500 554 q 360 610 389 597 q 299 644 332 624 q 251 691 267 665 q 236 749 236 717 q 278 842 236 808 q 394 875 319 875 q 568 778 525 875 l 679 815 q 605 925 660 881 q 468 983 550 969 l 468 1096 l 346 1096 l 346 985 q 173 905 236 971 q 110 749 110 839 q 132 641 110 688 q 201 561 154 594 q 285 509 247 528 q 386 467 324 490 q 542 383 486 429 q 599 261 599 336 q 550 140 599 182 q 415 99 501 99 q 281 137 339 99 q 194 242 224 175 l 81 200 q 178 61 108 118 q 346 -11 249 4 l 346 -136 "},"%":{"ha":1208,"x_min":72,"x_max":1136,"o":"m 296 494 q 426 535 374 494 q 499 629 479 576 q 518 742 518 682 q 463 916 518 843 q 296 989 408 989 q 128 913 183 989 q 72 742 72 838 q 127 568 72 642 q 296 494 182 494 m 331 -17 l 994 989 l 878 989 l 214 -17 l 331 -17 m 296 590 q 206 632 236 590 q 176 742 176 674 q 206 851 176 808 q 296 893 236 893 q 385 852 354 893 q 415 742 415 811 q 384 634 415 678 q 296 590 353 590 m 913 -17 q 1044 24 992 -17 q 1117 118 1097 65 q 1136 231 1136 171 q 1081 405 1136 332 q 913 478 1026 478 q 745 401 800 478 q 690 231 690 325 q 745 57 690 131 q 913 -17 800 -17 m 824 121 q 793 231 793 163 q 824 340 793 297 q 913 382 854 382 q 1001 341 971 382 q 1032 231 1032 300 q 1001 122 1032 165 q 913 79 971 79 q 839 100 854 79 q 824 121 824 121 "},"&":{"ha":940,"x_min":75,"x_max":911,"o":"m 354 -17 q 658 115 533 -17 l 754 0 l 911 0 l 732 214 q 806 457 800 331 l 690 457 q 651 310 685 382 l 469 528 q 603 640 557 583 q 650 775 650 697 q 585 928 650 868 q 422 989 521 989 q 256 932 322 989 q 189 778 189 875 q 214 674 189 722 q 300 550 239 626 q 133 421 192 489 q 75 251 75 353 q 152 57 75 131 q 354 -17 229 -17 m 418 882 q 501 851 468 882 q 535 767 535 819 q 403 608 535 685 q 351 673 368 650 q 319 725 333 696 q 304 778 304 754 q 335 853 304 825 q 418 882 367 882 m 374 96 q 247 141 296 96 q 199 258 199 186 q 240 367 199 319 q 367 468 282 415 l 585 204 q 374 96 490 96 "},"'":{"ha":297,"x_min":74,"x_max":224,"o":"m 74 972 l 99 593 l 197 593 l 224 972 l 74 972 "},"(":{"ha":476,"x_min":108,"x_max":410,"o":"m 278 -181 l 394 -181 q 330 -72 361 -132 q 263 122 299 -11 q 228 394 228 254 q 289 756 228 596 q 410 989 350 917 l 293 989 q 108 394 108 768 q 278 -181 108 42 "},")":{"ha":476,"x_min":67,"x_max":368,"o":"m 82 -181 l 199 -181 q 368 394 368 42 q 183 989 368 768 l 67 989 q 188 756 126 917 q 249 394 249 596 q 213 122 249 254 q 147 -72 178 -11 q 82 -181 115 -132 "},"*":{"ha":740,"x_min":75,"x_max":665,"o":"m 407 542 l 503 413 l 593 481 l 501 607 l 419 675 l 521 678 l 665 725 l 629 833 l 489 788 l 400 726 l 426 829 l 426 986 l 314 986 l 314 829 l 338 726 l 250 788 l 111 833 l 75 725 l 218 678 l 318 675 l 239 607 l 147 481 l 238 413 l 332 542 l 369 644 l 407 542 "},"+":{"ha":896,"x_min":122,"x_max":775,"o":"m 508 418 l 775 418 l 775 535 l 508 535 l 508 803 l 386 803 l 386 535 l 122 535 l 122 418 l 386 418 l 386 150 l 508 150 l 508 418 "},",":{"ha":313,"x_min":60,"x_max":258,"o":"m 79 -175 l 119 -196 q 219 -94 181 -158 q 258 47 258 -29 q 228 138 258 107 q 153 169 197 169 q 87 142 114 169 q 60 71 60 114 q 88 6 60 32 q 157 -22 115 -19 q 129 -111 154 -69 q 79 -175 104 -153 "},"-":{"ha":554,"x_min":115,"x_max":440,"o":"m 115 356 l 440 356 l 440 472 l 115 472 l 115 356 "},".":{"ha":313,"x_min":60,"x_max":253,"o":"m 224 10 q 253 76 253 39 q 224 143 253 114 q 156 172 196 172 q 88 144 115 172 q 60 76 60 115 q 88 10 60 39 q 156 -18 115 -18 q 210 -4 196 -18 q 224 10 224 10 "},"/":{"ha":681,"x_min":-11,"x_max":656,"o":"m -11 -181 l 110 -181 l 656 989 l 536 989 l -11 -181 "},":":{"ha":313,"x_min":60,"x_max":253,"o":"m 224 510 q 253 576 253 539 q 224 643 253 614 q 156 672 196 672 q 88 644 115 672 q 60 576 60 615 q 88 510 60 539 q 156 482 115 482 q 210 496 196 482 q 224 510 224 510 m 224 10 q 253 76 253 39 q 224 143 253 114 q 156 172 196 172 q 88 144 115 172 q 60 76 60 115 q 88 10 60 39 q 156 -18 115 -18 q 210 -4 196 -18 q 224 10 224 10 "},";":{"ha":313,"x_min":60,"x_max":258,"o":"m 224 510 q 251 576 251 539 q 224 644 251 615 q 156 672 196 672 q 88 644 115 672 q 60 576 60 615 q 88 510 60 538 q 156 482 115 482 q 210 496 196 482 q 224 510 224 510 m 79 -175 l 119 -196 q 219 -94 181 -158 q 258 47 258 -29 q 228 138 258 107 q 153 169 197 169 q 87 142 114 169 q 60 71 60 114 q 87 6 60 32 q 153 -21 114 -19 q 127 -111 150 -69 q 79 -175 104 -153 "},"<":{"ha":896,"x_min":122,"x_max":775,"o":"m 775 158 l 775 279 l 274 476 l 775 675 l 775 794 l 122 529 l 122 422 l 775 158 "},"=":{"ha":896,"x_min":122,"x_max":775,"o":"m 122 540 l 775 540 l 775 657 l 122 657 l 122 540 m 122 296 l 775 296 l 775 411 l 122 411 l 122 296 "},">":{"ha":896,"x_min":122,"x_max":775,"o":"m 775 422 l 775 529 l 122 794 l 122 675 l 622 476 l 122 278 l 122 158 l 775 422 "},"?":{"ha":714,"x_min":44,"x_max":654,"o":"m 282 250 l 404 250 l 404 279 q 430 385 404 339 q 492 462 456 431 q 566 526 529 493 q 628 608 603 558 q 654 724 654 658 q 576 914 654 839 q 360 989 499 989 q 131 906 218 989 q 44 688 44 822 l 163 688 q 215 825 163 774 q 360 876 267 876 q 486 833 440 876 q 532 725 532 790 q 506 635 532 675 q 444 564 481 594 q 370 499 407 533 q 308 410 333 465 q 282 281 282 354 l 282 250 m 409 10 q 438 76 438 39 q 409 143 438 114 q 340 172 381 172 q 272 144 300 172 q 244 76 244 115 q 272 10 244 39 q 340 -18 300 -18 q 395 -4 381 -18 q 409 10 409 10 "},"@":{"ha":1124,"x_min":76,"x_max":1047,"o":"m 567 -17 q 732 -1 667 -17 l 757 107 q 572 83 678 83 q 290 189 393 83 q 186 465 186 294 q 298 769 186 649 q 592 889 410 889 q 849 803 750 889 q 947 575 947 718 q 909 390 947 467 q 819 314 871 314 q 776 367 776 314 q 786 443 776 385 l 836 722 l 731 722 l 715 633 q 569 740 682 740 q 386 651 458 740 q 314 453 314 563 q 371 282 314 349 q 515 215 428 215 q 685 318 626 215 q 724 249 693 274 q 803 224 756 224 q 976 323 904 224 q 1047 572 1047 422 q 919 871 1047 753 q 586 989 792 989 q 226 841 375 989 q 76 467 76 693 q 214 113 76 242 q 567 -17 351 -17 m 539 317 q 457 353 488 317 q 426 451 426 390 q 469 583 426 529 q 579 638 511 638 q 658 601 628 638 q 689 504 689 564 q 647 373 689 429 q 539 317 606 317 "},"A":{"ha":943,"x_min":71,"x_max":872,"o":"m 749 0 l 872 0 l 528 972 l 415 972 l 71 0 l 197 0 l 279 238 l 665 238 l 749 0 m 628 344 l 315 344 l 442 704 q 472 803 457 749 q 503 704 479 772 l 628 344 "},"B":{"ha":911,"x_min":136,"x_max":818,"o":"m 136 972 l 136 0 l 503 0 q 651 24 588 0 q 750 90 715 49 q 801 179 785 132 q 818 279 818 226 q 772 424 818 363 q 640 513 725 486 q 746 595 708 542 q 783 715 783 649 q 712 899 783 825 q 481 972 640 972 l 136 972 m 457 560 l 257 560 l 257 863 l 488 863 q 664 714 664 863 q 611 601 664 642 q 457 560 558 560 m 517 111 l 257 111 l 257 450 l 472 450 q 699 271 699 450 q 657 157 699 203 q 517 111 615 111 "},"C":{"ha":899,"x_min":94,"x_max":819,"o":"m 497 -17 q 699 37 618 -17 q 819 179 779 90 l 708 221 q 497 97 633 97 q 290 212 361 97 q 219 486 219 326 q 244 667 219 583 q 333 814 268 751 q 497 876 399 876 q 617 847 571 876 q 703 758 664 817 l 811 814 q 497 989 725 989 q 313 945 393 989 q 187 828 233 901 q 117 669 140 756 q 94 486 94 582 q 117 303 94 389 q 185 143 139 217 q 311 26 231 69 q 497 -17 392 -17 "},"D":{"ha":947,"x_min":136,"x_max":853,"o":"m 136 972 l 136 0 l 396 0 q 615 44 522 0 q 758 160 708 88 q 830 315 807 233 q 853 486 853 396 q 828 664 853 581 q 753 818 804 747 q 611 931 701 889 q 401 972 521 972 l 136 972 m 411 113 l 257 113 l 257 861 l 426 861 q 599 806 528 861 q 699 668 669 750 q 728 486 728 586 q 712 353 728 415 q 661 234 696 290 q 562 145 626 178 q 411 113 497 113 "},"E":{"ha":832,"x_min":136,"x_max":744,"o":"m 136 0 l 744 0 l 744 115 l 257 115 l 257 446 l 558 446 l 558 560 l 257 560 l 257 858 l 714 858 l 714 972 l 136 972 l 136 0 "},"F":{"ha":781,"x_min":136,"x_max":721,"o":"m 136 0 l 257 0 l 257 446 l 564 446 l 564 560 l 257 560 l 257 858 l 721 858 l 721 972 l 136 972 l 136 0 "},"G":{"ha":956,"x_min":94,"x_max":851,"o":"m 507 -17 q 755 81 658 -17 q 851 356 851 179 l 851 472 l 549 472 l 549 361 l 725 361 l 725 322 q 665 160 725 222 q 507 99 606 99 q 292 210 364 99 q 219 486 219 322 q 228 595 219 542 q 259 700 238 649 q 313 790 281 751 q 394 851 344 828 q 507 875 444 875 q 628 844 581 875 q 714 756 675 813 l 822 818 q 702 943 774 897 q 507 989 631 989 q 323 946 404 989 q 193 831 242 903 q 119 672 144 760 q 94 486 94 583 q 118 300 94 388 q 190 140 142 213 q 319 26 238 68 q 507 -17 400 -17 "},"H":{"ha":972,"x_min":136,"x_max":836,"o":"m 715 0 l 836 0 l 836 972 l 715 972 l 715 561 l 257 561 l 257 972 l 136 972 l 136 0 l 257 0 l 257 447 l 715 447 l 715 0 "},"I":{"ha":399,"x_min":139,"x_max":260,"o":"m 139 0 l 260 0 l 260 972 l 139 972 l 139 0 "},"J":{"ha":758,"x_min":39,"x_max":626,"o":"m 319 -17 q 426 -1 375 -17 q 524 51 476 15 q 599 155 571 86 q 626 319 626 224 l 626 972 l 506 972 l 506 315 q 321 97 506 97 q 208 124 249 97 q 139 210 168 150 l 39 158 q 319 -17 114 -17 "},"K":{"ha":917,"x_min":136,"x_max":851,"o":"m 711 0 l 851 0 l 504 636 l 772 972 l 636 972 l 257 496 l 257 972 l 136 972 l 136 0 l 257 0 l 257 332 l 422 535 l 711 0 "},"L":{"ha":776,"x_min":136,"x_max":735,"o":"m 136 0 l 735 0 l 735 117 l 257 117 l 257 972 l 136 972 l 136 0 "},"M":{"ha":1115,"x_min":136,"x_max":981,"o":"m 981 0 l 981 972 l 865 972 l 582 318 q 557 253 563 269 l 532 318 l 250 972 l 136 972 l 136 0 l 257 0 l 257 597 q 253 703 257 665 q 294 597 261 678 l 553 -17 l 819 594 q 863 704 849 665 q 860 597 860 654 l 860 0 l 981 0 "},"N":{"ha":983,"x_min":136,"x_max":847,"o":"m 847 0 l 847 972 l 726 972 l 726 279 q 729 208 726 258 q 689 281 711 244 l 258 972 l 136 972 l 136 0 l 257 0 l 257 694 q 254 763 257 721 q 293 694 268 735 l 731 0 l 847 0 "},"O":{"ha":1014,"x_min":94,"x_max":921,"o":"m 507 -17 q 667 13 596 -17 q 785 90 739 42 q 863 206 832 139 q 908 342 894 272 q 921 486 921 411 q 908 631 921 561 q 863 767 894 700 q 785 882 832 833 q 667 960 739 931 q 507 989 596 989 q 315 945 397 989 q 185 827 232 901 q 117 667 139 753 q 94 486 94 582 q 117 305 94 390 q 185 145 139 219 q 315 27 232 71 q 507 -17 397 -17 m 373 131 q 283 221 315 164 q 235 344 250 278 q 219 486 219 411 q 235 622 219 557 q 283 747 251 688 q 373 841 315 806 q 507 876 431 876 q 676 817 608 876 q 769 673 743 757 q 794 486 794 589 q 779 351 794 417 q 732 226 764 285 q 642 133 700 168 q 507 97 583 97 q 402 114 431 97 q 373 131 373 131 "},"P":{"ha":875,"x_min":136,"x_max":822,"o":"m 136 0 l 257 0 l 257 390 l 508 390 q 744 478 665 390 q 822 681 822 565 q 806 788 822 738 q 754 880 789 838 q 656 947 719 922 q 508 972 593 972 l 136 972 l 136 0 m 517 503 l 257 503 l 257 860 l 517 860 q 658 806 615 860 q 701 681 701 751 q 656 556 701 608 q 517 503 611 503 "},"Q":{"ha":1014,"x_min":94,"x_max":921,"o":"m 507 -17 q 682 19 606 -17 l 757 -92 l 846 -29 l 772 79 q 921 486 921 217 q 908 631 921 561 q 863 767 894 700 q 785 882 832 833 q 667 960 739 931 q 507 989 596 989 q 315 945 397 989 q 185 827 232 901 q 117 667 139 753 q 94 486 94 582 q 117 305 94 390 q 185 145 139 219 q 315 27 232 71 q 507 -17 397 -17 m 507 97 q 373 131 431 97 q 283 221 315 164 q 235 344 250 278 q 219 486 219 411 q 235 622 219 557 q 283 747 251 688 q 373 841 315 806 q 507 876 431 876 q 676 817 608 876 q 769 673 743 757 q 794 486 794 589 q 703 186 794 296 l 636 286 l 544 224 l 614 119 q 507 97 569 97 "},"R":{"ha":924,"x_min":136,"x_max":826,"o":"m 136 0 l 257 0 l 257 417 l 472 417 l 672 0 l 808 0 l 600 425 q 770 524 714 449 q 826 696 826 600 q 753 893 826 814 q 519 972 681 972 l 136 972 l 136 0 m 257 529 l 257 860 l 522 860 q 662 810 619 860 q 704 693 704 760 q 660 576 704 624 q 522 529 617 529 l 257 529 "},"S":{"ha":832,"x_min":81,"x_max":739,"o":"m 419 -17 q 650 58 561 -17 q 739 264 739 133 q 714 385 739 332 q 640 475 689 439 q 550 533 592 511 q 444 578 508 554 q 364 610 393 597 q 301 643 335 622 q 251 690 267 664 q 235 749 235 717 q 279 842 235 808 q 400 876 324 876 q 515 849 468 876 q 582 778 563 821 l 693 815 q 596 941 671 893 q 408 989 521 989 q 190 919 271 989 q 110 749 110 850 q 127 659 110 700 q 169 591 144 618 q 237 538 194 564 q 312 499 279 513 q 394 467 344 485 q 556 383 499 429 q 614 261 614 338 q 563 140 614 182 q 422 97 511 97 q 285 136 344 97 q 194 242 225 175 l 81 200 q 205 44 114 104 q 419 -17 296 -17 "},"T":{"ha":810,"x_min":74,"x_max":736,"o":"m 465 857 l 736 857 l 736 972 l 74 972 l 74 857 l 344 857 l 344 0 l 465 0 l 465 857 "},"U":{"ha":957,"x_min":129,"x_max":828,"o":"m 478 -17 q 828 365 828 -17 l 828 972 l 707 972 l 707 365 q 645 157 707 217 q 478 97 583 97 q 311 157 372 97 q 250 365 250 217 l 250 972 l 129 972 l 129 365 q 478 -17 129 -17 "},"V":{"ha":906,"x_min":67,"x_max":839,"o":"m 400 0 l 507 0 l 839 972 l 710 972 l 485 269 q 457 171 463 197 q 428 269 453 185 l 196 972 l 67 972 l 400 0 "},"W":{"ha":1167,"x_min":69,"x_max":1097,"o":"m 268 0 l 367 0 l 554 664 q 578 760 571 722 q 603 664 582 740 l 790 0 l 886 0 l 1097 972 l 974 972 l 842 340 q 824 244 829 281 q 801 339 818 276 l 628 972 l 532 972 l 360 338 q 333 235 333 236 q 315 339 328 276 l 196 972 l 69 972 l 268 0 "},"X":{"ha":842,"x_min":65,"x_max":778,"o":"m 642 0 l 778 0 l 486 510 l 753 972 l 619 972 l 422 621 l 222 972 l 86 972 l 354 503 l 65 0 l 200 0 l 418 393 l 642 0 "},"Y":{"ha":890,"x_min":56,"x_max":835,"o":"m 386 0 l 507 0 l 507 385 l 835 972 l 703 972 l 446 500 l 192 972 l 56 972 l 386 382 l 386 0 "},"Z":{"ha":903,"x_min":88,"x_max":808,"o":"m 88 0 l 808 0 l 808 115 l 247 115 l 808 879 l 808 972 l 119 972 l 119 857 l 651 857 l 88 93 l 88 0 "},"[":{"ha":522,"x_min":150,"x_max":456,"o":"m 150 -181 l 456 -181 l 456 -69 l 271 -69 l 271 878 l 456 878 l 456 989 l 150 989 l 150 -181 "},"\\":{"ha":681,"x_min":-11,"x_max":656,"o":"m 536 -181 l 656 -181 l 110 989 l -11 989 l 536 -181 "},"]":{"ha":522,"x_min":67,"x_max":372,"o":"m 372 -181 l 372 989 l 67 989 l 67 878 l 251 878 l 251 -69 l 67 -69 l 67 -181 l 372 -181 "},"^":{"ha":896,"x_min":118,"x_max":778,"o":"m 654 494 l 778 494 l 504 989 l 390 989 l 118 494 l 243 494 l 449 838 l 654 494 "},"_":{"ha":715,"x_min":4,"x_max":713,"o":"m 4 -246 l 713 -246 l 713 -131 l 4 -131 l 4 -246 "},"`":{"ha":511,"x_min":44,"x_max":414,"o":"m 292 800 l 414 800 l 217 1017 l 44 1017 l 292 800 "},"a":{"ha":731,"x_min":74,"x_max":636,"o":"m 522 0 l 636 0 l 636 471 q 383 726 636 726 q 126 651 240 726 l 161 550 q 368 621 261 621 q 483 585 443 621 q 522 461 522 550 l 522 411 q 339 457 442 457 q 150 397 226 457 q 74 222 74 338 q 141 45 74 107 q 321 -17 208 -17 q 522 65 435 -17 l 522 0 m 339 90 q 227 126 267 90 q 188 222 188 163 q 235 319 188 286 q 356 353 282 353 q 522 306 446 353 l 522 183 q 339 90 443 90 "},"b":{"ha":781,"x_min":115,"x_max":708,"o":"m 418 -17 q 631 80 554 -17 q 708 356 708 176 q 628 628 708 529 q 414 726 547 726 q 236 649 307 726 l 236 1003 l 115 946 l 115 0 l 236 0 l 236 61 q 418 -17 317 -17 m 401 96 q 307 122 351 96 q 236 192 263 147 l 236 521 q 301 586 257 557 q 401 615 346 615 q 538 549 492 615 q 585 356 585 482 q 538 165 585 233 q 401 96 492 96 "},"c":{"ha":694,"x_min":74,"x_max":628,"o":"m 368 -17 q 534 31 467 -17 q 628 165 601 78 l 515 203 q 371 97 482 97 q 242 165 286 97 q 197 354 197 232 q 242 546 197 478 q 375 614 286 614 q 508 519 472 614 l 622 561 q 374 726 563 726 q 153 628 233 726 q 74 354 74 529 q 153 81 74 179 q 368 -17 232 -17 "},"d":{"ha":781,"x_min":74,"x_max":667,"o":"m 367 -17 q 546 56 476 -17 l 546 0 l 667 0 l 667 1003 l 546 946 l 546 660 q 367 726 471 726 q 153 628 233 726 q 74 356 74 529 q 153 83 74 183 q 367 -17 232 -17 m 383 96 q 247 169 297 96 q 196 356 196 243 q 244 548 196 481 q 383 615 293 615 q 546 525 489 615 l 546 192 q 383 96 489 96 "},"e":{"ha":747,"x_min":74,"x_max":682,"o":"m 389 -17 q 618 75 526 -17 l 544 157 q 392 93 481 93 q 258 152 311 93 q 197 308 204 211 l 678 308 q 682 389 682 350 q 599 641 682 556 q 389 726 517 726 q 160 628 246 726 q 74 356 74 529 q 159 87 74 190 q 389 -17 244 -17 m 196 411 q 254 567 201 515 q 389 619 307 619 q 508 570 457 619 q 560 411 558 521 l 196 411 "},"f":{"ha":463,"x_min":46,"x_max":442,"o":"m 276 604 l 442 604 l 442 710 l 276 710 l 276 807 q 289 861 276 842 q 340 881 301 881 q 442 854 385 881 l 442 956 q 310 989 379 989 q 200 951 244 989 q 156 828 156 914 l 156 710 l 46 710 l 46 604 l 156 604 l 156 0 l 276 0 l 276 604 "},"g":{"ha":782,"x_min":74,"x_max":668,"o":"m 333 -287 q 581 -206 494 -278 q 668 29 668 -133 l 668 710 l 547 710 l 547 651 q 368 726 479 726 q 155 627 236 726 q 74 356 74 528 q 156 81 74 178 q 364 -17 239 -17 q 547 69 485 -17 l 547 -17 q 488 -140 547 -94 q 275 -193 429 -185 l 333 -287 m 389 96 q 249 165 303 96 q 196 356 196 235 q 245 548 196 481 q 389 615 294 615 q 476 589 431 615 q 547 521 522 563 l 547 196 q 477 123 521 150 q 389 96 433 96 "},"h":{"ha":782,"x_min":115,"x_max":674,"o":"m 115 0 l 236 0 l 236 432 q 400 615 236 615 q 512 570 471 615 q 553 429 553 525 l 553 0 l 674 0 l 674 408 q 609 651 674 575 q 419 726 544 726 q 236 636 301 726 l 236 1003 l 115 947 l 115 0 "},"i":{"ha":353,"x_min":101,"x_max":253,"o":"m 231 860 q 253 914 253 882 q 231 969 253 946 q 176 992 208 992 q 124 969 146 992 q 101 914 101 946 q 123 861 101 883 q 176 839 144 839 q 219 850 208 839 q 231 860 231 860 m 117 0 l 238 0 l 238 710 l 117 710 l 117 0 "},"j":{"ha":353,"x_min":-65,"x_max":253,"o":"m 231 860 q 253 914 253 882 q 231 969 253 946 q 178 992 210 992 q 124 969 146 992 q 101 914 101 946 q 124 860 101 882 q 178 839 146 839 q 220 850 210 839 q 231 860 231 860 m -8 -297 q 185 -197 118 -279 q 238 -6 238 -135 l 238 710 l 117 710 l 117 -50 q 77 -153 117 -117 q -65 -206 38 -189 l -8 -297 "},"k":{"ha":738,"x_min":115,"x_max":692,"o":"m 692 0 l 425 517 l 611 710 l 467 710 l 236 465 l 236 1003 l 115 946 l 115 0 l 236 0 l 236 321 l 340 429 l 560 0 l 692 0 "},"l":{"ha":364,"x_min":122,"x_max":243,"o":"m 122 0 l 243 0 l 243 1003 l 122 946 l 122 0 "},"m":{"ha":1175,"x_min":115,"x_max":1068,"o":"m 947 0 l 1068 0 l 1068 465 q 999 658 1068 590 q 818 726 929 726 q 613 622 681 726 q 533 699 583 672 q 422 726 482 726 q 236 643 299 726 l 236 710 l 115 710 l 115 0 l 236 0 l 236 432 q 277 566 236 517 q 389 615 318 615 q 531 431 531 615 l 531 0 l 651 0 l 651 426 q 694 563 651 511 q 804 615 736 615 q 947 431 947 615 l 947 0 "},"n":{"ha":782,"x_min":115,"x_max":674,"o":"m 553 0 l 674 0 l 674 408 q 609 651 674 575 q 419 726 544 726 q 236 638 301 726 l 236 710 l 115 710 l 115 0 l 236 0 l 236 432 q 400 615 236 615 q 512 570 471 615 q 553 429 553 525 l 553 0 "},"o":{"ha":775,"x_min":74,"x_max":701,"o":"m 617 83 q 701 356 701 182 q 617 628 701 529 q 388 726 532 726 q 158 627 243 726 q 74 354 74 528 q 158 82 74 181 q 388 -17 243 -17 q 574 33 532 -17 q 617 83 617 83 m 247 165 q 196 354 196 233 q 247 547 196 478 q 388 615 297 615 q 528 546 478 615 q 579 356 579 476 q 528 165 579 233 q 388 96 478 96 q 272 130 297 96 q 247 165 247 165 "},"p":{"ha":783,"x_min":115,"x_max":711,"o":"m 418 -17 q 631 83 550 -17 q 711 356 711 182 q 632 626 711 526 q 418 726 553 726 q 236 650 313 726 l 236 710 l 115 710 l 115 -281 l 236 -224 l 236 67 q 418 -17 307 -17 m 403 96 q 236 192 310 96 l 236 519 q 403 615 290 615 q 538 544 489 615 q 588 356 588 474 q 540 163 588 231 q 403 96 492 96 "},"q":{"ha":782,"x_min":74,"x_max":668,"o":"m 368 -17 q 547 67 474 -17 l 547 -278 l 668 -224 l 668 710 l 547 710 l 547 650 q 364 726 463 726 q 151 626 229 726 q 74 354 74 526 q 153 82 74 181 q 368 -17 233 -17 m 379 96 q 243 163 290 96 q 196 354 196 229 q 245 542 196 468 q 379 615 294 615 q 547 519 490 615 l 547 193 q 379 96 472 96 "},"r":{"ha":540,"x_min":115,"x_max":514,"o":"m 115 0 l 236 0 l 236 400 q 284 558 236 510 q 394 607 332 607 q 496 576 451 607 l 514 690 q 404 726 471 726 q 236 617 286 726 l 236 710 l 115 710 l 115 0 "},"s":{"ha":651,"x_min":68,"x_max":578,"o":"m 325 -17 q 510 37 442 -17 q 578 185 578 90 q 519 329 578 278 q 347 421 460 381 q 288 445 304 438 q 245 468 272 453 q 208 501 218 483 q 197 539 197 518 q 229 597 197 576 q 315 618 261 618 q 472 550 407 618 l 556 619 q 317 726 465 726 q 145 676 213 726 q 78 539 78 625 q 133 407 78 457 q 297 317 189 357 q 379 283 351 296 q 433 242 407 269 q 460 182 460 215 q 424 115 460 138 q 328 92 388 92 q 154 176 233 92 l 68 103 q 180 16 111 49 q 325 -17 249 -17 "},"t":{"ha":519,"x_min":42,"x_max":457,"o":"m 307 -17 q 443 15 382 -17 l 457 133 q 351 96 399 96 q 293 121 308 96 q 278 193 278 146 l 278 604 l 453 604 l 453 710 l 278 710 l 278 1003 l 157 944 l 157 710 l 42 710 l 42 604 l 157 604 l 157 153 q 307 -17 157 -17 "},"u":{"ha":782,"x_min":108,"x_max":667,"o":"m 546 0 l 667 0 l 667 710 l 546 710 l 546 279 q 382 96 546 96 q 270 141 311 96 q 229 282 229 186 l 229 710 l 108 710 l 108 300 q 173 58 108 133 q 367 -17 238 -17 q 546 68 481 -17 l 546 0 "},"v":{"ha":711,"x_min":46,"x_max":667,"o":"m 306 0 l 407 0 l 667 710 l 546 710 l 381 236 q 358 167 363 183 q 336 236 354 183 l 168 710 l 46 710 l 306 0 "},"w":{"ha":993,"x_min":53,"x_max":942,"o":"m 235 0 l 343 0 l 471 421 q 496 514 482 456 q 522 421 503 483 l 651 0 l 760 0 l 942 710 l 822 710 l 715 233 q 708 194 713 221 q 700 156 703 168 l 681 233 l 547 710 l 447 710 l 314 233 q 296 158 299 178 q 288 199 293 172 q 281 233 282 225 l 172 710 l 53 710 l 235 0 "},"x":{"ha":717,"x_min":53,"x_max":665,"o":"m 53 0 l 188 0 l 318 201 q 358 269 346 244 q 399 201 383 225 l 529 0 l 665 0 l 426 369 l 647 710 l 511 710 l 400 538 q 358 469 392 525 q 318 538 350 486 l 206 710 l 71 710 l 290 369 l 53 0 "},"y":{"ha":736,"x_min":46,"x_max":690,"o":"m 200 -269 l 322 -269 l 690 710 l 567 710 l 388 226 q 365 158 378 203 q 343 226 353 203 l 167 710 l 46 710 l 308 18 l 200 -269 "},"z":{"ha":701,"x_min":88,"x_max":608,"o":"m 88 0 l 607 0 l 607 108 l 238 108 l 608 624 l 608 710 l 115 710 l 115 603 l 457 603 l 88 89 l 88 0 "},"{":{"ha":517,"x_min":74,"x_max":458,"o":"m 458 -181 l 458 -76 q 303 117 303 -71 l 303 200 q 269 353 303 310 q 161 404 235 396 q 269 458 235 414 q 303 608 303 501 l 303 693 q 342 833 303 783 q 458 885 381 882 l 458 989 q 255 904 329 986 q 181 667 181 822 l 181 592 q 156 494 181 531 q 86 457 131 457 l 74 457 l 74 354 l 86 354 q 156 317 131 354 q 181 218 181 279 l 181 142 q 255 -96 181 -14 q 458 -181 329 -178 "},"|":{"ha":378,"x_min":129,"x_max":250,"o":"m 129 -525 l 250 -525 l 250 1475 l 129 1475 l 129 -525 "},"}":{"ha":517,"x_min":60,"x_max":444,"o":"m 60 -181 q 262 -96 188 -178 q 336 142 336 -14 l 336 218 q 362 317 336 279 q 431 354 388 354 l 444 354 l 444 457 l 431 457 q 362 494 388 457 q 336 592 336 531 l 336 667 q 262 904 336 822 q 60 989 188 986 l 60 885 q 214 693 214 878 l 214 608 q 248 458 214 501 q 356 404 282 414 q 248 353 282 396 q 214 200 214 310 l 214 117 q 60 -76 214 -69 l 60 -181 "},"~":{"ha":896,"x_min":124,"x_max":774,"o":"m 594 376 q 730 433 686 376 q 774 576 774 490 l 693 576 q 665 515 690 539 q 597 492 639 492 q 463 534 560 492 q 303 576 367 576 q 167 519 211 576 q 124 376 124 463 l 203 376 q 231 437 206 414 q 299 460 257 460 q 435 418 339 460 q 594 376 532 376 "}," ":{"ha":326,"x_min":0,"x_max":0,"o":""},"¡":{"ha":376,"x_min":94,"x_max":286,"o":"m 258 566 q 286 632 286 594 q 258 698 286 669 q 190 726 231 726 q 122 699 150 726 q 94 632 94 671 q 122 565 94 593 q 190 538 150 538 q 244 552 231 538 q 258 566 258 566 m 250 -278 l 250 25 l 208 440 l 169 440 l 128 25 l 128 -278 l 250 -278 "},"¢":{"ha":715,"x_min":81,"x_max":635,"o":"m 307 -17 l 425 -17 l 425 118 q 635 300 586 135 l 519 338 q 469 260 506 288 q 381 232 432 232 q 250 299 296 232 q 204 486 204 365 q 251 674 204 607 q 388 740 299 740 q 515 649 481 740 l 632 690 q 425 854 581 836 l 425 989 l 307 989 l 307 849 q 140 730 200 824 q 81 486 81 636 q 140 241 81 336 q 307 122 200 146 l 307 -17 "},"£":{"ha":829,"x_min":115,"x_max":776,"o":"m 122 0 l 776 0 l 776 115 l 247 115 q 372 381 365 226 l 372 406 l 582 406 l 582 508 l 353 508 q 319 590 351 515 q 286 715 286 664 q 334 826 286 779 q 475 874 382 874 q 588 856 536 874 q 660 824 639 839 q 714 782 682 808 l 761 896 q 475 989 638 989 q 240 909 322 989 q 158 715 158 829 q 160 675 158 694 q 165 638 161 656 q 173 608 169 621 q 183 579 176 596 q 194 556 190 563 q 206 531 197 549 q 217 508 214 514 l 115 508 l 115 406 l 244 406 l 244 378 q 212 228 240 300 q 122 128 183 156 l 122 0 "},"¤":{"ha":879,"x_min":61,"x_max":818,"o":"m 439 119 q 638 178 556 119 l 732 83 l 818 171 l 721 268 q 769 463 769 349 q 725 654 769 569 l 818 747 l 728 840 l 636 749 q 439 807 554 807 q 240 747 325 807 l 147 840 l 61 751 l 157 656 q 111 463 111 572 q 157 272 111 350 l 61 175 l 151 83 l 243 176 q 439 119 324 119 m 439 236 q 290 299 347 236 q 233 463 233 363 q 291 626 233 561 q 439 692 349 692 q 590 626 532 692 q 647 463 647 561 q 590 299 647 363 q 439 236 532 236 "},"¥":{"ha":786,"x_min":32,"x_max":754,"o":"m 454 443 l 754 972 l 622 972 l 392 557 l 168 972 l 32 972 l 329 443 l 117 443 l 117 339 l 332 339 l 332 247 l 117 247 l 117 143 l 332 143 l 332 0 l 453 0 l 453 143 l 658 143 l 658 247 l 453 247 l 453 339 l 658 339 l 658 443 l 454 443 "},"¦":{"ha":378,"x_min":129,"x_max":250,"o":"m 129 508 l 250 508 l 250 1146 l 129 1146 l 129 508 m 129 -312 l 250 -312 l 250 325 l 129 325 l 129 -312 "},"§":{"ha":740,"x_min":81,"x_max":661,"o":"m 375 -167 q 585 -106 510 -167 q 661 64 661 -46 q 576 244 661 179 q 661 393 661 286 q 648 468 661 435 q 617 523 635 501 q 565 565 599 544 q 508 597 532 586 q 440 624 483 607 q 383 646 400 639 q 333 667 365 653 q 287 690 301 681 q 255 714 272 700 q 231 743 238 728 q 224 775 224 758 q 365 871 224 871 q 540 803 475 871 l 633 876 q 365 989 542 989 q 174 933 250 989 q 97 779 97 876 q 196 593 97 653 q 124 534 151 574 q 97 443 97 494 q 112 366 97 399 q 160 308 126 333 q 219 270 194 283 q 296 235 244 257 q 358 210 311 228 q 426 181 404 192 q 478 150 447 169 q 522 108 508 131 q 535 60 535 86 q 372 -50 535 -50 q 169 36 249 -50 l 81 -43 q 199 -131 121 -96 q 375 -167 276 -167 m 472 299 q 420 317 453 306 q 368 335 388 328 q 323 352 349 342 q 282 372 297 363 q 252 392 267 381 q 231 418 238 404 q 224 447 224 432 q 249 505 224 482 q 321 535 275 528 q 389 510 368 518 q 444 487 410 503 q 494 458 479 471 q 522 426 510 446 q 535 385 535 407 q 472 299 535 325 "},"¨":{"ha":511,"x_min":60,"x_max":453,"o":"m 190 854 q 213 908 213 876 q 190 963 213 940 q 136 985 168 985 q 82 963 104 985 q 60 908 60 940 q 82 854 60 876 q 136 832 104 832 q 179 843 168 832 q 190 854 190 854 m 431 854 q 453 908 453 876 q 431 963 453 940 q 376 985 408 985 q 322 963 344 985 q 300 908 300 940 q 322 854 300 876 q 376 832 344 832 q 419 843 408 832 q 431 854 431 854 "},"©":{"ha":1193,"x_min":94,"x_max":1100,"o":"m 956 128 q 1100 486 1100 272 q 956 844 1100 700 q 597 989 811 989 q 239 844 383 989 q 94 486 94 700 q 239 128 94 272 q 597 -17 383 -17 q 883 56 811 -17 q 956 128 956 128 m 304 190 q 188 486 188 308 q 304 783 188 664 q 597 901 421 901 q 890 783 774 901 q 1006 486 1006 664 q 890 190 1006 308 q 597 71 774 71 q 363 130 421 71 q 304 190 304 190 m 604 188 q 738 228 682 188 q 817 342 793 269 l 731 374 q 606 282 699 282 q 456 490 456 282 q 603 697 456 697 q 725 614 686 697 l 814 654 q 738 755 790 717 q 610 793 685 793 q 421 706 486 793 q 356 490 356 619 q 419 272 356 356 q 604 188 482 188 "},"ª":{"ha":625,"x_min":60,"x_max":538,"o":"m 429 393 l 538 393 l 538 772 q 518 888 538 842 q 463 954 499 933 q 393 982 426 975 q 315 989 360 989 q 108 932 185 989 l 139 839 q 301 892 206 892 q 399 863 369 892 q 429 763 429 833 l 429 740 q 286 771 364 771 q 128 720 196 771 q 60 576 60 669 q 117 431 60 482 q 269 379 175 379 q 429 435 363 379 l 429 393 m 286 475 q 203 502 233 475 q 172 576 172 529 q 210 651 172 626 q 301 675 247 675 q 429 644 371 675 l 429 535 q 364 493 404 511 q 286 475 324 475 "},"«":{"ha":715,"x_min":53,"x_max":685,"o":"m 264 0 l 396 0 l 185 356 l 396 710 l 264 710 l 53 356 l 264 0 m 550 0 l 685 0 l 474 356 l 685 710 l 550 710 l 339 356 l 550 0 "},"¬":{"ha":896,"x_min":122,"x_max":775,"o":"m 653 239 l 775 239 l 775 650 l 122 650 l 122 535 l 653 535 l 653 239 "},"­":{"ha":554,"x_min":115,"x_max":440,"o":"m 115 356 l 440 356 l 440 472 l 115 472 l 115 356 "},"®":{"ha":1193,"x_min":94,"x_max":1100,"o":"m 956 128 q 1100 486 1100 272 q 956 844 1100 700 q 597 989 811 989 q 239 844 383 989 q 94 486 94 700 q 239 128 94 272 q 597 -17 383 -17 q 883 56 811 -17 q 956 128 956 128 m 304 190 q 188 486 188 308 q 304 783 188 664 q 597 901 421 901 q 890 783 774 901 q 1006 486 1006 664 q 890 190 1006 308 q 597 71 774 71 q 363 130 421 71 q 304 190 304 190 m 392 192 l 489 192 l 489 429 l 596 429 l 721 192 l 832 192 l 694 435 q 792 498 757 449 q 828 607 828 547 q 785 728 828 676 q 651 779 742 779 l 392 779 l 392 192 m 489 517 l 489 688 l 653 688 q 712 663 693 688 q 731 606 731 639 q 711 542 731 567 q 653 517 692 517 l 489 517 "},"¯":{"ha":511,"x_min":26,"x_max":485,"o":"m 26 838 l 485 838 l 485 940 l 26 940 l 26 838 "},"°":{"ha":568,"x_min":44,"x_max":524,"o":"m 454 696 q 524 864 524 764 q 455 1033 524 965 q 285 1100 386 1100 q 114 1033 183 1100 q 44 864 44 965 q 115 696 44 764 q 285 628 185 628 q 419 662 385 628 q 454 696 454 696 m 285 742 q 201 777 236 742 q 167 864 167 813 q 201 951 167 917 q 285 986 235 986 q 367 952 335 986 q 400 864 400 918 q 367 776 400 811 q 285 742 335 742 "},"±":{"ha":896,"x_min":122,"x_max":775,"o":"m 508 504 l 775 504 l 775 621 l 508 621 l 508 844 l 386 844 l 386 621 l 122 621 l 122 504 l 386 504 l 386 281 l 508 281 l 508 504 m 122 0 l 775 0 l 775 117 l 122 117 l 122 0 "},"²":{"ha":506,"x_min":46,"x_max":442,"o":"m 46 617 l 440 617 l 440 708 l 158 708 q 282 833 188 779 q 403 924 365 881 q 442 1038 442 967 q 389 1165 442 1117 q 250 1213 336 1213 q 115 1169 169 1213 q 46 1057 61 1126 l 138 1029 q 244 1124 157 1124 q 315 1099 290 1124 q 339 1042 339 1074 q 317 976 339 1001 q 250 924 294 950 q 98 795 150 864 q 46 617 46 726 "},"³":{"ha":496,"x_min":32,"x_max":447,"o":"m 244 604 q 391 653 335 604 q 447 786 447 703 q 421 872 447 835 q 351 925 394 908 q 405 978 385 943 q 425 1050 425 1014 q 375 1167 425 1121 q 244 1213 325 1213 q 125 1176 176 1213 q 49 1078 74 1139 l 140 1046 q 240 1124 172 1124 q 299 1101 278 1124 q 321 1043 321 1078 q 301 985 321 1008 q 240 961 281 961 l 204 961 l 204 872 l 250 872 q 318 846 293 872 q 343 782 343 819 q 317 717 343 742 q 246 693 290 693 q 128 793 160 693 l 32 761 q 112 646 57 688 q 244 604 167 604 "},"´":{"ha":511,"x_min":100,"x_max":469,"o":"m 100 800 l 222 800 l 469 1017 l 297 1017 l 100 800 "},"µ":{"ha":785,"x_min":111,"x_max":671,"o":"m 550 0 l 671 0 l 671 710 l 550 710 l 550 279 q 386 96 550 96 q 270 135 308 96 q 232 282 232 175 l 232 710 l 111 710 l 111 -278 l 232 -221 l 232 54 q 368 -17 279 -17 q 550 69 474 -17 l 550 0 "},"¶":{"ha":876,"x_min":39,"x_max":754,"o":"m 381 -278 l 503 -224 l 503 854 l 633 854 l 633 -176 l 754 -121 l 754 972 l 357 972 q 208 947 271 972 q 108 880 144 922 q 56 788 72 838 q 39 681 39 738 q 123 474 39 563 q 381 385 207 385 l 381 -278 "},"·":{"ha":313,"x_min":60,"x_max":253,"o":"m 224 419 q 253 485 253 447 q 224 551 253 522 q 156 581 196 581 q 88 552 115 581 q 60 485 60 524 q 88 419 60 447 q 156 390 115 390 q 210 405 196 390 q 224 419 224 419 "},"¸":{"ha":511,"x_min":125,"x_max":422,"o":"m 256 -329 q 376 -290 329 -329 q 422 -189 422 -250 q 385 -107 422 -140 q 272 -74 349 -74 l 325 14 l 257 14 l 161 -107 l 183 -135 q 236 -125 203 -125 q 292 -143 268 -125 q 317 -187 317 -161 q 296 -235 317 -217 q 244 -254 275 -254 q 193 -236 207 -254 l 125 -283 q 256 -329 174 -329 "},"¹":{"ha":278,"x_min":25,"x_max":194,"o":"m 96 617 l 194 617 l 194 1203 l 119 1203 q 25 1146 96 1146 l 25 1074 l 96 1074 l 96 617 "},"º":{"ha":649,"x_min":60,"x_max":589,"o":"m 324 379 q 518 460 447 379 q 589 683 589 540 q 517 908 589 826 q 324 989 446 989 q 131 908 201 989 q 60 683 60 826 q 131 460 60 540 q 324 379 201 379 m 324 483 q 212 536 253 483 q 171 683 171 589 q 212 832 171 779 q 324 885 253 885 q 438 833 399 885 q 478 683 478 781 q 438 535 478 588 q 324 483 399 483 "},"»":{"ha":715,"x_min":32,"x_max":664,"o":"m 32 0 l 164 0 l 375 356 l 164 710 l 32 710 l 243 356 l 32 0 m 318 0 l 453 0 l 664 356 l 453 710 l 318 710 l 529 356 l 318 0 "},"¼":{"ha":944,"x_min":17,"x_max":901,"o":"m 17 -17 l 131 -17 l 794 989 l 681 989 l 17 -17 m 106 393 l 206 393 l 206 979 l 131 979 q 35 922 107 922 l 35 850 l 106 850 l 106 393 m 731 0 l 828 0 l 828 135 l 901 135 l 901 226 l 828 226 l 828 588 l 742 588 l 438 193 l 438 135 l 731 135 l 731 0 m 731 226 l 565 226 l 731 444 l 731 226 "},"½":{"ha":1010,"x_min":17,"x_max":946,"o":"m 17 -17 l 131 -17 l 794 989 l 681 989 l 17 -17 m 106 393 l 206 393 l 206 979 l 131 979 q 35 922 107 922 l 35 850 l 106 850 l 106 393 m 550 0 l 944 0 l 944 93 l 663 93 q 786 217 692 163 q 908 307 869 264 q 946 421 946 350 q 893 548 946 500 q 754 596 840 596 q 619 553 674 596 q 550 440 565 510 l 642 413 q 749 507 661 507 q 819 482 794 507 q 843 425 843 457 q 821 359 843 385 q 754 307 799 333 q 602 178 654 247 q 550 0 550 110 "},"¾":{"ha":1128,"x_min":32,"x_max":1085,"o":"m 244 379 q 391 428 335 379 q 447 563 447 478 q 421 648 447 611 q 351 701 394 685 q 405 755 385 719 q 425 826 425 790 q 375 943 425 897 q 244 989 325 989 q 125 952 176 989 q 49 854 74 915 l 140 822 q 240 900 172 900 q 299 877 278 900 q 321 819 321 854 q 301 761 321 785 q 240 738 281 738 l 204 738 l 204 649 l 250 649 q 318 622 293 649 q 343 557 343 594 q 317 492 343 517 q 246 468 290 468 q 128 568 160 468 l 32 536 q 112 421 57 463 q 244 379 167 379 m 200 -17 l 314 -17 l 978 989 l 864 989 l 200 -17 m 913 0 l 1011 0 l 1011 135 l 1085 135 l 1085 226 l 1011 226 l 1011 588 l 925 588 l 619 193 l 619 135 l 913 135 l 913 0 m 913 226 l 747 226 l 913 444 l 913 226 "},"¿":{"ha":714,"x_min":60,"x_max":675,"o":"m 443 565 q 472 631 472 593 q 442 697 472 668 q 374 726 413 726 q 306 698 333 726 q 278 631 278 669 q 306 565 278 592 q 374 538 333 538 q 428 551 414 538 q 443 565 443 565 m 353 -278 q 585 -192 496 -278 q 675 39 675 -106 l 553 39 q 500 -112 553 -58 q 353 -167 447 -167 q 226 -123 271 -167 q 181 -8 181 -79 q 199 72 181 36 q 246 131 218 108 q 306 183 274 154 q 367 241 339 213 q 413 319 394 269 q 432 432 432 369 l 432 461 l 310 461 l 310 433 q 284 327 310 374 q 222 249 258 281 q 148 184 185 217 q 85 103 111 151 q 60 -8 60 54 q 137 -203 60 -128 q 353 -278 214 -278 "},"À":{"ha":943,"x_min":71,"x_max":872,"o":"m 507 1063 l 629 1063 l 432 1279 l 260 1279 l 507 1063 m 749 0 l 872 0 l 528 972 l 415 972 l 71 0 l 197 0 l 279 238 l 665 238 l 749 0 m 628 344 l 315 344 l 442 704 q 472 803 457 749 q 503 704 479 772 l 628 344 "},"Á":{"ha":943,"x_min":71,"x_max":872,"o":"m 329 1063 l 451 1063 l 699 1279 l 526 1279 l 329 1063 m 749 0 l 872 0 l 528 972 l 415 972 l 71 0 l 197 0 l 279 238 l 665 238 l 749 0 m 628 344 l 315 344 l 442 704 q 472 803 457 749 q 503 704 479 772 l 628 344 "},"Â":{"ha":943,"x_min":71,"x_max":872,"o":"m 618 1063 l 732 1063 l 529 1279 l 415 1279 l 211 1063 l 326 1063 l 472 1188 l 618 1063 m 749 0 l 872 0 l 528 972 l 415 972 l 71 0 l 197 0 l 279 238 l 665 238 l 749 0 m 628 344 l 315 344 l 442 704 q 472 803 457 749 q 503 704 479 772 l 628 344 "},"Ã":{"ha":943,"x_min":71,"x_max":872,"o":"m 581 1089 q 718 1256 718 1089 l 656 1256 q 635 1208 654 1225 q 590 1192 617 1192 q 487 1226 560 1192 q 361 1261 414 1261 q 224 1094 224 1261 l 286 1094 q 306 1141 288 1125 q 351 1157 324 1157 q 455 1123 382 1157 q 581 1089 528 1089 m 749 0 l 872 0 l 528 972 l 415 972 l 71 0 l 197 0 l 279 238 l 665 238 l 749 0 m 628 344 l 315 344 l 442 704 q 472 803 457 749 q 503 704 479 772 l 628 344 "},"Ä":{"ha":943,"x_min":71,"x_max":872,"o":"m 406 1117 q 428 1171 428 1139 q 406 1225 428 1203 q 351 1247 383 1247 q 297 1225 319 1247 q 275 1171 275 1203 q 297 1117 275 1139 q 351 1094 319 1094 q 394 1106 383 1094 q 406 1117 406 1117 m 646 1117 q 668 1171 668 1139 q 646 1225 668 1203 q 592 1247 624 1247 q 538 1225 560 1247 q 515 1171 515 1203 q 538 1117 515 1139 q 592 1094 560 1094 q 635 1106 624 1094 q 646 1117 646 1117 m 749 0 l 872 0 l 528 972 l 415 972 l 71 0 l 197 0 l 279 238 l 665 238 l 749 0 m 628 344 l 315 344 l 442 704 q 472 803 457 749 q 503 704 479 772 l 628 344 "},"Å":{"ha":943,"x_min":71,"x_max":872,"o":"m 71 0 l 197 0 l 279 238 l 665 238 l 749 0 l 872 0 l 556 894 q 616 953 593 915 q 639 1035 639 990 q 590 1149 639 1101 q 474 1196 540 1196 q 357 1149 406 1196 q 308 1035 308 1101 q 388 894 308 944 l 71 0 m 424 981 q 404 1035 404 1003 q 424 1087 404 1065 q 474 1108 444 1108 q 523 1087 503 1108 q 543 1035 543 1065 q 523 981 543 1003 q 474 960 503 960 q 434 970 444 960 q 424 981 424 981 m 315 344 l 442 704 q 472 803 457 749 q 503 704 479 772 l 628 344 l 315 344 "},"Æ":{"ha":1186,"x_min":-19,"x_max":1108,"o":"m -19 0 l 114 0 l 249 238 l 578 238 l 578 0 l 1108 0 l 1108 115 l 699 115 l 699 446 l 936 446 l 936 560 l 699 560 l 699 858 l 1078 858 l 1078 972 l 546 972 l -19 0 m 310 346 l 528 731 q 578 825 563 792 l 578 346 l 310 346 "},"Ç":{"ha":899,"x_min":94,"x_max":819,"o":"m 479 -329 q 599 -290 553 -329 q 646 -189 646 -250 q 609 -107 646 -140 q 496 -74 572 -74 l 531 -15 q 819 179 736 0 l 708 221 q 497 97 633 97 q 290 212 361 97 q 219 486 219 326 q 244 667 219 583 q 333 814 268 751 q 497 876 399 876 q 617 847 571 876 q 703 758 664 817 l 811 814 q 497 989 725 989 q 313 945 393 989 q 187 828 233 901 q 117 669 140 756 q 94 486 94 582 q 128 255 94 360 q 247 73 163 150 q 458 -15 332 -4 l 385 -107 l 407 -135 q 460 -125 426 -125 q 516 -143 492 -125 q 540 -187 540 -161 q 519 -235 540 -217 q 468 -254 499 -254 q 417 -236 431 -254 l 349 -283 q 479 -329 397 -329 "},"È":{"ha":832,"x_min":136,"x_max":744,"o":"m 419 1063 l 542 1063 l 344 1279 l 172 1279 l 419 1063 m 136 0 l 744 0 l 744 115 l 257 115 l 257 446 l 558 446 l 558 560 l 257 560 l 257 858 l 714 858 l 714 972 l 136 972 l 136 0 "},"É":{"ha":832,"x_min":136,"x_max":744,"o":"m 274 1063 l 396 1063 l 643 1279 l 471 1279 l 274 1063 m 136 0 l 744 0 l 744 115 l 257 115 l 257 446 l 558 446 l 558 560 l 257 560 l 257 858 l 714 858 l 714 972 l 136 972 l 136 0 "},"Ê":{"ha":832,"x_min":136,"x_max":744,"o":"m 574 1063 l 688 1063 l 485 1279 l 371 1279 l 167 1063 l 282 1063 l 428 1188 l 574 1063 m 136 0 l 744 0 l 744 115 l 257 115 l 257 446 l 558 446 l 558 560 l 257 560 l 257 858 l 714 858 l 714 972 l 136 972 l 136 0 "},"Ë":{"ha":832,"x_min":136,"x_max":744,"o":"m 364 1117 q 386 1171 386 1139 q 364 1225 386 1203 q 310 1247 342 1247 q 256 1225 278 1247 q 233 1171 233 1203 q 256 1117 233 1139 q 310 1094 278 1094 q 353 1106 342 1094 q 364 1117 364 1117 m 604 1117 q 626 1171 626 1139 q 604 1225 626 1203 q 550 1247 582 1247 q 496 1225 518 1247 q 474 1171 474 1203 q 496 1117 474 1139 q 550 1094 518 1094 q 593 1106 582 1094 q 604 1117 604 1117 m 136 0 l 744 0 l 744 115 l 257 115 l 257 446 l 558 446 l 558 560 l 257 560 l 257 858 l 714 858 l 714 972 l 136 972 l 136 0 "},"Ì":{"ha":399,"x_min":-24,"x_max":346,"o":"m 224 1063 l 346 1063 l 149 1279 l -24 1279 l 224 1063 m 139 0 l 260 0 l 260 972 l 139 972 l 139 0 "},"Í":{"ha":399,"x_min":43,"x_max":413,"o":"m 43 1063 l 165 1063 l 413 1279 l 240 1279 l 43 1063 m 139 0 l 260 0 l 260 972 l 139 972 l 139 0 "},"Î":{"ha":399,"x_min":-61,"x_max":460,"o":"m 346 1063 l 460 1063 l 257 1279 l 143 1279 l -61 1063 l 54 1063 l 200 1188 l 346 1063 m 139 0 l 260 0 l 260 972 l 139 972 l 139 0 "},"Ï":{"ha":399,"x_min":3,"x_max":396,"o":"m 133 1117 q 156 1171 156 1139 q 133 1225 156 1203 q 79 1247 111 1247 q 25 1225 47 1247 q 3 1171 3 1203 q 25 1117 3 1139 q 79 1094 47 1094 q 122 1106 111 1094 q 133 1117 133 1117 m 374 1117 q 396 1171 396 1139 q 374 1225 396 1203 q 319 1247 351 1247 q 265 1225 288 1247 q 243 1171 243 1203 q 265 1117 243 1139 q 319 1094 288 1094 q 363 1106 351 1094 q 374 1117 374 1117 m 139 0 l 260 0 l 260 972 l 139 972 l 139 0 "},"Ð":{"ha":947,"x_min":42,"x_max":853,"o":"m 136 431 l 136 0 l 396 0 q 615 44 522 0 q 758 160 708 88 q 830 315 807 233 q 853 486 853 396 q 828 664 853 581 q 753 818 804 747 q 611 931 701 889 q 401 972 521 972 l 136 972 l 136 540 l 42 540 l 42 431 l 136 431 m 411 113 l 257 113 l 257 431 l 469 431 l 469 540 l 257 540 l 257 861 l 426 861 q 599 806 528 861 q 699 668 669 750 q 728 486 728 586 q 712 353 728 415 q 661 234 696 290 q 562 145 626 178 q 411 113 497 113 "},"Ñ":{"ha":983,"x_min":136,"x_max":847,"o":"m 607 1089 q 744 1256 744 1089 l 682 1256 q 662 1208 681 1225 q 617 1192 643 1192 q 513 1226 586 1192 q 388 1261 440 1261 q 250 1094 250 1261 l 313 1094 q 332 1141 314 1125 q 378 1157 350 1157 q 481 1123 408 1157 q 607 1089 554 1089 m 847 0 l 847 972 l 726 972 l 726 279 q 729 208 726 258 q 689 281 711 244 l 258 972 l 136 972 l 136 0 l 257 0 l 257 694 q 254 763 257 721 q 293 694 268 735 l 731 0 l 847 0 "},"Ò":{"ha":1014,"x_min":94,"x_max":921,"o":"m 528 1064 l 650 1064 l 453 1281 l 281 1281 l 528 1064 m 507 -17 q 667 13 596 -17 q 785 90 739 42 q 863 206 832 139 q 908 342 894 272 q 921 486 921 411 q 908 631 921 561 q 863 767 894 700 q 785 882 832 833 q 667 960 739 931 q 507 989 596 989 q 315 945 397 989 q 185 827 232 901 q 117 667 139 753 q 94 486 94 582 q 117 305 94 390 q 185 145 139 219 q 315 27 232 71 q 507 -17 397 -17 m 373 131 q 283 221 315 164 q 235 344 250 278 q 219 486 219 411 q 235 622 219 557 q 283 747 251 688 q 373 841 315 806 q 507 876 431 876 q 676 817 608 876 q 769 673 743 757 q 794 486 794 589 q 779 351 794 417 q 732 226 764 285 q 642 133 700 168 q 507 97 583 97 q 402 114 431 97 q 373 131 373 131 "},"Ó":{"ha":1014,"x_min":94,"x_max":921,"o":"m 350 1063 l 472 1063 l 719 1279 l 547 1279 l 350 1063 m 507 -17 q 667 13 596 -17 q 785 90 739 42 q 863 206 832 139 q 908 342 894 272 q 921 486 921 411 q 908 631 921 561 q 863 767 894 700 q 785 882 832 833 q 667 960 739 931 q 507 989 596 989 q 315 945 397 989 q 185 827 232 901 q 117 667 139 753 q 94 486 94 582 q 117 305 94 390 q 185 145 139 219 q 315 27 232 71 q 507 -17 397 -17 m 373 131 q 283 221 315 164 q 235 344 250 278 q 219 486 219 411 q 235 622 219 557 q 283 747 251 688 q 373 841 315 806 q 507 876 431 876 q 676 817 608 876 q 769 673 743 757 q 794 486 794 589 q 779 351 794 417 q 732 226 764 285 q 642 133 700 168 q 507 97 583 97 q 402 114 431 97 q 373 131 373 131 "},"Ô":{"ha":1014,"x_min":94,"x_max":921,"o":"m 653 1063 l 767 1063 l 564 1279 l 450 1279 l 246 1063 l 361 1063 l 507 1188 l 653 1063 m 507 -17 q 667 13 596 -17 q 785 90 739 42 q 863 206 832 139 q 908 342 894 272 q 921 486 921 411 q 908 631 921 561 q 863 767 894 700 q 785 882 832 833 q 667 960 739 931 q 507 989 596 989 q 315 945 397 989 q 185 827 232 901 q 117 667 139 753 q 94 486 94 582 q 117 305 94 390 q 185 145 139 219 q 315 27 232 71 q 507 -17 397 -17 m 373 131 q 283 221 315 164 q 235 344 250 278 q 219 486 219 411 q 235 622 219 557 q 283 747 251 688 q 373 841 315 806 q 507 876 431 876 q 676 817 608 876 q 769 673 743 757 q 794 486 794 589 q 779 351 794 417 q 732 226 764 285 q 642 133 700 168 q 507 97 583 97 q 402 114 431 97 q 373 131 373 131 "},"Õ":{"ha":1014,"x_min":94,"x_max":921,"o":"m 615 1089 q 753 1256 753 1089 l 690 1256 q 670 1208 689 1225 q 625 1192 651 1192 q 522 1226 594 1192 q 396 1261 449 1261 q 258 1094 258 1261 l 321 1094 q 340 1141 322 1125 q 386 1157 358 1157 q 490 1123 417 1157 q 615 1089 563 1089 m 507 -17 q 667 13 596 -17 q 785 90 739 42 q 863 206 832 139 q 908 342 894 272 q 921 486 921 411 q 908 631 921 561 q 863 767 894 700 q 785 882 832 833 q 667 960 739 931 q 507 989 596 989 q 315 945 397 989 q 185 827 232 901 q 117 667 139 753 q 94 486 94 582 q 117 305 94 390 q 185 145 139 219 q 315 27 232 71 q 507 -17 397 -17 m 373 131 q 283 221 315 164 q 235 344 250 278 q 219 486 219 411 q 235 622 219 557 q 283 747 251 688 q 373 841 315 806 q 507 876 431 876 q 676 817 608 876 q 769 673 743 757 q 794 486 794 589 q 779 351 794 417 q 732 226 764 285 q 642 133 700 168 q 507 97 583 97 q 402 114 431 97 q 373 131 373 131 "},"Ö":{"ha":1014,"x_min":94,"x_max":921,"o":"m 440 1117 q 463 1171 463 1139 q 440 1225 463 1203 q 386 1247 418 1247 q 332 1225 354 1247 q 310 1171 310 1203 q 332 1117 310 1139 q 386 1094 354 1094 q 429 1106 418 1094 q 440 1117 440 1117 m 681 1117 q 703 1171 703 1139 q 681 1225 703 1203 q 626 1247 658 1247 q 572 1225 594 1247 q 550 1171 550 1203 q 572 1117 550 1139 q 626 1094 594 1094 q 669 1106 658 1094 q 681 1117 681 1117 m 507 -17 q 667 13 596 -17 q 785 90 739 42 q 863 206 832 139 q 908 342 894 272 q 921 486 921 411 q 908 631 921 561 q 863 767 894 700 q 785 882 832 833 q 667 960 739 931 q 507 989 596 989 q 315 945 397 989 q 185 827 232 901 q 117 667 139 753 q 94 486 94 582 q 117 305 94 390 q 185 145 139 219 q 315 27 232 71 q 507 -17 397 -17 m 373 131 q 283 221 315 164 q 235 344 250 278 q 219 486 219 411 q 235 622 219 557 q 283 747 251 688 q 373 841 315 806 q 507 876 431 876 q 676 817 608 876 q 769 673 743 757 q 794 486 794 589 q 779 351 794 417 q 732 226 764 285 q 642 133 700 168 q 507 97 583 97 q 402 114 431 97 q 373 131 373 131 "},"×":{"ha":896,"x_min":133,"x_max":763,"o":"m 450 392 l 678 163 l 761 246 l 532 475 l 763 703 l 675 790 l 447 561 l 218 789 l 135 706 l 364 478 l 133 249 l 221 161 l 450 392 "},"Ø":{"ha":1007,"x_min":90,"x_max":917,"o":"m 103 -17 l 225 -17 l 272 53 q 504 -17 368 -17 q 697 27 614 -17 q 826 145 779 71 q 894 305 872 219 q 917 486 917 390 q 810 849 917 713 l 906 989 l 781 989 l 735 921 q 504 989 638 989 q 344 960 415 989 q 226 882 272 931 q 148 767 179 833 q 103 631 117 700 q 90 486 90 561 q 197 124 90 260 l 103 -17 m 272 235 q 217 486 217 332 q 232 622 217 557 q 279 747 247 688 q 369 841 311 806 q 504 876 428 876 q 668 821 599 876 l 272 235 m 504 97 q 339 151 407 97 l 735 738 q 792 486 792 638 q 776 351 792 417 q 728 226 760 285 q 638 133 696 168 q 504 97 581 97 "},"Ù":{"ha":957,"x_min":129,"x_max":828,"o":"m 504 1063 l 626 1063 l 429 1279 l 257 1279 l 504 1063 m 478 -17 q 828 365 828 -17 l 828 972 l 707 972 l 707 365 q 645 157 707 217 q 478 97 583 97 q 311 157 372 97 q 250 365 250 217 l 250 972 l 129 972 l 129 365 q 478 -17 129 -17 "},"Ú":{"ha":957,"x_min":129,"x_max":828,"o":"m 342 1063 l 464 1063 l 711 1279 l 539 1279 l 342 1063 m 478 -17 q 828 365 828 -17 l 828 972 l 707 972 l 707 365 q 645 157 707 217 q 478 97 583 97 q 311 157 372 97 q 250 365 250 217 l 250 972 l 129 972 l 129 365 q 478 -17 129 -17 "},"Û":{"ha":957,"x_min":129,"x_max":828,"o":"m 625 1063 l 739 1063 l 536 1279 l 422 1279 l 218 1063 l 333 1063 l 479 1188 l 625 1063 m 478 -17 q 828 365 828 -17 l 828 972 l 707 972 l 707 365 q 645 157 707 217 q 478 97 583 97 q 311 157 372 97 q 250 365 250 217 l 250 972 l 129 972 l 129 365 q 478 -17 129 -17 "},"Ü":{"ha":957,"x_min":129,"x_max":828,"o":"m 413 1117 q 435 1171 435 1139 q 413 1225 435 1203 q 358 1247 390 1247 q 304 1225 326 1247 q 282 1171 282 1203 q 304 1117 282 1139 q 358 1094 326 1094 q 401 1106 390 1094 q 413 1117 413 1117 m 653 1117 q 675 1171 675 1139 q 653 1225 675 1203 q 599 1247 631 1247 q 544 1225 567 1247 q 522 1171 522 1203 q 544 1117 522 1139 q 599 1094 567 1094 q 642 1106 631 1094 q 653 1117 653 1117 m 478 -17 q 828 365 828 -17 l 828 972 l 707 972 l 707 365 q 645 157 707 217 q 478 97 583 97 q 311 157 372 97 q 250 365 250 217 l 250 972 l 129 972 l 129 365 q 478 -17 129 -17 "},"Ý":{"ha":890,"x_min":56,"x_max":835,"o":"m 308 1063 l 431 1063 l 678 1279 l 506 1279 l 308 1063 m 386 0 l 507 0 l 507 385 l 835 972 l 703 972 l 446 500 l 192 972 l 56 972 l 386 382 l 386 0 "},"Þ":{"ha":878,"x_min":136,"x_max":822,"o":"m 136 0 l 257 0 l 257 203 l 508 203 q 744 291 665 203 q 822 494 822 379 q 806 601 822 551 q 754 694 789 651 q 656 761 719 736 q 508 786 593 786 l 257 786 l 257 972 l 136 972 l 136 0 m 517 317 l 257 317 l 257 672 l 517 672 q 658 618 615 672 q 701 494 701 564 q 656 369 701 421 q 517 317 611 317 "},"ß":{"ha":781,"x_min":101,"x_max":715,"o":"m 101 -281 l 222 -222 l 222 665 q 267 826 222 774 q 386 879 313 879 q 501 839 461 879 q 542 729 542 799 q 499 619 542 656 q 383 583 457 583 l 365 583 l 365 472 l 383 472 q 541 419 490 472 q 592 288 592 365 q 540 144 592 194 q 424 94 489 94 q 361 103 386 94 l 301 6 q 422 -17 350 -17 q 633 67 550 -17 q 715 292 715 151 q 668 442 715 378 q 533 535 621 507 q 632 612 599 558 q 665 735 665 665 q 588 919 665 849 q 385 989 510 989 q 249 958 310 989 q 144 851 188 928 q 101 661 101 775 l 101 -281 "},"à":{"ha":731,"x_min":74,"x_max":636,"o":"m 383 800 l 506 800 l 308 1017 l 136 1017 l 383 800 m 522 0 l 636 0 l 636 471 q 383 726 636 726 q 126 651 240 726 l 161 550 q 368 621 261 621 q 483 585 443 621 q 522 461 522 550 l 522 411 q 339 457 442 457 q 150 397 226 457 q 74 222 74 338 q 141 45 74 107 q 321 -17 208 -17 q 522 65 435 -17 l 522 0 m 339 90 q 227 126 267 90 q 188 222 188 163 q 235 319 188 286 q 356 353 282 353 q 522 306 446 353 l 522 183 q 339 90 443 90 "},"á":{"ha":731,"x_min":74,"x_max":636,"o":"m 226 800 l 349 800 l 596 1017 l 424 1017 l 226 800 m 522 0 l 636 0 l 636 471 q 383 726 636 726 q 126 651 240 726 l 161 550 q 368 621 261 621 q 483 585 443 621 q 522 461 522 550 l 522 411 q 339 457 442 457 q 150 397 226 457 q 74 222 74 338 q 141 45 74 107 q 321 -17 208 -17 q 522 65 435 -17 l 522 0 m 339 90 q 227 126 267 90 q 188 222 188 163 q 235 319 188 286 q 356 353 282 353 q 522 306 446 353 l 522 183 q 339 90 443 90 "},"â":{"ha":731,"x_min":74,"x_max":643,"o":"m 529 800 l 643 800 l 440 1017 l 326 1017 l 122 800 l 238 800 l 383 925 l 529 800 m 522 0 l 636 0 l 636 471 q 383 726 636 726 q 126 651 240 726 l 161 550 q 368 621 261 621 q 483 585 443 621 q 522 461 522 550 l 522 411 q 339 457 442 457 q 150 397 226 457 q 74 222 74 338 q 141 45 74 107 q 321 -17 208 -17 q 522 65 435 -17 l 522 0 m 339 90 q 227 126 267 90 q 188 222 188 163 q 235 319 188 286 q 356 353 282 353 q 522 306 446 353 l 522 183 q 339 90 443 90 "},"ã":{"ha":731,"x_min":74,"x_max":636,"o":"m 492 826 q 629 993 629 826 l 567 993 q 547 946 565 963 q 501 929 528 929 q 398 964 471 929 q 272 999 325 999 q 135 832 135 999 l 197 832 q 217 878 199 863 q 263 894 235 894 q 366 860 293 894 q 492 826 439 826 m 522 0 l 636 0 l 636 471 q 383 726 636 726 q 126 651 240 726 l 161 550 q 368 621 261 621 q 483 585 443 621 q 522 461 522 550 l 522 411 q 339 457 442 457 q 150 397 226 457 q 74 222 74 338 q 141 45 74 107 q 321 -17 208 -17 q 522 65 435 -17 l 522 0 m 339 90 q 227 126 267 90 q 188 222 188 163 q 235 319 188 286 q 356 353 282 353 q 522 306 446 353 l 522 183 q 339 90 443 90 "},"ä":{"ha":731,"x_min":74,"x_max":636,"o":"m 317 854 q 339 908 339 876 q 317 963 339 940 q 263 985 294 985 q 208 963 231 985 q 186 908 186 940 q 208 854 186 876 q 263 832 231 832 q 306 843 294 832 q 317 854 317 854 m 557 854 q 579 908 579 876 q 557 963 579 940 q 503 985 535 985 q 449 963 471 985 q 426 908 426 940 q 449 854 426 876 q 503 832 471 832 q 546 843 535 832 q 557 854 557 854 m 522 0 l 636 0 l 636 471 q 383 726 636 726 q 126 651 240 726 l 161 550 q 368 621 261 621 q 483 585 443 621 q 522 461 522 550 l 522 411 q 339 457 442 457 q 150 397 226 457 q 74 222 74 338 q 141 45 74 107 q 321 -17 208 -17 q 522 65 435 -17 l 522 0 m 339 90 q 227 126 267 90 q 188 222 188 163 q 235 319 188 286 q 356 353 282 353 q 522 306 446 353 l 522 183 q 339 90 443 90 "},"å":{"ha":731,"x_min":74,"x_max":636,"o":"m 385 793 q 501 842 451 793 q 550 957 550 890 q 501 1071 550 1024 q 385 1118 451 1118 q 268 1071 317 1118 q 219 957 219 1024 q 268 842 219 890 q 385 793 317 793 m 335 903 q 314 957 314 925 q 335 1010 314 989 q 385 1031 356 1031 q 434 1010 414 1031 q 454 957 454 990 q 434 903 454 925 q 385 882 414 882 q 345 893 356 882 q 335 903 335 903 m 522 0 l 636 0 l 636 471 q 383 726 636 726 q 126 651 240 726 l 161 550 q 368 621 261 621 q 483 585 443 621 q 522 461 522 550 l 522 411 q 339 457 442 457 q 150 397 226 457 q 74 222 74 338 q 141 45 74 107 q 321 -17 208 -17 q 522 65 435 -17 l 522 0 m 339 90 q 227 126 267 90 q 188 222 188 163 q 235 319 188 286 q 356 353 282 353 q 522 306 446 353 l 522 183 q 339 90 443 90 "},"æ":{"ha":1190,"x_min":74,"x_max":1125,"o":"m 321 -17 q 457 15 386 -17 q 581 115 528 47 q 831 -17 669 -17 q 1061 75 969 -17 l 988 157 q 833 93 924 93 q 702 151 756 93 q 640 308 649 208 l 1121 308 q 1125 389 1125 350 q 1044 639 1125 551 q 831 726 963 726 q 597 621 682 726 q 383 726 539 726 q 126 651 240 726 l 161 550 q 368 621 261 621 q 484 583 446 621 q 522 461 522 546 l 522 411 q 339 457 442 457 q 150 397 226 457 q 74 222 74 338 q 141 45 74 107 q 321 -17 208 -17 m 639 414 q 697 568 644 517 q 832 619 750 619 q 950 571 899 619 q 1003 414 1001 522 l 639 414 m 339 90 q 227 126 267 90 q 188 222 188 163 q 235 319 188 286 q 356 353 282 353 q 522 306 442 353 q 532 199 525 246 q 448 122 499 153 q 339 90 397 90 "},"ç":{"ha":694,"x_min":74,"x_max":628,"o":"m 356 -329 q 475 -290 429 -329 q 521 -189 521 -250 q 485 -107 521 -140 q 372 -74 449 -74 l 408 -15 q 628 165 578 4 l 515 203 q 371 97 482 97 q 242 165 286 97 q 197 354 197 232 q 242 546 197 478 q 375 614 286 614 q 508 519 472 614 l 622 561 q 374 726 563 726 q 153 628 233 726 q 74 354 74 529 q 143 94 74 190 q 335 -14 213 -3 l 261 -107 l 283 -135 q 336 -125 303 -125 q 392 -143 368 -125 q 417 -187 417 -161 q 396 -235 417 -217 q 344 -254 375 -254 q 293 -236 307 -254 l 225 -283 q 356 -329 274 -329 "},"è":{"ha":747,"x_min":74,"x_max":682,"o":"m 424 800 l 546 800 l 349 1017 l 176 1017 l 424 800 m 389 -17 q 618 75 526 -17 l 544 157 q 392 93 481 93 q 258 152 311 93 q 197 308 204 211 l 678 308 q 682 389 682 350 q 599 641 682 556 q 389 726 517 726 q 160 628 246 726 q 74 356 74 529 q 159 87 74 190 q 389 -17 244 -17 m 196 411 q 254 567 201 515 q 389 619 307 619 q 508 570 457 619 q 560 411 558 521 l 196 411 "},"é":{"ha":747,"x_min":74,"x_max":682,"o":"m 232 800 l 354 800 l 601 1017 l 429 1017 l 232 800 m 389 -17 q 618 75 526 -17 l 544 157 q 392 93 481 93 q 258 152 311 93 q 197 308 204 211 l 678 308 q 682 389 682 350 q 599 641 682 556 q 389 726 517 726 q 160 628 246 726 q 74 356 74 529 q 159 87 74 190 q 389 -17 244 -17 m 196 411 q 254 567 201 515 q 389 619 307 619 q 508 570 457 619 q 560 411 558 521 l 196 411 "},"ê":{"ha":747,"x_min":74,"x_max":682,"o":"m 535 800 l 649 800 l 446 1017 l 332 1017 l 128 800 l 243 800 l 389 925 l 535 800 m 389 -17 q 618 75 526 -17 l 544 157 q 392 93 481 93 q 258 152 311 93 q 197 308 204 211 l 678 308 q 682 389 682 350 q 599 641 682 556 q 389 726 517 726 q 160 628 246 726 q 74 356 74 529 q 159 87 74 190 q 389 -17 244 -17 m 196 411 q 254 567 201 515 q 389 619 307 619 q 508 570 457 619 q 560 411 558 521 l 196 411 "},"ë":{"ha":747,"x_min":74,"x_max":682,"o":"m 322 854 q 344 908 344 876 q 322 963 344 940 q 268 985 300 985 q 214 963 236 985 q 192 908 192 940 q 214 854 192 876 q 268 832 236 832 q 311 843 300 832 q 322 854 322 854 m 563 854 q 585 908 585 876 q 563 963 585 940 q 508 985 540 985 q 454 963 476 985 q 432 908 432 940 q 454 854 432 876 q 508 832 476 832 q 551 843 540 832 q 563 854 563 854 m 389 -17 q 618 75 526 -17 l 544 157 q 392 93 481 93 q 258 152 311 93 q 197 308 204 211 l 678 308 q 682 389 682 350 q 599 641 682 556 q 389 726 517 726 q 160 628 246 726 q 74 356 74 529 q 159 87 74 190 q 389 -17 244 -17 m 196 411 q 254 567 201 515 q 389 619 307 619 q 508 570 457 619 q 560 411 558 521 l 196 411 "},"ì":{"ha":353,"x_min":-56,"x_max":314,"o":"m 192 800 l 314 800 l 117 1017 l -56 1017 l 192 800 m 117 0 l 238 0 l 238 710 l 117 710 l 117 0 "},"í":{"ha":353,"x_min":39,"x_max":408,"o":"m 39 800 l 161 800 l 408 1017 l 236 1017 l 39 800 m 117 0 l 238 0 l 238 710 l 117 710 l 117 0 "},"î":{"ha":353,"x_min":-85,"x_max":436,"o":"m 322 800 l 436 800 l 233 1017 l 119 1017 l -85 800 l 31 800 l 176 925 l 322 800 m 117 0 l 238 0 l 238 710 l 117 710 l 117 0 "},"ï":{"ha":353,"x_min":-21,"x_max":372,"o":"m 110 854 q 132 908 132 876 q 110 963 132 940 q 56 985 88 985 q 1 963 24 985 q -21 908 -21 940 q 1 854 -21 876 q 56 832 24 832 q 99 843 88 832 q 110 854 110 854 m 350 854 q 372 908 372 876 q 350 963 372 940 q 296 985 328 985 q 242 963 264 985 q 219 908 219 940 q 242 854 219 876 q 296 832 264 832 q 339 843 328 832 q 350 854 350 854 m 117 0 l 238 0 l 238 710 l 117 710 l 117 0 "},"ð":{"ha":775,"x_min":74,"x_max":701,"o":"m 388 -17 q 621 90 540 -17 q 701 374 701 196 q 496 881 701 717 l 564 953 l 501 1014 l 421 929 q 186 989 318 982 l 186 892 q 349 851 276 886 l 274 771 l 335 711 l 424 806 q 578 525 549 707 q 502 603 553 572 q 381 633 451 633 q 162 542 250 633 q 74 307 74 450 q 161 75 74 167 q 388 -17 249 -17 m 251 156 q 196 307 196 217 q 251 462 196 401 q 386 522 306 522 q 524 460 469 522 q 579 306 579 399 q 524 156 579 217 q 388 96 468 96 q 279 126 307 96 q 251 156 251 156 "},"ñ":{"ha":782,"x_min":115,"x_max":674,"o":"m 508 826 q 646 993 646 826 l 583 993 q 563 946 582 963 q 518 929 544 929 q 415 964 488 929 q 289 999 342 999 q 151 832 151 999 l 214 832 q 233 878 215 863 q 279 894 251 894 q 383 860 310 894 q 508 826 456 826 m 553 0 l 674 0 l 674 408 q 609 651 674 575 q 419 726 544 726 q 236 638 301 726 l 236 710 l 115 710 l 115 0 l 236 0 l 236 432 q 400 615 236 615 q 512 570 471 615 q 553 429 553 525 l 553 0 "},"ò":{"ha":775,"x_min":74,"x_max":701,"o":"m 422 800 l 544 800 l 347 1017 l 175 1017 l 422 800 m 617 83 q 701 356 701 182 q 617 628 701 529 q 388 726 532 726 q 158 627 243 726 q 74 354 74 528 q 158 82 74 181 q 388 -17 243 -17 q 574 33 532 -17 q 617 83 617 83 m 247 165 q 196 354 196 233 q 247 547 196 478 q 388 615 297 615 q 528 546 478 615 q 579 356 579 476 q 528 165 579 233 q 388 96 478 96 q 272 130 297 96 q 247 165 247 165 "},"ó":{"ha":775,"x_min":74,"x_max":701,"o":"m 231 800 l 353 800 l 600 1017 l 428 1017 l 231 800 m 617 83 q 701 356 701 182 q 617 628 701 529 q 388 726 532 726 q 158 627 243 726 q 74 354 74 528 q 158 82 74 181 q 388 -17 243 -17 q 574 33 532 -17 q 617 83 617 83 m 247 165 q 196 354 196 233 q 247 547 196 478 q 388 615 297 615 q 528 546 478 615 q 579 356 579 476 q 528 165 579 233 q 388 96 478 96 q 272 130 297 96 q 247 165 247 165 "},"ô":{"ha":775,"x_min":74,"x_max":701,"o":"m 533 800 l 647 800 l 444 1017 l 331 1017 l 126 800 l 242 800 l 388 925 l 533 800 m 617 83 q 701 356 701 182 q 617 628 701 529 q 388 726 532 726 q 158 627 243 726 q 74 354 74 528 q 158 82 74 181 q 388 -17 243 -17 q 574 33 532 -17 q 617 83 617 83 m 247 165 q 196 354 196 233 q 247 547 196 478 q 388 615 297 615 q 528 546 478 615 q 579 356 579 476 q 528 165 579 233 q 388 96 478 96 q 272 130 297 96 q 247 165 247 165 "},"õ":{"ha":775,"x_min":74,"x_max":701,"o":"m 496 826 q 633 993 633 826 l 571 993 q 551 946 569 963 q 506 929 532 929 q 402 964 475 929 q 276 999 329 999 q 139 832 139 999 l 201 832 q 221 878 203 863 q 267 894 239 894 q 370 860 297 894 q 496 826 443 826 m 617 83 q 701 356 701 182 q 617 628 701 529 q 388 726 532 726 q 158 627 243 726 q 74 354 74 528 q 158 82 74 181 q 388 -17 243 -17 q 574 33 532 -17 q 617 83 617 83 m 247 165 q 196 354 196 233 q 247 547 196 478 q 388 615 297 615 q 528 546 478 615 q 579 356 579 476 q 528 165 579 233 q 388 96 478 96 q 272 130 297 96 q 247 165 247 165 "},"ö":{"ha":775,"x_min":74,"x_max":701,"o":"m 321 854 q 343 908 343 876 q 321 963 343 940 q 267 985 299 985 q 213 963 235 985 q 190 908 190 940 q 213 854 190 876 q 267 832 235 832 q 310 843 299 832 q 321 854 321 854 m 561 854 q 583 908 583 876 q 561 963 583 940 q 507 985 539 985 q 453 963 475 985 q 431 908 431 940 q 453 854 431 876 q 507 832 475 832 q 550 843 539 832 q 561 854 561 854 m 617 83 q 701 356 701 182 q 617 628 701 529 q 388 726 532 726 q 158 627 243 726 q 74 354 74 528 q 158 82 74 181 q 388 -17 243 -17 q 574 33 532 -17 q 617 83 617 83 m 247 165 q 196 354 196 233 q 247 547 196 478 q 388 615 297 615 q 528 546 478 615 q 579 356 579 476 q 528 165 579 233 q 388 96 478 96 q 272 130 297 96 q 247 165 247 165 "},"÷":{"ha":896,"x_min":122,"x_max":775,"o":"m 503 698 q 526 753 526 721 q 503 808 526 785 q 446 831 479 831 q 390 808 413 831 q 367 753 367 785 q 389 697 367 719 q 446 675 411 675 q 492 686 481 675 q 503 698 503 698 m 122 418 l 775 418 l 775 535 l 122 535 l 122 418 m 503 144 q 526 199 526 167 q 503 253 526 231 q 446 276 481 276 q 389 253 411 276 q 367 199 367 231 q 389 144 367 167 q 446 122 411 122 q 492 133 481 122 q 503 144 503 144 "},"ø":{"ha":775,"x_min":74,"x_max":701,"o":"m 701 726 l 589 726 l 557 681 q 388 726 486 726 q 158 627 243 726 q 74 354 74 528 q 150 93 74 192 l 74 -17 l 183 -17 l 217 31 q 388 -17 290 -17 q 617 83 532 -17 q 701 356 701 182 q 625 617 701 518 l 701 726 m 196 354 q 247 547 196 478 q 388 615 297 615 q 490 585 447 615 l 225 201 q 196 354 196 261 m 579 356 q 528 165 579 233 q 388 96 478 96 q 283 128 328 96 l 550 510 q 579 356 579 447 "},"ù":{"ha":782,"x_min":108,"x_max":667,"o":"m 418 800 l 540 800 l 343 1017 l 171 1017 l 418 800 m 546 0 l 667 0 l 667 710 l 546 710 l 546 279 q 382 96 546 96 q 270 141 311 96 q 229 282 229 186 l 229 710 l 108 710 l 108 300 q 173 58 108 133 q 367 -17 238 -17 q 546 68 481 -17 l 546 0 "},"ú":{"ha":782,"x_min":108,"x_max":667,"o":"m 226 800 l 349 800 l 596 1017 l 424 1017 l 226 800 m 546 0 l 667 0 l 667 710 l 546 710 l 546 279 q 382 96 546 96 q 270 141 311 96 q 229 282 229 186 l 229 710 l 108 710 l 108 300 q 173 58 108 133 q 367 -17 238 -17 q 546 68 481 -17 l 546 0 "},"û":{"ha":782,"x_min":108,"x_max":667,"o":"m 529 800 l 643 800 l 440 1017 l 326 1017 l 122 800 l 238 800 l 383 925 l 529 800 m 546 0 l 667 0 l 667 710 l 546 710 l 546 279 q 382 96 546 96 q 270 141 311 96 q 229 282 229 186 l 229 710 l 108 710 l 108 300 q 173 58 108 133 q 367 -17 238 -17 q 546 68 481 -17 l 546 0 "},"ü":{"ha":782,"x_min":108,"x_max":667,"o":"m 317 854 q 339 908 339 876 q 317 963 339 940 q 263 985 294 985 q 208 963 231 985 q 186 908 186 940 q 208 854 186 876 q 263 832 231 832 q 306 843 294 832 q 317 854 317 854 m 557 854 q 579 908 579 876 q 557 963 579 940 q 503 985 535 985 q 449 963 471 985 q 426 908 426 940 q 449 854 426 876 q 503 832 471 832 q 546 843 535 832 q 557 854 557 854 m 546 0 l 667 0 l 667 710 l 546 710 l 546 279 q 382 96 546 96 q 270 141 311 96 q 229 282 229 186 l 229 710 l 108 710 l 108 300 q 173 58 108 133 q 367 -17 238 -17 q 546 68 481 -17 l 546 0 "},"ý":{"ha":736,"x_min":46,"x_max":690,"o":"m 208 800 l 331 800 l 578 1017 l 406 1017 l 208 800 m 200 -269 l 322 -269 l 690 710 l 567 710 l 388 226 q 365 158 378 203 q 343 226 353 203 l 167 710 l 46 710 l 308 18 l 200 -269 "},"þ":{"ha":783,"x_min":115,"x_max":711,"o":"m 418 -17 q 631 83 550 -17 q 711 356 711 182 q 632 626 711 526 q 418 726 553 726 q 236 650 313 726 l 236 989 l 115 932 l 115 -281 l 236 -224 l 236 67 q 418 -17 307 -17 m 403 96 q 236 192 310 96 l 236 519 q 403 615 290 615 q 538 544 489 615 q 588 356 588 472 q 540 163 588 231 q 403 96 492 96 "},"ÿ":{"ha":736,"x_min":46,"x_max":690,"o":"m 299 854 q 321 908 321 876 q 299 963 321 940 q 244 985 276 985 q 190 963 213 985 q 168 908 168 940 q 190 854 168 876 q 244 832 213 832 q 288 843 276 832 q 299 854 299 854 m 539 854 q 561 908 561 876 q 539 963 561 940 q 485 985 517 985 q 431 963 453 985 q 408 908 408 940 q 431 854 408 876 q 485 832 453 832 q 528 843 517 832 q 539 854 539 854 m 200 -269 l 322 -269 l 690 710 l 567 710 l 388 226 q 365 158 378 203 q 343 226 353 203 l 167 710 l 46 710 l 308 18 l 200 -269 "},"Ā":{"ha":943,"x_min":71,"x_max":872,"o":"m 242 1100 l 700 1100 l 700 1203 l 242 1203 l 242 1100 m 749 0 l 872 0 l 528 972 l 415 972 l 71 0 l 197 0 l 279 238 l 665 238 l 749 0 m 628 344 l 315 344 l 442 704 q 472 803 457 749 q 503 704 479 772 l 628 344 "},"ā":{"ha":731,"x_min":74,"x_max":636,"o":"m 153 838 l 611 838 l 611 940 l 153 940 l 153 838 m 522 0 l 636 0 l 636 471 q 383 726 636 726 q 126 651 240 726 l 161 550 q 368 621 261 621 q 483 585 443 621 q 522 461 522 550 l 522 411 q 339 457 442 457 q 150 397 226 457 q 74 222 74 338 q 141 45 74 107 q 321 -17 208 -17 q 522 65 435 -17 l 522 0 m 339 90 q 227 126 267 90 q 188 222 188 163 q 235 319 188 286 q 356 353 282 353 q 522 306 446 353 l 522 183 q 339 90 443 90 "},"Ă":{"ha":943,"x_min":71,"x_max":872,"o":"m 471 1067 q 661 1131 597 1067 q 725 1293 725 1194 l 617 1293 q 576 1202 617 1236 q 471 1168 536 1168 q 367 1202 407 1168 q 326 1293 326 1236 l 218 1293 q 282 1131 218 1194 q 471 1067 346 1067 m 749 0 l 872 0 l 528 972 l 415 972 l 71 0 l 197 0 l 279 238 l 665 238 l 749 0 m 628 344 l 315 344 l 442 704 q 472 803 457 749 q 503 704 479 772 l 628 344 "},"ă":{"ha":731,"x_min":74,"x_max":636,"o":"m 382 804 q 572 868 508 804 q 636 1031 636 932 l 528 1031 q 488 940 528 974 q 382 906 447 906 q 278 940 318 906 q 238 1031 238 974 l 129 1031 q 193 868 129 932 q 382 804 257 804 m 522 0 l 636 0 l 636 471 q 383 726 636 726 q 126 651 240 726 l 161 550 q 368 621 261 621 q 483 585 443 621 q 522 461 522 550 l 522 411 q 339 457 442 457 q 150 397 226 457 q 74 222 74 338 q 141 45 74 107 q 321 -17 208 -17 q 522 65 435 -17 l 522 0 m 339 90 q 227 126 267 90 q 188 222 188 163 q 235 319 188 286 q 356 353 282 353 q 522 306 446 353 l 522 183 q 339 90 443 90 "},"Ą":{"ha":943,"x_min":71,"x_max":885,"o":"m 742 -329 q 885 -269 831 -329 l 822 -224 q 756 -253 796 -253 q 704 -233 725 -253 q 683 -176 683 -214 q 735 -67 683 -118 q 872 0 788 -17 l 528 972 l 415 972 l 71 0 l 197 0 l 279 238 l 665 238 l 749 0 q 582 -189 582 -61 q 627 -292 582 -254 q 742 -329 672 -329 m 315 344 l 442 704 q 472 803 457 749 q 503 704 479 772 l 628 344 l 315 344 "},"ą":{"ha":731,"x_min":74,"x_max":669,"o":"m 526 -329 q 669 -269 615 -329 l 607 -224 q 540 -253 581 -253 q 489 -233 510 -253 q 468 -176 468 -214 q 510 -76 468 -126 q 636 0 553 -26 l 636 471 q 383 726 636 726 q 126 651 240 726 l 161 550 q 368 621 261 621 q 483 585 443 621 q 522 461 522 550 l 522 411 q 339 457 442 457 q 150 397 226 457 q 74 222 74 338 q 141 45 74 107 q 321 -17 208 -17 q 522 65 435 -17 l 522 0 q 367 -189 367 -67 q 412 -292 367 -254 q 526 -329 457 -329 m 339 90 q 227 126 267 90 q 188 222 188 163 q 235 319 188 286 q 356 353 282 353 q 522 306 446 353 l 522 183 q 339 90 443 90 "},"Ć":{"ha":899,"x_min":94,"x_max":819,"o":"m 364 1063 l 486 1063 l 733 1279 l 561 1279 l 364 1063 m 497 -17 q 699 37 618 -17 q 819 179 779 90 l 708 221 q 497 97 633 97 q 290 212 361 97 q 219 486 219 326 q 244 667 219 583 q 333 814 268 751 q 497 876 399 876 q 617 847 571 876 q 703 758 664 817 l 811 814 q 497 989 725 989 q 313 945 393 989 q 187 828 233 901 q 117 669 140 756 q 94 486 94 582 q 117 303 94 389 q 185 143 139 217 q 311 26 231 69 q 497 -17 392 -17 "},"ć":{"ha":694,"x_min":74,"x_max":628,"o":"m 215 800 l 338 800 l 585 1017 l 413 1017 l 215 800 m 368 -17 q 534 31 467 -17 q 628 165 601 78 l 515 203 q 371 97 482 97 q 242 165 286 97 q 197 354 197 232 q 242 546 197 478 q 375 614 286 614 q 508 519 472 614 l 622 561 q 374 726 563 726 q 153 628 233 726 q 74 354 74 529 q 153 81 74 179 q 368 -17 232 -17 "},"Ĉ":{"ha":899,"x_min":94,"x_max":819,"o":"m 642 1063 l 756 1063 l 553 1279 l 439 1279 l 235 1063 l 350 1063 l 496 1188 l 642 1063 m 497 -17 q 699 37 618 -17 q 819 179 779 90 l 708 221 q 497 97 633 97 q 290 212 361 97 q 219 486 219 326 q 244 667 219 583 q 333 814 268 751 q 497 876 399 876 q 617 847 571 876 q 703 758 664 817 l 811 814 q 497 989 725 989 q 313 945 393 989 q 187 828 233 901 q 117 669 140 756 q 94 486 94 582 q 117 303 94 389 q 185 143 139 217 q 311 26 231 69 q 497 -17 392 -17 "},"ĉ":{"ha":694,"x_min":74,"x_max":632,"o":"m 518 800 l 632 800 l 429 1017 l 315 1017 l 111 800 l 226 800 l 372 925 l 518 800 m 368 -17 q 534 31 467 -17 q 628 165 601 78 l 515 203 q 371 97 482 97 q 242 165 286 97 q 197 354 197 232 q 242 546 197 478 q 375 614 286 614 q 508 519 472 614 l 622 561 q 374 726 563 726 q 153 628 233 726 q 74 354 74 529 q 153 81 74 179 q 368 -17 232 -17 "},"Ċ":{"ha":899,"x_min":94,"x_max":819,"o":"m 550 1117 q 572 1171 572 1139 q 550 1225 572 1203 q 496 1247 528 1247 q 442 1225 464 1247 q 419 1171 419 1203 q 442 1117 419 1139 q 496 1094 464 1094 q 539 1106 528 1094 q 550 1117 550 1117 m 497 -17 q 699 37 618 -17 q 819 179 779 90 l 708 221 q 497 97 633 97 q 290 212 361 97 q 219 486 219 326 q 244 667 219 583 q 333 814 268 751 q 497 876 399 876 q 617 847 571 876 q 703 758 664 817 l 811 814 q 497 989 725 989 q 313 945 393 989 q 187 828 233 901 q 117 669 140 756 q 94 486 94 582 q 117 303 94 389 q 185 143 139 217 q 311 26 231 69 q 497 -17 392 -17 "},"ċ":{"ha":694,"x_min":74,"x_max":628,"o":"m 426 854 q 449 908 449 876 q 426 963 449 940 q 372 985 404 985 q 318 963 340 985 q 296 908 296 940 q 318 854 296 876 q 372 832 340 832 q 415 843 404 832 q 426 854 426 854 m 368 -17 q 534 31 467 -17 q 628 165 601 78 l 515 203 q 371 97 482 97 q 242 165 286 97 q 197 354 197 232 q 242 546 197 478 q 375 614 286 614 q 508 519 472 614 l 622 561 q 374 726 563 726 q 153 628 233 726 q 74 354 74 529 q 153 81 74 179 q 368 -17 232 -17 "},"Č":{"ha":899,"x_min":94,"x_max":819,"o":"m 553 1063 l 756 1279 l 642 1279 l 496 1154 l 350 1279 l 235 1279 l 438 1063 l 553 1063 m 497 -17 q 699 37 618 -17 q 819 179 779 90 l 708 221 q 497 97 633 97 q 290 212 361 97 q 219 486 219 326 q 244 667 219 583 q 333 814 268 751 q 497 876 399 876 q 617 847 571 876 q 703 758 664 817 l 811 814 q 497 989 725 989 q 313 945 393 989 q 187 828 233 901 q 117 669 140 756 q 94 486 94 582 q 117 303 94 389 q 185 143 139 217 q 311 26 231 69 q 497 -17 392 -17 "},"č":{"ha":694,"x_min":74,"x_max":632,"o":"m 429 800 l 632 1017 l 518 1017 l 372 892 l 226 1017 l 111 1017 l 314 800 l 429 800 m 368 -17 q 534 31 467 -17 q 628 165 601 78 l 515 203 q 371 97 482 97 q 242 165 286 97 q 197 354 197 232 q 242 546 197 478 q 375 614 286 614 q 508 519 472 614 l 622 561 q 374 726 563 726 q 153 628 233 726 q 74 354 74 529 q 153 81 74 179 q 368 -17 232 -17 "},"Ď":{"ha":947,"x_min":136,"x_max":853,"o":"m 479 1063 l 682 1279 l 568 1279 l 422 1154 l 276 1279 l 161 1279 l 364 1063 l 479 1063 m 136 972 l 136 0 l 396 0 q 615 44 522 0 q 758 160 708 88 q 830 315 807 233 q 853 486 853 396 q 828 664 853 581 q 753 818 804 747 q 611 931 701 889 q 401 972 521 972 l 136 972 m 411 113 l 257 113 l 257 861 l 426 861 q 599 806 528 861 q 699 668 669 750 q 728 486 728 586 q 712 353 728 415 q 661 234 696 290 q 562 145 626 178 q 411 113 497 113 "},"ď":{"ha":992,"x_min":74,"x_max":942,"o":"m 367 -17 q 546 56 476 -17 l 546 0 l 667 0 l 667 1003 l 546 946 l 546 660 q 367 726 471 726 q 153 628 233 726 q 74 356 74 529 q 153 83 74 183 q 367 -17 232 -17 m 942 989 l 824 989 q 812 815 824 903 q 782 688 800 726 l 818 661 q 942 978 942 783 l 942 989 m 383 96 q 247 169 297 96 q 196 356 196 243 q 244 548 196 481 q 383 615 293 615 q 546 525 489 615 l 546 192 q 383 96 489 96 "},"Đ":{"ha":947,"x_min":42,"x_max":853,"o":"m 136 431 l 136 0 l 396 0 q 615 44 522 0 q 758 160 708 88 q 830 315 807 233 q 853 486 853 396 q 828 664 853 581 q 753 818 804 747 q 611 931 701 889 q 401 972 521 972 l 136 972 l 136 540 l 42 540 l 42 431 l 136 431 m 411 113 l 257 113 l 257 431 l 469 431 l 469 540 l 257 540 l 257 861 l 426 861 q 599 806 528 861 q 699 668 669 750 q 728 486 728 586 q 712 353 728 415 q 661 234 696 290 q 562 145 626 178 q 411 113 497 113 "},"đ":{"ha":781,"x_min":74,"x_max":753,"o":"m 667 761 l 753 761 l 753 865 l 667 865 l 667 1003 l 546 946 l 546 865 l 358 865 l 358 761 l 546 761 l 546 614 q 367 681 471 681 q 153 588 233 681 q 74 335 74 494 q 153 80 74 176 q 367 -17 232 -17 q 546 56 474 -17 l 546 0 l 667 0 l 667 761 m 383 96 q 247 165 299 96 q 196 335 196 235 q 245 508 196 446 q 383 569 294 569 q 546 479 489 569 l 546 192 q 383 96 489 96 "},"Ē":{"ha":832,"x_min":136,"x_max":744,"o":"m 196 1100 l 654 1100 l 654 1203 l 196 1203 l 196 1100 m 136 0 l 744 0 l 744 115 l 257 115 l 257 446 l 558 446 l 558 560 l 257 560 l 257 858 l 714 858 l 714 972 l 136 972 l 136 0 "},"ē":{"ha":747,"x_min":74,"x_max":682,"o":"m 158 838 l 617 838 l 617 940 l 158 940 l 158 838 m 389 -17 q 618 75 526 -17 l 544 157 q 392 93 481 93 q 258 152 311 93 q 197 308 204 211 l 678 308 q 682 389 682 350 q 599 641 682 556 q 389 726 517 726 q 160 628 246 726 q 74 356 74 529 q 159 87 74 190 q 389 -17 244 -17 m 196 411 q 254 567 201 515 q 389 619 307 619 q 508 570 457 619 q 560 411 558 521 l 196 411 "},"Ĕ":{"ha":832,"x_min":136,"x_max":744,"o":"m 426 1067 q 617 1131 553 1067 q 681 1293 681 1194 l 572 1293 q 532 1202 572 1236 q 426 1168 492 1168 q 322 1202 363 1168 q 282 1293 282 1236 l 174 1293 q 238 1131 174 1194 q 426 1067 301 1067 m 136 0 l 744 0 l 744 115 l 257 115 l 257 446 l 558 446 l 558 560 l 257 560 l 257 858 l 714 858 l 714 972 l 136 972 l 136 0 "},"ĕ":{"ha":747,"x_min":74,"x_max":682,"o":"m 388 804 q 578 868 514 804 q 642 1031 642 932 l 533 1031 q 493 940 533 974 q 388 906 453 906 q 283 940 324 906 q 243 1031 243 974 l 135 1031 q 199 868 135 932 q 388 804 263 804 m 389 -17 q 618 75 526 -17 l 544 157 q 392 93 481 93 q 258 152 311 93 q 197 308 204 211 l 678 308 q 682 389 682 350 q 599 641 682 556 q 389 726 517 726 q 160 628 246 726 q 74 356 74 529 q 159 87 74 190 q 389 -17 244 -17 m 196 411 q 254 567 201 515 q 389 619 307 619 q 508 570 457 619 q 560 411 558 521 l 196 411 "},"Ė":{"ha":832,"x_min":136,"x_max":744,"o":"m 485 1117 q 507 1171 507 1139 q 485 1225 507 1203 q 431 1247 463 1247 q 376 1225 399 1247 q 354 1171 354 1203 q 376 1117 354 1139 q 431 1094 399 1094 q 474 1106 463 1094 q 485 1117 485 1117 m 136 0 l 744 0 l 744 115 l 257 115 l 257 446 l 558 446 l 558 560 l 257 560 l 257 858 l 714 858 l 714 972 l 136 972 l 136 0 "},"ė":{"ha":747,"x_min":74,"x_max":682,"o":"m 443 854 q 465 908 465 876 q 443 963 465 940 q 389 985 421 985 q 335 963 357 985 q 313 908 313 940 q 335 854 313 876 q 389 832 357 832 q 432 843 421 832 q 443 854 443 854 m 389 -17 q 618 75 526 -17 l 544 157 q 392 93 481 93 q 258 152 311 93 q 197 308 204 211 l 678 308 q 682 389 682 350 q 599 641 682 556 q 389 726 517 726 q 160 628 246 726 q 74 356 74 529 q 159 87 74 190 q 389 -17 244 -17 m 196 411 q 254 567 201 515 q 389 619 307 619 q 508 570 457 619 q 560 411 558 521 l 196 411 "},"Ę":{"ha":832,"x_min":136,"x_max":744,"o":"m 556 -329 q 699 -269 644 -329 l 636 -224 q 569 -253 610 -253 q 518 -233 539 -253 q 497 -176 497 -214 q 558 -58 497 -115 q 701 0 618 0 l 744 0 l 744 115 l 257 115 l 257 446 l 558 446 l 558 560 l 257 560 l 257 858 l 714 858 l 714 972 l 136 972 l 136 0 l 549 0 q 436 -78 476 -29 q 396 -189 396 -128 q 441 -292 396 -254 q 556 -329 486 -329 "},"ę":{"ha":747,"x_min":74,"x_max":682,"o":"m 410 -329 q 553 -269 499 -329 l 490 -224 q 424 -253 464 -253 q 372 -233 393 -253 q 351 -176 351 -214 q 363 -119 351 -144 q 403 -70 375 -93 q 450 -36 432 -47 q 508 -1 468 -25 q 618 75 594 50 l 544 157 q 392 93 481 93 q 258 152 311 93 q 197 308 204 211 l 678 308 q 682 389 682 350 q 599 641 682 556 q 389 726 517 726 q 160 628 246 726 q 74 356 74 529 q 153 93 74 196 q 369 -17 233 -10 q 250 -189 250 -81 q 295 -292 250 -254 q 410 -329 340 -329 m 389 619 q 508 570 457 619 q 560 411 558 521 l 196 411 q 254 567 201 515 q 389 619 307 619 "},"Ě":{"ha":832,"x_min":136,"x_max":744,"o":"m 489 1063 l 692 1279 l 578 1279 l 432 1154 l 286 1279 l 171 1279 l 374 1063 l 489 1063 m 136 0 l 744 0 l 744 115 l 257 115 l 257 446 l 558 446 l 558 560 l 257 560 l 257 858 l 714 858 l 714 972 l 136 972 l 136 0 "},"ě":{"ha":747,"x_min":74,"x_max":682,"o":"m 446 800 l 649 1017 l 535 1017 l 389 892 l 243 1017 l 128 1017 l 331 800 l 446 800 m 389 -17 q 618 75 526 -17 l 544 157 q 392 93 481 93 q 258 152 311 93 q 197 308 204 211 l 678 308 q 682 389 682 350 q 599 641 682 556 q 389 726 517 726 q 160 628 246 726 q 74 356 74 529 q 159 87 74 190 q 389 -17 244 -17 m 196 411 q 254 567 201 515 q 389 619 307 619 q 508 570 457 619 q 560 411 558 521 l 196 411 "},"Ĝ":{"ha":956,"x_min":94,"x_max":851,"o":"m 653 1063 l 767 1063 l 564 1279 l 450 1279 l 246 1063 l 361 1063 l 507 1188 l 653 1063 m 507 -17 q 755 81 658 -17 q 851 356 851 179 l 851 472 l 549 472 l 549 361 l 725 361 l 725 322 q 665 160 725 222 q 507 99 606 99 q 292 210 364 99 q 219 486 219 322 q 228 595 219 542 q 259 700 238 649 q 313 790 281 751 q 394 851 344 828 q 507 875 444 875 q 628 844 581 875 q 714 756 675 813 l 822 818 q 702 943 774 897 q 507 989 631 989 q 323 946 404 989 q 193 831 242 903 q 119 672 144 760 q 94 486 94 583 q 118 300 94 388 q 190 140 142 213 q 319 26 238 68 q 507 -17 400 -17 "},"ĝ":{"ha":782,"x_min":74,"x_max":668,"o":"m 547 800 l 661 800 l 458 1017 l 344 1017 l 140 800 l 256 800 l 401 925 l 547 800 m 333 -287 q 581 -206 494 -278 q 668 29 668 -133 l 668 710 l 547 710 l 547 651 q 368 726 479 726 q 155 627 236 726 q 74 356 74 528 q 156 81 74 178 q 364 -17 239 -17 q 547 69 485 -17 l 547 -17 q 488 -140 547 -94 q 275 -193 429 -185 l 333 -287 m 389 96 q 249 165 303 96 q 196 356 196 235 q 245 548 196 481 q 389 615 294 615 q 476 589 431 615 q 547 521 522 563 l 547 196 q 477 123 521 150 q 389 96 433 96 "},"Ğ":{"ha":956,"x_min":94,"x_max":851,"o":"m 506 1067 q 696 1131 632 1067 q 760 1293 760 1194 l 651 1293 q 611 1202 651 1236 q 506 1168 571 1168 q 401 1202 442 1168 q 361 1293 361 1236 l 253 1293 q 317 1131 253 1194 q 506 1067 381 1067 m 507 -17 q 755 81 658 -17 q 851 356 851 179 l 851 472 l 549 472 l 549 361 l 725 361 l 725 322 q 665 160 725 222 q 507 99 606 99 q 292 210 364 99 q 219 486 219 322 q 228 595 219 542 q 259 700 238 649 q 313 790 281 751 q 394 851 344 828 q 507 875 444 875 q 628 844 581 875 q 714 756 675 813 l 822 818 q 702 943 774 897 q 507 989 631 989 q 323 946 404 989 q 193 831 242 903 q 119 672 144 760 q 94 486 94 583 q 118 300 94 388 q 190 140 142 213 q 319 26 238 68 q 507 -17 400 -17 "},"ğ":{"ha":782,"x_min":74,"x_max":668,"o":"m 401 804 q 592 868 528 804 q 656 1031 656 932 l 547 1031 q 507 940 547 974 q 401 906 467 906 q 297 940 338 906 q 257 1031 257 974 l 149 1031 q 213 868 149 932 q 401 804 276 804 m 333 -287 q 581 -206 494 -278 q 668 29 668 -133 l 668 710 l 547 710 l 547 651 q 368 726 479 726 q 155 627 236 726 q 74 356 74 528 q 156 81 74 178 q 364 -17 239 -17 q 547 69 485 -17 l 547 -17 q 488 -140 547 -94 q 275 -193 429 -185 l 333 -287 m 389 96 q 249 165 303 96 q 196 356 196 235 q 245 548 196 481 q 389 615 294 615 q 476 589 431 615 q 547 521 522 563 l 547 196 q 477 123 521 150 q 389 96 433 96 "},"Ġ":{"ha":956,"x_min":94,"x_max":851,"o":"m 553 1117 q 575 1171 575 1139 q 553 1225 575 1203 q 499 1247 531 1247 q 444 1225 467 1247 q 422 1171 422 1203 q 444 1117 422 1139 q 499 1094 467 1094 q 542 1106 531 1094 q 553 1117 553 1117 m 507 -17 q 755 81 658 -17 q 851 356 851 179 l 851 472 l 549 472 l 549 361 l 725 361 l 725 322 q 665 160 725 222 q 507 99 606 99 q 292 210 364 99 q 219 486 219 322 q 228 595 219 542 q 259 700 238 649 q 313 790 281 751 q 394 851 344 828 q 507 875 444 875 q 628 844 581 875 q 714 756 675 813 l 822 818 q 702 943 774 897 q 507 989 631 989 q 323 946 404 989 q 193 831 242 903 q 119 672 144 760 q 94 486 94 583 q 118 300 94 388 q 190 140 142 213 q 319 26 238 68 q 507 -17 400 -17 "},"ġ":{"ha":782,"x_min":74,"x_max":668,"o":"m 456 854 q 478 908 478 876 q 456 963 478 940 q 401 985 433 985 q 347 963 369 985 q 325 908 325 940 q 347 854 325 876 q 401 832 369 832 q 444 843 433 832 q 456 854 456 854 m 333 -287 q 581 -206 494 -278 q 668 29 668 -133 l 668 710 l 547 710 l 547 651 q 368 726 479 726 q 155 627 236 726 q 74 356 74 528 q 156 81 74 178 q 364 -17 239 -17 q 547 69 485 -17 l 547 -17 q 488 -140 547 -94 q 275 -193 429 -185 l 333 -287 m 389 96 q 249 165 303 96 q 196 356 196 235 q 245 548 196 481 q 389 615 294 615 q 476 589 431 615 q 547 521 522 563 l 547 196 q 477 123 521 150 q 389 96 433 96 "},"Ģ":{"ha":956,"x_min":94,"x_max":851,"o":"m 507 -17 q 755 81 658 -17 q 851 356 851 179 l 851 472 l 549 472 l 549 361 l 725 361 l 725 322 q 665 160 725 222 q 507 99 606 99 q 292 210 364 99 q 219 486 219 322 q 228 595 219 542 q 259 700 238 649 q 313 790 281 751 q 394 851 344 828 q 507 875 444 875 q 628 844 581 875 q 714 756 675 813 l 822 818 q 702 943 774 897 q 507 989 631 989 q 323 946 404 989 q 193 831 242 903 q 119 672 144 760 q 94 486 94 583 q 118 300 94 388 q 190 140 142 213 q 319 26 238 68 q 507 -17 400 -17 m 443 -335 l 479 -353 q 588 -162 588 -278 q 563 -97 588 -121 q 503 -72 538 -72 q 447 -95 471 -72 q 422 -154 422 -118 q 445 -212 422 -189 q 506 -235 468 -235 q 443 -335 492 -293 "},"ģ":{"ha":782,"x_min":74,"x_max":668,"o":"m 401 829 q 458 853 433 829 q 482 913 482 876 q 459 969 482 946 q 399 992 436 992 q 461 1092 413 1054 l 425 1111 q 317 921 317 1036 q 342 854 317 879 q 401 829 367 829 m 333 -287 q 581 -206 494 -278 q 668 29 668 -133 l 668 710 l 547 710 l 547 651 q 368 726 479 726 q 155 627 236 726 q 74 356 74 528 q 156 81 74 178 q 364 -17 239 -17 q 547 69 485 -17 l 547 -17 q 488 -140 547 -94 q 275 -193 429 -185 l 333 -287 m 389 96 q 249 165 303 96 q 196 356 196 235 q 245 548 196 481 q 389 615 294 615 q 476 589 431 615 q 547 521 522 563 l 547 196 q 477 123 521 150 q 389 96 433 96 "},"Ĥ":{"ha":972,"x_min":136,"x_max":836,"o":"m 632 1063 l 746 1063 l 543 1279 l 429 1279 l 225 1063 l 340 1063 l 486 1188 l 632 1063 m 715 0 l 836 0 l 836 972 l 715 972 l 715 561 l 257 561 l 257 972 l 136 972 l 136 0 l 257 0 l 257 447 l 715 447 l 715 0 "},"ĥ":{"ha":782,"x_min":115,"x_max":674,"o":"m 546 1063 l 660 1063 l 457 1279 l 343 1279 l 139 1063 l 254 1063 l 400 1188 l 546 1063 m 115 0 l 236 0 l 236 432 q 400 615 236 615 q 512 570 471 615 q 553 429 553 525 l 553 0 l 674 0 l 674 408 q 609 651 674 575 q 419 726 544 726 q 236 636 301 726 l 236 1003 l 115 947 l 115 0 "},"Ħ":{"ha":972,"x_min":11,"x_max":961,"o":"m 715 0 l 836 0 l 836 726 l 961 726 l 961 840 l 836 840 l 836 972 l 715 972 l 715 840 l 257 840 l 257 972 l 136 972 l 136 840 l 11 840 l 11 726 l 136 726 l 136 0 l 257 0 l 257 447 l 715 447 l 715 0 m 715 561 l 257 561 l 257 726 l 715 726 l 715 561 "},"ħ":{"ha":782,"x_min":28,"x_max":674,"o":"m 115 0 l 236 0 l 236 388 q 400 571 236 571 q 512 526 471 571 q 553 385 553 481 l 553 0 l 674 0 l 674 364 q 609 606 674 531 q 419 682 544 682 q 236 592 301 682 l 236 761 l 443 761 l 443 865 l 236 865 l 236 1003 l 115 947 l 115 865 l 28 865 l 28 761 l 115 761 l 115 0 "},"Ĩ":{"ha":399,"x_min":-49,"x_max":446,"o":"m 308 1089 q 446 1256 446 1089 l 383 1256 q 363 1208 382 1225 q 318 1192 344 1192 q 215 1226 288 1192 q 89 1261 142 1261 q -49 1094 -49 1261 l 14 1094 q 33 1141 15 1125 q 79 1157 51 1157 q 183 1123 110 1157 q 308 1089 256 1089 m 139 0 l 260 0 l 260 972 l 139 972 l 139 0 "},"ĩ":{"ha":353,"x_min":-72,"x_max":422,"o":"m 285 826 q 422 993 422 826 l 360 993 q 340 946 358 963 q 294 929 321 929 q 191 964 264 929 q 65 999 118 999 q -72 832 -72 999 l -10 832 q 10 878 -8 863 q 56 894 28 894 q 159 860 86 894 q 285 826 232 826 m 117 0 l 238 0 l 238 710 l 117 710 l 117 0 "},"Ī":{"ha":399,"x_min":-31,"x_max":428,"o":"m -31 1100 l 428 1100 l 428 1203 l -31 1203 l -31 1100 m 139 0 l 260 0 l 260 972 l 139 972 l 139 0 "},"ī":{"ha":353,"x_min":-54,"x_max":404,"o":"m -54 838 l 404 838 l 404 940 l -54 940 l -54 838 m 117 0 l 238 0 l 238 710 l 117 710 l 117 0 "},"Ĭ":{"ha":399,"x_min":-54,"x_max":453,"o":"m 199 1067 q 389 1131 325 1067 q 453 1293 453 1194 l 344 1293 q 304 1202 344 1236 q 199 1168 264 1168 q 94 1202 135 1168 q 54 1293 54 1236 l -54 1293 q 10 1131 -54 1194 q 199 1067 74 1067 m 139 0 l 260 0 l 260 972 l 139 972 l 139 0 "},"ĭ":{"ha":353,"x_min":-78,"x_max":429,"o":"m 175 804 q 365 868 301 804 q 429 1031 429 932 l 321 1031 q 281 940 321 974 q 175 906 240 906 q 71 940 111 906 q 31 1031 31 974 l -78 1031 q -14 868 -78 932 q 175 804 50 804 m 117 0 l 238 0 l 238 710 l 117 710 l 117 0 "},"Į":{"ha":399,"x_min":-18,"x_max":286,"o":"m 142 -329 q 286 -269 232 -329 l 224 -224 q 157 -253 194 -253 q 106 -233 126 -253 q 85 -176 85 -214 q 129 -75 85 -124 q 260 0 174 -26 l 260 972 l 139 972 l 139 0 q -18 -189 -18 -64 q 27 -292 -18 -254 q 142 -329 72 -329 "},"į":{"ha":353,"x_min":-39,"x_max":265,"o":"m 231 860 q 253 914 253 882 q 231 969 253 946 q 176 992 208 992 q 124 969 146 992 q 101 914 101 946 q 123 861 101 883 q 176 839 144 839 q 219 850 208 839 q 231 860 231 860 m 121 -329 q 265 -269 211 -329 l 203 -224 q 136 -253 174 -253 q 85 -233 106 -253 q 64 -176 64 -214 q 108 -75 64 -124 q 238 0 153 -26 l 238 710 l 117 710 l 117 0 q 3 -78 44 -29 q -39 -189 -39 -126 q 6 -292 -39 -254 q 121 -329 51 -329 "},"İ":{"ha":399,"x_min":124,"x_max":276,"o":"m 254 1117 q 276 1171 276 1139 q 254 1225 276 1203 q 200 1247 232 1247 q 146 1225 168 1247 q 124 1171 124 1203 q 146 1117 124 1139 q 200 1094 168 1094 q 243 1106 232 1094 q 254 1117 254 1117 m 139 0 l 260 0 l 260 972 l 139 972 l 139 0 "},"ı":{"ha":353,"x_min":117,"x_max":238,"o":"m 117 0 l 238 0 l 238 710 l 117 710 l 117 0 "},"Ĳ":{"ha":1157,"x_min":139,"x_max":1025,"o":"m 139 0 l 260 0 l 260 972 l 139 972 l 139 0 m 718 -17 q 824 -1 774 -17 q 922 51 875 15 q 997 155 969 86 q 1025 319 1025 224 l 1025 972 l 904 972 l 904 315 q 719 97 904 97 q 607 124 647 97 q 538 210 567 150 l 438 158 q 718 -17 513 -17 "},"ĳ":{"ha":726,"x_min":101,"x_max":626,"o":"m 231 860 q 253 914 253 882 q 231 969 253 946 q 176 992 208 992 q 124 969 146 992 q 101 914 101 946 q 123 861 101 883 q 176 839 144 839 q 219 850 208 839 q 231 860 231 860 m 605 860 q 626 914 626 882 q 605 969 626 946 q 551 992 583 992 q 497 969 519 992 q 475 914 475 946 q 497 860 475 882 q 551 839 519 839 q 594 850 583 839 q 605 860 605 860 m 117 0 l 238 0 l 238 710 l 117 710 l 117 0 m 365 -297 q 558 -197 492 -279 q 611 -6 611 -135 l 611 710 l 490 710 l 490 -50 q 451 -153 490 -117 q 308 -206 411 -189 l 365 -297 "},"Ĵ":{"ha":758,"x_min":39,"x_max":826,"o":"m 713 1063 l 826 1063 l 624 1279 l 510 1279 l 306 1063 l 421 1063 l 567 1188 l 713 1063 m 319 -17 q 426 -1 375 -17 q 524 51 476 15 q 599 155 571 86 q 626 319 626 224 l 626 972 l 506 972 l 506 315 q 321 97 506 97 q 208 124 249 97 q 139 210 168 150 l 39 158 q 319 -17 114 -17 "},"ĵ":{"ha":353,"x_min":-82,"x_max":439,"o":"m 325 800 l 439 800 l 236 1017 l 122 1017 l -82 800 l 33 800 l 179 925 l 325 800 m -8 -297 q 185 -197 118 -279 q 238 -6 238 -135 l 238 710 l 117 710 l 117 -50 q 77 -153 117 -117 q -65 -206 38 -189 l -8 -297 "},"Ķ":{"ha":917,"x_min":136,"x_max":851,"o":"m 711 0 l 851 0 l 504 636 l 772 972 l 636 972 l 257 496 l 257 972 l 136 972 l 136 0 l 257 0 l 257 332 l 422 535 l 711 0 m 400 -335 l 436 -353 q 544 -162 544 -278 q 519 -97 544 -121 q 460 -72 494 -72 q 403 -95 428 -72 q 379 -154 379 -118 q 402 -212 379 -189 q 463 -235 425 -235 q 400 -335 449 -293 "},"ķ":{"ha":738,"x_min":115,"x_max":692,"o":"m 692 0 l 425 517 l 611 710 l 467 710 l 236 465 l 236 1003 l 115 946 l 115 0 l 236 0 l 236 321 l 340 429 l 560 0 l 692 0 m 310 -335 l 346 -353 q 454 -162 454 -278 q 429 -97 454 -121 q 369 -72 404 -72 q 313 -95 338 -72 q 289 -154 289 -118 q 312 -212 289 -189 q 372 -235 335 -235 q 310 -335 358 -293 "},"ĸ":{"ha":742,"x_min":115,"x_max":700,"o":"m 564 0 l 700 0 l 457 447 l 668 710 l 532 710 l 236 335 l 236 710 l 115 710 l 115 0 l 236 0 l 236 174 l 376 349 l 564 0 "},"Ĺ":{"ha":776,"x_min":68,"x_max":735,"o":"m 68 1063 l 190 1063 l 438 1279 l 265 1279 l 68 1063 m 136 0 l 735 0 l 735 117 l 257 117 l 257 972 l 136 972 l 136 0 "},"ĺ":{"ha":364,"x_min":25,"x_max":394,"o":"m 25 1050 l 147 1050 l 394 1267 l 222 1267 l 25 1050 m 122 0 l 243 0 l 243 1003 l 122 946 l 122 0 "},"Ļ":{"ha":776,"x_min":136,"x_max":735,"o":"m 136 0 l 735 0 l 735 117 l 257 117 l 257 972 l 136 972 l 136 0 m 378 -335 l 414 -353 q 522 -162 522 -278 q 497 -97 522 -121 q 438 -72 472 -72 q 381 -95 406 -72 q 357 -154 357 -118 q 380 -212 357 -189 q 440 -235 403 -235 q 378 -335 426 -293 "},"ļ":{"ha":364,"x_min":101,"x_max":267,"o":"m 122 0 l 243 0 l 243 1003 l 122 946 l 122 0 m 122 -335 l 158 -353 q 267 -162 267 -278 q 242 -97 267 -121 q 182 -72 217 -72 q 126 -95 150 -72 q 101 -154 101 -118 q 124 -212 101 -189 q 185 -235 147 -235 q 122 -335 171 -293 "},"Ľ":{"ha":776,"x_min":-64,"x_max":735,"o":"m 254 1063 l 457 1279 l 343 1279 l 197 1154 l 51 1279 l -64 1279 l 139 1063 l 254 1063 m 136 0 l 735 0 l 735 117 l 257 117 l 257 972 l 136 972 l 136 0 "},"ľ":{"ha":568,"x_min":122,"x_max":532,"o":"m 122 0 l 243 0 l 243 1003 l 122 946 l 122 0 m 532 989 l 414 989 q 402 815 414 903 q 372 688 390 726 l 408 661 q 532 978 532 783 l 532 989 "},"Ŀ":{"ha":776,"x_min":136,"x_max":735,"o":"m 136 0 l 735 0 l 735 117 l 257 117 l 257 972 l 136 972 l 136 0 m 653 419 q 682 485 682 447 q 653 551 682 522 q 585 581 625 581 q 517 552 544 581 q 489 485 489 524 q 517 419 489 447 q 585 390 544 390 q 639 405 625 390 q 653 419 653 419 "},"ŀ":{"ha":514,"x_min":122,"x_max":517,"o":"m 122 0 l 243 0 l 243 1003 l 122 946 l 122 0 m 488 372 q 517 438 517 400 q 488 504 517 475 q 419 533 460 533 q 351 505 379 533 q 324 438 324 476 q 351 372 324 400 q 419 343 379 343 q 474 357 460 343 q 488 372 488 372 "},"Ł":{"ha":776,"x_min":35,"x_max":735,"o":"m 136 0 l 735 0 l 735 117 l 257 117 l 257 450 l 422 578 l 422 711 l 257 585 l 257 972 l 136 972 l 136 488 l 35 413 l 35 279 l 136 354 l 136 0 "},"ł":{"ha":365,"x_min":35,"x_max":331,"o":"m 122 0 l 243 0 l 243 449 l 331 515 l 331 624 l 243 557 l 243 1003 l 122 946 l 122 467 l 35 399 l 35 290 l 122 358 l 122 0 "},"Ń":{"ha":983,"x_min":136,"x_max":847,"o":"m 363 1064 l 485 1064 l 732 1281 l 560 1281 l 363 1064 m 847 0 l 847 972 l 726 972 l 726 279 q 729 208 726 258 q 689 281 711 244 l 258 972 l 136 972 l 136 0 l 257 0 l 257 694 q 254 763 257 721 q 293 694 268 735 l 731 0 l 847 0 "},"ń":{"ha":782,"x_min":115,"x_max":674,"o":"m 243 800 l 365 800 l 613 1017 l 440 1017 l 243 800 m 553 0 l 674 0 l 674 408 q 609 651 674 575 q 419 726 544 726 q 236 638 301 726 l 236 710 l 115 710 l 115 0 l 236 0 l 236 432 q 400 615 236 615 q 512 570 471 615 q 553 429 553 525 l 553 0 "},"Ņ":{"ha":983,"x_min":136,"x_max":847,"o":"m 847 0 l 847 972 l 726 972 l 726 279 q 729 208 726 258 q 689 281 711 244 l 258 972 l 136 972 l 136 0 l 257 0 l 257 694 q 254 763 257 721 q 293 694 268 735 l 731 0 l 847 0 m 432 -335 l 468 -353 q 576 -162 576 -278 q 551 -97 576 -121 q 492 -72 526 -72 q 435 -95 460 -72 q 411 -154 411 -118 q 434 -212 411 -189 q 494 -235 457 -235 q 432 -335 481 -293 "},"ņ":{"ha":782,"x_min":115,"x_max":674,"o":"m 553 0 l 674 0 l 674 408 q 609 651 674 575 q 419 726 544 726 q 236 638 301 726 l 236 710 l 115 710 l 115 0 l 236 0 l 236 432 q 400 615 236 615 q 512 570 471 615 q 553 429 553 525 l 553 0 m 332 -335 l 368 -353 q 476 -162 476 -278 q 451 -97 476 -121 q 392 -72 426 -72 q 335 -95 360 -72 q 311 -154 311 -118 q 334 -212 311 -189 q 394 -235 357 -235 q 332 -335 381 -293 "},"Ň":{"ha":983,"x_min":136,"x_max":847,"o":"m 556 1063 l 758 1279 l 644 1279 l 499 1154 l 353 1279 l 238 1279 l 440 1063 l 556 1063 m 847 0 l 847 972 l 726 972 l 726 279 q 729 208 726 258 q 689 281 711 244 l 258 972 l 136 972 l 136 0 l 257 0 l 257 694 q 254 763 257 721 q 293 694 268 735 l 731 0 l 847 0 "},"ň":{"ha":782,"x_min":115,"x_max":674,"o":"m 457 800 l 660 1017 l 546 1017 l 400 892 l 254 1017 l 139 1017 l 342 800 l 457 800 m 553 0 l 674 0 l 674 408 q 609 651 674 575 q 419 726 544 726 q 236 638 301 726 l 236 710 l 115 710 l 115 0 l 236 0 l 236 432 q 400 615 236 615 q 512 570 471 615 q 553 429 553 525 l 553 0 "},"ŉ":{"ha":1049,"x_min":60,"x_max":940,"o":"m 79 646 l 119 625 q 219 727 181 663 q 258 868 258 792 q 228 958 258 926 q 153 989 197 989 q 87 962 114 989 q 60 890 60 935 q 88 826 60 851 q 157 799 115 801 q 129 710 154 751 q 79 646 104 668 m 819 0 l 940 0 l 940 408 q 876 651 940 575 q 686 726 811 726 q 503 638 568 726 l 503 710 l 382 710 l 382 0 l 503 0 l 503 432 q 667 615 503 615 q 778 570 738 615 q 819 429 819 525 l 819 0 "},"Ŋ":{"ha":983,"x_min":136,"x_max":847,"o":"m 597 -339 q 772 -257 708 -319 q 847 -36 847 -183 l 847 972 l 726 972 l 726 279 q 729 208 726 258 q 689 281 711 244 l 258 972 l 136 972 l 136 0 l 257 0 l 257 694 q 254 763 257 721 q 293 696 275 722 l 722 13 l 722 -71 q 681 -187 722 -143 q 540 -247 640 -232 l 597 -339 "},"ŋ":{"ha":782,"x_min":115,"x_max":674,"o":"m 429 -318 q 619 -221 553 -300 q 674 -26 674 -158 l 674 408 q 609 651 674 575 q 419 726 544 726 q 236 638 301 726 l 236 710 l 115 710 l 115 0 l 236 0 l 236 432 q 400 615 236 615 q 512 570 471 615 q 553 429 553 525 l 553 -71 q 513 -174 553 -137 q 372 -226 474 -210 l 429 -318 "},"Ō":{"ha":1014,"x_min":94,"x_max":921,"o":"m 276 1100 l 735 1100 l 735 1203 l 276 1203 l 276 1100 m 507 -17 q 667 13 596 -17 q 785 90 739 42 q 863 206 832 139 q 908 342 894 272 q 921 486 921 411 q 908 631 921 561 q 863 767 894 700 q 785 882 832 833 q 667 960 739 931 q 507 989 596 989 q 315 945 397 989 q 185 827 232 901 q 117 667 139 753 q 94 486 94 582 q 117 305 94 390 q 185 145 139 219 q 315 27 232 71 q 507 -17 397 -17 m 373 131 q 283 221 315 164 q 235 344 250 278 q 219 486 219 411 q 235 622 219 557 q 283 747 251 688 q 373 841 315 806 q 507 876 431 876 q 676 817 608 876 q 769 673 743 757 q 794 486 794 589 q 779 351 794 417 q 732 226 764 285 q 642 133 700 168 q 507 97 583 97 q 402 114 431 97 q 373 131 373 131 "},"ō":{"ha":775,"x_min":74,"x_max":701,"o":"m 157 838 l 615 838 l 615 940 l 157 940 l 157 838 m 617 83 q 701 356 701 182 q 617 628 701 529 q 388 726 532 726 q 158 627 243 726 q 74 354 74 528 q 158 82 74 181 q 388 -17 243 -17 q 574 33 532 -17 q 617 83 617 83 m 247 165 q 196 354 196 233 q 247 547 196 478 q 388 615 297 615 q 528 546 478 615 q 579 356 579 476 q 528 165 579 233 q 388 96 478 96 q 272 130 297 96 q 247 165 247 165 "},"Ŏ":{"ha":1014,"x_min":94,"x_max":921,"o":"m 506 1067 q 696 1131 632 1067 q 760 1293 760 1194 l 651 1293 q 611 1202 651 1236 q 506 1168 571 1168 q 401 1202 442 1168 q 361 1293 361 1236 l 253 1293 q 317 1131 253 1194 q 506 1067 381 1067 m 507 -17 q 667 13 596 -17 q 785 90 739 42 q 863 206 832 139 q 908 342 894 272 q 921 486 921 411 q 908 631 921 561 q 863 767 894 700 q 785 882 832 833 q 667 960 739 931 q 507 989 596 989 q 315 945 397 989 q 185 827 232 901 q 117 667 139 753 q 94 486 94 582 q 117 305 94 390 q 185 145 139 219 q 315 27 232 71 q 507 -17 397 -17 m 373 131 q 283 221 315 164 q 235 344 250 278 q 219 486 219 411 q 235 622 219 557 q 283 747 251 688 q 373 841 315 806 q 507 876 431 876 q 676 817 608 876 q 769 673 743 757 q 794 486 794 589 q 779 351 794 417 q 732 226 764 285 q 642 133 700 168 q 507 97 583 97 q 402 114 431 97 q 373 131 373 131 "},"ŏ":{"ha":775,"x_min":74,"x_max":701,"o":"m 386 804 q 576 868 513 804 q 640 1031 640 932 l 532 1031 q 492 940 532 974 q 386 906 451 906 q 282 940 322 906 q 242 1031 242 974 l 133 1031 q 197 868 133 932 q 386 804 261 804 m 617 83 q 701 356 701 182 q 617 628 701 529 q 388 726 532 726 q 158 627 243 726 q 74 354 74 528 q 158 82 74 181 q 388 -17 243 -17 q 574 33 532 -17 q 617 83 617 83 m 247 165 q 196 354 196 233 q 247 547 196 478 q 388 615 297 615 q 528 546 478 615 q 579 356 579 476 q 528 165 579 233 q 388 96 478 96 q 272 130 297 96 q 247 165 247 165 "},"Ő":{"ha":1014,"x_min":94,"x_max":921,"o":"m 379 1063 l 626 1279 l 454 1279 l 257 1063 l 379 1063 m 663 1063 l 910 1279 l 738 1279 l 540 1063 l 663 1063 m 507 -17 q 667 13 596 -17 q 785 90 739 42 q 863 206 832 139 q 908 342 894 272 q 921 486 921 411 q 908 631 921 561 q 863 767 894 700 q 785 882 832 833 q 667 960 739 931 q 507 989 596 989 q 315 945 397 989 q 185 827 232 901 q 117 667 139 753 q 94 486 94 582 q 117 305 94 390 q 185 145 139 219 q 315 27 232 71 q 507 -17 397 -17 m 373 131 q 283 221 315 164 q 235 344 250 278 q 219 486 219 411 q 235 622 219 557 q 283 747 251 688 q 373 841 315 806 q 507 876 431 876 q 676 817 608 876 q 769 673 743 757 q 794 486 794 589 q 779 351 794 417 q 732 226 764 285 q 642 133 700 168 q 507 97 583 97 q 402 114 431 97 q 373 131 373 131 "},"ő":{"ha":775,"x_min":74,"x_max":789,"o":"m 258 800 l 506 1017 l 333 1017 l 136 800 l 258 800 m 542 800 l 789 1017 l 617 1017 l 419 800 l 542 800 m 617 83 q 701 356 701 182 q 617 628 701 529 q 388 726 532 726 q 158 627 243 726 q 74 354 74 528 q 158 82 74 181 q 388 -17 243 -17 q 574 33 532 -17 q 617 83 617 83 m 247 165 q 196 354 196 233 q 247 547 196 478 q 388 615 297 615 q 528 546 478 615 q 579 356 579 476 q 528 165 579 233 q 388 96 478 96 q 272 130 297 96 q 247 165 247 165 "},"Œ":{"ha":1253,"x_min":94,"x_max":1194,"o":"m 660 0 l 1194 0 l 1194 115 l 781 115 l 781 446 l 1008 446 l 1008 560 l 781 560 l 781 858 l 1164 858 l 1164 972 l 660 972 l 660 961 q 507 989 593 989 q 346 959 418 989 q 228 880 274 929 q 151 764 182 831 q 107 628 119 697 q 94 486 94 560 q 117 305 94 390 q 185 145 139 219 q 315 27 232 71 q 507 -17 397 -17 q 660 11 593 -17 l 660 0 m 507 97 q 373 131 431 97 q 283 220 315 164 q 235 343 250 276 q 219 486 219 410 q 228 594 219 542 q 259 699 238 647 q 313 790 281 751 q 396 852 346 828 q 507 876 446 876 q 660 831 596 876 l 660 143 q 507 97 592 97 "},"œ":{"ha":1251,"x_min":74,"x_max":1186,"o":"m 388 -17 q 642 119 557 -17 q 892 -17 731 -17 q 1122 75 1031 -17 l 1049 157 q 894 93 985 93 q 762 152 815 93 q 701 308 708 211 l 1182 308 q 1186 389 1186 350 q 1103 641 1186 556 q 892 726 1021 726 q 640 594 724 726 q 388 726 553 726 q 158 627 243 726 q 74 354 74 528 q 158 81 74 179 q 388 -17 243 -17 m 700 411 q 758 567 706 515 q 892 619 811 619 q 1011 570 960 619 q 1064 411 1063 521 l 700 411 m 247 165 q 196 354 196 233 q 247 547 196 478 q 388 615 297 615 q 528 546 478 615 q 579 356 579 476 q 528 165 579 233 q 388 96 478 96 q 272 130 297 96 q 247 165 247 165 "},"Ŕ":{"ha":924,"x_min":136,"x_max":826,"o":"m 293 1063 l 415 1063 l 663 1279 l 490 1279 l 293 1063 m 136 0 l 257 0 l 257 417 l 472 417 l 672 0 l 808 0 l 600 425 q 770 524 714 449 q 826 696 826 600 q 753 893 826 814 q 519 972 681 972 l 136 972 l 136 0 m 257 529 l 257 860 l 522 860 q 662 810 619 860 q 704 693 704 760 q 660 576 704 624 q 522 529 617 529 l 257 529 "},"ŕ":{"ha":540,"x_min":115,"x_max":539,"o":"m 169 800 l 292 800 l 539 1017 l 367 1017 l 169 800 m 115 0 l 236 0 l 236 400 q 284 558 236 510 q 394 607 332 607 q 496 576 451 607 l 514 690 q 404 726 471 726 q 236 617 286 726 l 236 710 l 115 710 l 115 0 "},"Ŗ":{"ha":924,"x_min":136,"x_max":826,"o":"m 136 0 l 257 0 l 257 417 l 472 417 l 672 0 l 808 0 l 600 425 q 770 524 714 449 q 826 696 826 600 q 753 893 826 814 q 519 972 681 972 l 136 972 l 136 0 m 257 529 l 257 860 l 522 860 q 662 810 619 860 q 704 693 704 760 q 660 576 704 624 q 522 529 617 529 l 257 529 m 404 -335 l 440 -353 q 549 -162 549 -278 q 524 -97 549 -121 q 464 -72 499 -72 q 408 -95 432 -72 q 383 -154 383 -118 q 406 -212 383 -189 q 467 -235 429 -235 q 404 -335 453 -293 "},"ŗ":{"ha":540,"x_min":96,"x_max":514,"o":"m 115 0 l 236 0 l 236 400 q 284 558 236 510 q 394 607 332 607 q 496 576 451 607 l 514 690 q 404 726 471 726 q 236 617 286 726 l 236 710 l 115 710 l 115 0 m 117 -362 l 153 -381 q 261 -190 261 -306 q 236 -124 261 -149 q 176 -100 211 -100 q 120 -123 144 -100 q 96 -182 96 -146 q 119 -240 96 -217 q 179 -262 142 -262 q 117 -362 165 -321 "},"Ř":{"ha":924,"x_min":136,"x_max":826,"o":"m 507 1063 l 710 1279 l 596 1279 l 450 1154 l 304 1279 l 189 1279 l 392 1063 l 507 1063 m 136 0 l 257 0 l 257 417 l 472 417 l 672 0 l 808 0 l 600 425 q 770 524 714 449 q 826 696 826 600 q 753 893 826 814 q 519 972 681 972 l 136 972 l 136 0 m 257 529 l 257 860 l 522 860 q 662 810 619 860 q 704 693 704 760 q 660 576 704 624 q 522 529 617 529 l 257 529 "},"ř":{"ha":540,"x_min":65,"x_max":586,"o":"m 383 800 l 586 1017 l 472 1017 l 326 892 l 181 1017 l 65 1017 l 268 800 l 383 800 m 115 0 l 236 0 l 236 400 q 284 558 236 510 q 394 607 332 607 q 496 576 451 607 l 514 690 q 404 726 471 726 q 236 617 286 726 l 236 710 l 115 710 l 115 0 "},"Ś":{"ha":832,"x_min":81,"x_max":739,"o":"m 279 1063 l 401 1063 l 649 1279 l 476 1279 l 279 1063 m 419 -17 q 650 58 561 -17 q 739 264 739 133 q 714 385 739 332 q 640 475 689 439 q 550 533 592 511 q 444 578 508 554 q 364 610 393 597 q 301 643 335 622 q 251 690 267 664 q 235 749 235 717 q 279 842 235 808 q 400 876 324 876 q 515 849 468 876 q 582 778 563 821 l 693 815 q 596 941 671 893 q 408 989 521 989 q 190 919 271 989 q 110 749 110 850 q 127 659 110 700 q 169 591 144 618 q 237 538 194 564 q 312 499 279 513 q 394 467 344 485 q 556 383 499 429 q 614 261 614 338 q 563 140 614 182 q 422 97 511 97 q 285 136 344 97 q 194 242 225 175 l 81 200 q 205 44 114 104 q 419 -17 296 -17 "},"ś":{"ha":651,"x_min":68,"x_max":578,"o":"m 183 800 l 306 800 l 553 1017 l 381 1017 l 183 800 m 325 -17 q 510 37 442 -17 q 578 185 578 90 q 519 329 578 278 q 347 421 460 381 q 288 445 304 438 q 245 468 272 453 q 208 501 218 483 q 197 539 197 518 q 229 597 197 576 q 315 618 261 618 q 472 550 407 618 l 556 619 q 317 726 465 726 q 145 676 213 726 q 78 539 78 625 q 133 407 78 457 q 297 317 189 357 q 379 283 351 296 q 433 242 407 269 q 460 182 460 215 q 424 115 460 138 q 328 92 388 92 q 154 176 233 92 l 68 103 q 180 16 111 49 q 325 -17 249 -17 "},"Ŝ":{"ha":832,"x_min":81,"x_max":739,"o":"m 556 1063 l 669 1063 l 467 1279 l 353 1279 l 149 1063 l 264 1063 l 410 1188 l 556 1063 m 419 -17 q 650 58 561 -17 q 739 264 739 133 q 714 385 739 332 q 640 475 689 439 q 550 533 592 511 q 444 578 508 554 q 364 610 393 597 q 301 643 335 622 q 251 690 267 664 q 235 749 235 717 q 279 842 235 808 q 400 876 324 876 q 515 849 468 876 q 582 778 563 821 l 693 815 q 596 941 671 893 q 408 989 521 989 q 190 919 271 989 q 110 749 110 850 q 127 659 110 700 q 169 591 144 618 q 237 538 194 564 q 312 499 279 513 q 394 467 344 485 q 556 383 499 429 q 614 261 614 338 q 563 140 614 182 q 422 97 511 97 q 285 136 344 97 q 194 242 225 175 l 81 200 q 205 44 114 104 q 419 -17 296 -17 "},"ŝ":{"ha":651,"x_min":56,"x_max":578,"o":"m 463 800 l 576 800 l 374 1017 l 260 1017 l 56 800 l 171 800 l 317 925 l 463 800 m 325 -17 q 510 37 442 -17 q 578 185 578 90 q 519 329 578 278 q 347 421 460 381 q 288 445 304 438 q 245 468 272 453 q 208 501 218 483 q 197 539 197 518 q 229 597 197 576 q 315 618 261 618 q 472 550 407 618 l 556 619 q 317 726 465 726 q 145 676 213 726 q 78 539 78 625 q 133 407 78 457 q 297 317 189 357 q 379 283 351 296 q 433 242 407 269 q 460 182 460 215 q 424 115 460 138 q 328 92 388 92 q 154 176 233 92 l 68 103 q 180 16 111 49 q 325 -17 249 -17 "},"Ş":{"ha":832,"x_min":81,"x_max":739,"o":"m 413 -329 q 531 -290 485 -329 q 578 -189 578 -250 q 542 -107 578 -140 q 429 -74 506 -74 l 464 -15 q 663 69 588 -4 q 739 264 739 143 q 714 385 739 332 q 640 476 689 439 q 550 533 592 513 q 444 578 508 554 q 289 652 342 615 q 236 749 236 689 q 280 842 236 808 q 400 875 324 875 q 515 848 468 875 q 582 778 563 821 l 693 815 q 596 941 671 893 q 408 989 521 989 q 190 919 271 989 q 110 749 110 850 q 133 641 110 688 q 203 561 156 594 q 290 509 251 528 q 394 467 329 490 q 555 383 497 429 q 613 261 613 336 q 562 140 613 182 q 422 99 511 99 q 283 137 343 99 q 194 242 224 175 l 81 200 q 194 51 111 110 q 390 -15 276 -8 l 318 -107 l 340 -135 q 393 -125 360 -125 q 449 -143 425 -125 q 472 -187 472 -161 q 452 -235 472 -217 q 401 -254 432 -254 q 349 -236 363 -254 l 282 -283 q 413 -329 331 -329 "},"ş":{"ha":651,"x_min":68,"x_max":578,"o":"m 301 -329 q 420 -290 374 -329 q 467 -189 467 -250 q 431 -107 467 -140 q 318 -74 394 -74 l 353 -15 q 517 43 457 -10 q 578 185 578 96 q 565 259 578 225 q 533 315 551 293 q 484 356 515 336 q 428 388 453 376 q 367 414 404 399 q 350 421 361 417 q 270 453 293 443 q 222 488 247 464 q 197 539 197 511 q 229 597 197 576 q 315 618 261 618 q 472 550 407 618 l 556 619 q 317 726 465 726 q 145 676 213 726 q 78 539 78 625 q 92 461 78 494 q 139 402 107 428 q 199 361 171 376 q 272 326 226 346 q 303 315 281 324 q 333 302 325 306 q 361 290 342 299 q 389 276 381 281 q 411 262 397 271 q 432 245 425 253 q 447 227 439 238 q 457 206 454 217 q 460 182 460 194 q 424 115 460 138 q 328 92 388 92 q 154 176 233 92 l 68 103 q 281 -14 143 6 l 207 -107 l 229 -135 q 282 -125 249 -125 q 338 -143 314 -125 q 361 -187 361 -161 q 341 -235 361 -217 q 290 -254 321 -254 q 238 -236 251 -254 l 171 -283 q 301 -329 219 -329 "},"Š":{"ha":832,"x_min":81,"x_max":739,"o":"m 467 1063 l 669 1279 l 556 1279 l 410 1154 l 264 1279 l 149 1279 l 351 1063 l 467 1063 m 419 -17 q 650 58 561 -17 q 739 264 739 133 q 714 385 739 332 q 640 475 689 439 q 550 533 592 511 q 444 578 508 554 q 364 610 393 597 q 301 643 335 622 q 251 690 267 664 q 235 749 235 717 q 279 842 235 808 q 400 876 324 876 q 515 849 468 876 q 582 778 563 821 l 693 815 q 596 941 671 893 q 408 989 521 989 q 190 919 271 989 q 110 749 110 850 q 127 659 110 700 q 169 591 144 618 q 237 538 194 564 q 312 499 279 513 q 394 467 344 485 q 556 383 499 429 q 614 261 614 338 q 563 140 614 182 q 422 97 511 97 q 285 136 344 97 q 194 242 225 175 l 81 200 q 205 44 114 104 q 419 -17 296 -17 "},"š":{"ha":651,"x_min":56,"x_max":578,"o":"m 374 800 l 576 1017 l 463 1017 l 317 892 l 171 1017 l 56 1017 l 258 800 l 374 800 m 325 -17 q 510 37 442 -17 q 578 185 578 90 q 519 329 578 278 q 347 421 460 381 q 288 445 304 438 q 245 468 272 453 q 208 501 218 483 q 197 539 197 518 q 229 597 197 576 q 315 618 261 618 q 472 550 407 618 l 556 619 q 317 726 465 726 q 145 676 213 726 q 78 539 78 625 q 133 407 78 457 q 297 317 189 357 q 379 283 351 296 q 433 242 407 269 q 460 182 460 215 q 424 115 460 138 q 328 92 388 92 q 154 176 233 92 l 68 103 q 180 16 111 49 q 325 -17 249 -17 "},"Ţ":{"ha":810,"x_min":74,"x_max":736,"o":"m 378 -329 q 498 -290 451 -329 q 544 -189 544 -250 q 508 -107 544 -140 q 394 -74 471 -74 l 440 0 l 465 0 l 465 858 l 736 858 l 736 972 l 74 972 l 74 858 l 344 858 l 344 0 l 369 0 l 283 -107 l 306 -135 q 358 -125 325 -125 q 415 -143 390 -125 q 439 -187 439 -161 q 418 -235 439 -217 q 367 -254 397 -254 q 315 -236 329 -254 l 247 -283 q 378 -329 296 -329 "},"ţ":{"ha":519,"x_min":42,"x_max":457,"o":"m 256 -329 q 376 -290 329 -329 q 422 -189 422 -250 q 385 -107 422 -140 q 272 -74 349 -74 l 307 -17 l 324 -17 q 443 15 389 -12 l 457 133 q 351 96 399 96 q 293 121 308 96 q 278 193 278 146 l 278 604 l 453 604 l 453 710 l 278 710 l 278 1003 l 157 944 l 157 710 l 42 710 l 42 604 l 157 604 l 157 153 q 242 -6 157 28 l 161 -107 l 183 -135 q 236 -125 203 -125 q 292 -143 268 -125 q 317 -187 317 -161 q 296 -235 317 -217 q 244 -254 275 -254 q 193 -236 207 -254 l 125 -283 q 256 -329 174 -329 "},"Ť":{"ha":810,"x_min":74,"x_max":736,"o":"m 463 1063 l 665 1279 l 551 1279 l 406 1154 l 260 1279 l 144 1279 l 347 1063 l 463 1063 m 465 857 l 736 857 l 736 972 l 74 972 l 74 857 l 344 857 l 344 0 l 465 0 l 465 857 "},"ť":{"ha":579,"x_min":42,"x_max":553,"o":"m 553 1167 l 435 1167 q 423 992 435 1081 q 393 865 411 904 l 429 839 q 553 1156 553 961 l 553 1167 m 307 -17 q 443 15 382 -17 l 457 133 q 351 96 399 96 q 293 121 308 96 q 278 193 278 146 l 278 604 l 453 604 l 453 710 l 278 710 l 278 1003 l 157 944 l 157 710 l 42 710 l 42 604 l 157 604 l 157 153 q 307 -17 157 -17 "},"Ŧ":{"ha":803,"x_min":74,"x_max":729,"o":"m 729 857 l 729 972 l 74 972 l 74 857 l 340 857 l 340 499 l 167 499 l 167 383 l 340 383 l 340 0 l 461 0 l 461 383 l 633 383 l 633 499 l 461 499 l 461 857 l 729 857 "},"ŧ":{"ha":547,"x_min":60,"x_max":475,"o":"m 324 -17 q 460 15 399 -17 l 475 133 q 368 96 414 96 q 311 121 326 96 q 296 193 296 146 l 296 315 l 469 315 l 469 421 l 296 421 l 296 604 l 469 604 l 469 710 l 296 710 l 296 1003 l 175 944 l 175 710 l 60 710 l 60 604 l 175 604 l 175 421 l 60 421 l 60 315 l 175 315 l 175 153 q 324 -17 175 -17 "},"Ũ":{"ha":957,"x_min":129,"x_max":828,"o":"m 588 1089 q 725 1256 725 1089 l 663 1256 q 642 1208 661 1225 q 597 1192 624 1192 q 494 1226 567 1192 q 368 1261 421 1261 q 231 1094 231 1261 l 293 1094 q 313 1141 294 1125 q 358 1157 331 1157 q 462 1123 389 1157 q 588 1089 535 1089 m 478 -17 q 828 365 828 -17 l 828 972 l 707 972 l 707 365 q 645 157 707 217 q 478 97 583 97 q 311 157 372 97 q 250 365 250 217 l 250 972 l 129 972 l 129 365 q 478 -17 129 -17 "},"ũ":{"ha":782,"x_min":108,"x_max":667,"o":"m 496 826 q 633 993 633 826 l 571 993 q 551 946 569 963 q 506 929 532 929 q 402 964 475 929 q 276 999 329 999 q 139 832 139 999 l 201 832 q 221 878 203 863 q 267 894 239 894 q 370 860 297 894 q 496 826 443 826 m 546 0 l 667 0 l 667 710 l 546 710 l 546 279 q 382 96 546 96 q 270 141 311 96 q 229 282 229 186 l 229 710 l 108 710 l 108 300 q 173 58 108 133 q 367 -17 238 -17 q 546 68 481 -17 l 546 0 "},"Ū":{"ha":957,"x_min":129,"x_max":828,"o":"m 249 1100 l 707 1100 l 707 1203 l 249 1203 l 249 1100 m 478 -17 q 828 365 828 -17 l 828 972 l 707 972 l 707 365 q 645 157 707 217 q 478 97 583 97 q 311 157 372 97 q 250 365 250 217 l 250 972 l 129 972 l 129 365 q 478 -17 129 -17 "},"ū":{"ha":782,"x_min":108,"x_max":667,"o":"m 157 838 l 615 838 l 615 940 l 157 940 l 157 838 m 546 0 l 667 0 l 667 710 l 546 710 l 546 279 q 382 96 546 96 q 270 141 311 96 q 229 282 229 186 l 229 710 l 108 710 l 108 300 q 173 58 108 133 q 367 -17 238 -17 q 546 68 481 -17 l 546 0 "},"Ŭ":{"ha":957,"x_min":129,"x_max":828,"o":"m 478 1067 q 668 1131 604 1067 q 732 1293 732 1194 l 624 1293 q 583 1202 624 1236 q 478 1168 543 1168 q 374 1202 414 1168 q 333 1293 333 1236 l 225 1293 q 289 1131 225 1194 q 478 1067 353 1067 m 478 -17 q 828 365 828 -17 l 828 972 l 707 972 l 707 365 q 645 157 707 217 q 478 97 583 97 q 311 157 372 97 q 250 365 250 217 l 250 972 l 129 972 l 129 365 q 478 -17 129 -17 "},"ŭ":{"ha":782,"x_min":108,"x_max":667,"o":"m 386 804 q 576 868 513 804 q 640 1031 640 932 l 532 1031 q 492 940 532 974 q 386 906 451 906 q 282 940 322 906 q 242 1031 242 974 l 133 1031 q 197 868 133 932 q 386 804 261 804 m 546 0 l 667 0 l 667 710 l 546 710 l 546 279 q 382 96 546 96 q 270 141 311 96 q 229 282 229 186 l 229 710 l 108 710 l 108 300 q 173 58 108 133 q 367 -17 238 -17 q 546 68 481 -17 l 546 0 "},"Ů":{"ha":957,"x_min":129,"x_max":828,"o":"m 479 1007 q 595 1056 546 1007 q 644 1171 644 1104 q 595 1285 644 1238 q 479 1332 546 1332 q 363 1285 411 1332 q 314 1171 314 1238 q 363 1056 314 1104 q 479 1007 411 1007 m 429 1117 q 408 1171 408 1139 q 429 1224 408 1203 q 479 1244 450 1244 q 528 1224 508 1244 q 549 1171 549 1204 q 528 1117 549 1139 q 479 1096 508 1096 q 440 1107 450 1096 q 429 1117 429 1117 m 478 -17 q 828 365 828 -17 l 828 972 l 707 972 l 707 365 q 645 157 707 217 q 478 97 583 97 q 311 157 372 97 q 250 365 250 217 l 250 972 l 129 972 l 129 365 q 478 -17 129 -17 "},"ů":{"ha":782,"x_min":108,"x_max":667,"o":"m 386 744 q 502 793 453 744 q 551 908 551 842 q 502 1022 551 975 q 386 1069 453 1069 q 269 1022 318 1069 q 221 908 221 975 q 269 793 221 842 q 386 744 318 744 m 336 855 q 315 908 315 876 q 335 962 315 942 q 386 982 356 982 q 435 962 415 982 q 456 908 456 942 q 435 855 456 876 q 386 833 415 833 q 347 844 357 833 q 336 855 336 855 m 546 0 l 667 0 l 667 710 l 546 710 l 546 279 q 382 96 546 96 q 270 141 311 96 q 229 282 229 186 l 229 710 l 108 710 l 108 300 q 173 58 108 133 q 367 -17 238 -17 q 546 68 481 -17 l 546 0 "},"Ű":{"ha":957,"x_min":129,"x_max":888,"o":"m 357 1063 l 604 1279 l 432 1279 l 235 1063 l 357 1063 m 640 1063 l 888 1279 l 715 1279 l 518 1063 l 640 1063 m 478 -17 q 828 365 828 -17 l 828 972 l 707 972 l 707 365 q 645 157 707 217 q 478 97 583 97 q 311 157 372 97 q 250 365 250 217 l 250 972 l 129 972 l 129 365 q 478 -17 129 -17 "},"ű":{"ha":782,"x_min":108,"x_max":790,"o":"m 260 800 l 507 1017 l 335 1017 l 138 800 l 260 800 m 543 800 l 790 1017 l 618 1017 l 421 800 l 543 800 m 546 0 l 667 0 l 667 710 l 546 710 l 546 279 q 382 96 546 96 q 270 141 311 96 q 229 282 229 186 l 229 710 l 108 710 l 108 300 q 173 58 108 133 q 367 -17 238 -17 q 546 68 481 -17 l 546 0 "},"Ų":{"ha":957,"x_min":129,"x_max":828,"o":"m 515 -329 q 658 -269 604 -329 l 596 -224 q 529 -253 569 -253 q 478 -233 499 -253 q 457 -176 457 -214 q 633 7 457 -71 q 777 130 726 47 q 828 365 828 213 l 828 972 l 707 972 l 707 365 q 481 97 707 97 q 311 157 372 97 q 250 365 250 217 l 250 972 l 129 972 l 129 365 q 464 -17 129 -7 l 475 -17 q 356 -189 356 -82 q 401 -292 356 -254 q 515 -329 446 -329 "},"ų":{"ha":782,"x_min":108,"x_max":692,"o":"m 549 -329 q 692 -269 638 -329 l 629 -224 q 563 -253 603 -253 q 511 -233 532 -253 q 490 -176 490 -214 q 534 -74 490 -122 q 667 0 578 -26 l 667 710 l 546 710 l 546 279 q 382 96 546 96 q 270 141 311 96 q 229 282 229 186 l 229 710 l 108 710 l 108 300 q 173 58 108 133 q 367 -17 238 -17 q 546 68 481 -17 l 546 0 q 389 -189 389 -65 q 434 -292 389 -254 q 549 -329 479 -329 "},"Ŵ":{"ha":1167,"x_min":69,"x_max":1097,"o":"m 729 1063 l 843 1063 l 640 1279 l 526 1279 l 322 1063 l 438 1063 l 583 1188 l 729 1063 m 268 0 l 367 0 l 554 664 q 578 760 571 722 q 603 664 582 740 l 790 0 l 886 0 l 1097 972 l 974 972 l 842 340 q 824 244 829 281 q 801 339 818 276 l 628 972 l 532 972 l 360 338 q 333 235 333 236 q 315 339 328 276 l 196 972 l 69 972 l 268 0 "},"ŵ":{"ha":993,"x_min":53,"x_max":942,"o":"m 643 800 l 757 800 l 554 1017 l 440 1017 l 236 800 l 351 800 l 497 925 l 643 800 m 235 0 l 343 0 l 471 421 q 496 514 482 456 q 522 421 503 483 l 651 0 l 760 0 l 942 710 l 822 710 l 715 233 q 708 194 713 221 q 700 156 703 168 l 681 233 l 547 710 l 447 710 l 314 233 q 296 158 299 178 q 288 199 293 172 q 281 233 282 225 l 172 710 l 53 710 l 235 0 "},"Ŷ":{"ha":890,"x_min":56,"x_max":835,"o":"m 592 1063 l 706 1063 l 503 1279 l 389 1279 l 185 1063 l 300 1063 l 446 1188 l 592 1063 m 386 0 l 507 0 l 507 385 l 835 972 l 703 972 l 446 500 l 192 972 l 56 972 l 386 382 l 386 0 "},"ŷ":{"ha":736,"x_min":46,"x_max":690,"o":"m 511 800 l 625 800 l 422 1017 l 308 1017 l 104 800 l 219 800 l 365 925 l 511 800 m 200 -269 l 322 -269 l 690 710 l 567 710 l 388 226 q 365 158 378 203 q 343 226 353 203 l 167 710 l 46 710 l 308 18 l 200 -269 "},"Ÿ":{"ha":890,"x_min":56,"x_max":835,"o":"m 379 1117 q 401 1171 401 1139 q 379 1225 401 1203 q 325 1247 357 1247 q 271 1225 293 1247 q 249 1171 249 1203 q 271 1117 249 1139 q 325 1094 293 1094 q 368 1106 357 1094 q 379 1117 379 1117 m 619 1117 q 642 1171 642 1139 q 619 1225 642 1203 q 565 1247 597 1247 q 511 1225 533 1247 q 489 1171 489 1203 q 511 1117 489 1139 q 565 1094 533 1094 q 608 1106 597 1094 q 619 1117 619 1117 m 386 0 l 507 0 l 507 385 l 835 972 l 703 972 l 446 500 l 192 972 l 56 972 l 386 382 l 386 0 "},"Ź":{"ha":903,"x_min":88,"x_max":808,"o":"m 332 1063 l 454 1063 l 701 1279 l 529 1279 l 332 1063 m 88 0 l 808 0 l 808 115 l 247 115 l 808 879 l 808 972 l 119 972 l 119 857 l 651 857 l 88 93 l 88 0 "},"ź":{"ha":701,"x_min":88,"x_max":608,"o":"m 224 800 l 346 800 l 593 1017 l 421 1017 l 224 800 m 88 0 l 607 0 l 607 108 l 238 108 l 608 624 l 608 710 l 115 710 l 115 603 l 457 603 l 88 89 l 88 0 "},"Ż":{"ha":903,"x_min":88,"x_max":808,"o":"m 518 1117 q 540 1171 540 1139 q 518 1225 540 1203 q 464 1247 496 1247 q 410 1225 432 1247 q 388 1171 388 1203 q 410 1117 388 1139 q 464 1094 432 1094 q 507 1106 496 1094 q 518 1117 518 1117 m 88 0 l 808 0 l 808 115 l 247 115 l 808 879 l 808 972 l 119 972 l 119 857 l 651 857 l 88 93 l 88 0 "},"ż":{"ha":701,"x_min":88,"x_max":608,"o":"m 413 854 q 435 908 435 876 q 413 963 435 940 q 358 985 390 985 q 304 963 326 985 q 282 908 282 940 q 304 854 282 876 q 358 832 326 832 q 401 843 390 832 q 413 854 413 854 m 88 0 l 607 0 l 607 108 l 238 108 l 608 624 l 608 710 l 115 710 l 115 603 l 457 603 l 88 89 l 88 0 "},"Ž":{"ha":903,"x_min":88,"x_max":808,"o":"m 539 1063 l 742 1279 l 628 1279 l 482 1154 l 336 1279 l 221 1279 l 424 1063 l 539 1063 m 88 0 l 808 0 l 808 115 l 247 115 l 808 879 l 808 972 l 119 972 l 119 857 l 651 857 l 88 93 l 88 0 "},"ž":{"ha":701,"x_min":88,"x_max":618,"o":"m 415 800 l 618 1017 l 504 1017 l 358 892 l 213 1017 l 97 1017 l 300 800 l 415 800 m 88 0 l 607 0 l 607 108 l 238 108 l 608 624 l 608 710 l 115 710 l 115 603 l 457 603 l 88 89 l 88 0 "},"ſ":{"ha":425,"x_min":122,"x_max":408,"o":"m 122 0 l 243 0 l 243 807 q 256 862 243 843 q 307 881 268 881 q 408 854 353 881 l 408 956 q 276 989 346 989 q 166 951 210 989 q 122 828 122 914 l 122 0 "},"ƒ":{"ha":510,"x_min":1,"x_max":471,"o":"m 61 -318 q 242 -231 179 -299 q 306 -33 306 -164 l 306 604 l 471 604 l 471 710 l 306 710 l 306 807 q 319 861 306 842 q 369 881 332 881 q 471 856 408 881 l 471 956 q 340 989 411 989 q 229 951 274 989 q 185 828 185 914 l 185 710 l 75 710 l 75 604 l 185 604 l 185 -60 q 144 -167 185 -128 q 1 -222 103 -206 l 61 -318 "},"Ǎ":{"ha":943,"x_min":71,"x_max":872,"o":"m 529 1063 l 732 1279 l 618 1279 l 472 1154 l 326 1279 l 211 1279 l 414 1063 l 529 1063 m 749 0 l 872 0 l 528 972 l 415 972 l 71 0 l 197 0 l 279 238 l 665 238 l 749 0 m 628 344 l 315 344 l 442 704 q 472 803 457 749 q 503 704 479 772 l 628 344 "},"ǎ":{"ha":731,"x_min":74,"x_max":643,"o":"m 440 800 l 643 1017 l 529 1017 l 383 892 l 238 1017 l 122 1017 l 325 800 l 440 800 m 522 0 l 636 0 l 636 471 q 383 726 636 726 q 126 651 240 726 l 161 550 q 368 621 261 621 q 483 585 443 621 q 522 461 522 550 l 522 411 q 339 457 442 457 q 150 397 226 457 q 74 222 74 338 q 141 45 74 107 q 321 -17 208 -17 q 522 65 435 -17 l 522 0 m 339 90 q 227 126 267 90 q 188 222 188 163 q 235 319 188 286 q 356 353 282 353 q 522 306 446 353 l 522 183 q 339 90 443 90 "},"Ǐ":{"ha":399,"x_min":-61,"x_max":460,"o":"m 257 1063 l 460 1279 l 346 1279 l 200 1154 l 54 1279 l -61 1279 l 142 1063 l 257 1063 m 139 0 l 260 0 l 260 972 l 139 972 l 139 0 "},"ǐ":{"ha":353,"x_min":-85,"x_max":436,"o":"m 233 800 l 436 1017 l 322 1017 l 176 892 l 31 1017 l -85 1017 l 118 800 l 233 800 m 117 0 l 238 0 l 238 710 l 117 710 l 117 0 "},"Ǒ":{"ha":1014,"x_min":94,"x_max":921,"o":"m 564 1063 l 767 1279 l 653 1279 l 507 1154 l 361 1279 l 246 1279 l 449 1063 l 564 1063 m 507 -17 q 667 13 596 -17 q 785 90 739 42 q 863 206 832 139 q 908 342 894 272 q 921 486 921 411 q 908 631 921 561 q 863 767 894 700 q 785 882 832 833 q 667 960 739 931 q 507 989 596 989 q 315 945 397 989 q 185 827 232 901 q 117 667 139 753 q 94 486 94 582 q 117 305 94 390 q 185 145 139 219 q 315 27 232 71 q 507 -17 397 -17 m 373 131 q 283 221 315 164 q 235 344 250 278 q 219 486 219 411 q 235 622 219 557 q 283 747 251 688 q 373 841 315 806 q 507 876 431 876 q 676 817 608 876 q 769 673 743 757 q 794 486 794 589 q 779 351 794 417 q 732 226 764 285 q 642 133 700 168 q 507 97 583 97 q 402 114 431 97 q 373 131 373 131 "},"ǒ":{"ha":775,"x_min":74,"x_max":701,"o":"m 444 800 l 647 1017 l 533 1017 l 388 892 l 242 1017 l 126 1017 l 329 800 l 444 800 m 617 83 q 701 356 701 182 q 617 628 701 529 q 388 726 532 726 q 158 627 243 726 q 74 354 74 528 q 158 82 74 181 q 388 -17 243 -17 q 574 33 532 -17 q 617 83 617 83 m 247 165 q 196 354 196 233 q 247 547 196 478 q 388 615 297 615 q 528 546 478 615 q 579 356 579 476 q 528 165 579 233 q 388 96 478 96 q 272 130 297 96 q 247 165 247 165 "},"Ǔ":{"ha":957,"x_min":129,"x_max":828,"o":"m 536 1063 l 739 1279 l 625 1279 l 479 1154 l 333 1279 l 218 1279 l 421 1063 l 536 1063 m 478 -17 q 828 365 828 -17 l 828 972 l 707 972 l 707 365 q 645 157 707 217 q 478 97 583 97 q 311 157 372 97 q 250 365 250 217 l 250 972 l 129 972 l 129 365 q 478 -17 129 -17 "},"ǔ":{"ha":782,"x_min":108,"x_max":667,"o":"m 440 800 l 643 1017 l 529 1017 l 383 892 l 238 1017 l 122 1017 l 325 800 l 440 800 m 546 0 l 667 0 l 667 710 l 546 710 l 546 279 q 382 96 546 96 q 270 141 311 96 q 229 282 229 186 l 229 710 l 108 710 l 108 300 q 173 58 108 133 q 367 -17 238 -17 q 546 68 481 -17 l 546 0 "},"Ǽ":{"ha":1186,"x_min":-19,"x_max":1108,"o":"m 540 1063 l 663 1063 l 910 1279 l 738 1279 l 540 1063 m -19 0 l 114 0 l 249 238 l 578 238 l 578 0 l 1108 0 l 1108 115 l 699 115 l 699 446 l 936 446 l 936 560 l 699 560 l 699 858 l 1078 858 l 1078 972 l 546 972 l -19 0 m 310 346 l 528 731 q 578 825 563 792 l 578 346 l 310 346 "},"ǽ":{"ha":1190,"x_min":74,"x_max":1125,"o":"m 471 800 l 593 800 l 840 1017 l 668 1017 l 471 800 m 321 -17 q 457 15 386 -17 q 581 115 528 47 q 831 -17 669 -17 q 1061 75 969 -17 l 988 157 q 833 93 924 93 q 702 151 756 93 q 640 308 649 208 l 1121 308 q 1125 389 1125 350 q 1044 639 1125 551 q 831 726 963 726 q 597 621 682 726 q 383 726 539 726 q 126 651 240 726 l 161 550 q 368 621 261 621 q 484 583 446 621 q 522 461 522 546 l 522 411 q 339 457 442 457 q 150 397 226 457 q 74 222 74 338 q 141 45 74 107 q 321 -17 208 -17 m 639 414 q 697 568 644 517 q 832 619 750 619 q 950 571 899 619 q 1003 414 1001 522 l 639 414 m 339 90 q 227 126 267 90 q 188 222 188 163 q 235 319 188 286 q 356 353 282 353 q 522 306 442 353 q 532 199 525 246 q 448 122 499 153 q 339 90 397 90 "},"Ǿ":{"ha":1007,"x_min":90,"x_max":917,"o":"m 347 1063 l 469 1063 l 717 1279 l 544 1279 l 347 1063 m 103 -17 l 225 -17 l 272 53 q 504 -17 368 -17 q 697 27 614 -17 q 826 145 779 71 q 894 305 872 219 q 917 486 917 390 q 810 849 917 713 l 906 989 l 781 989 l 735 921 q 504 989 638 989 q 344 960 415 989 q 226 882 272 931 q 148 767 179 833 q 103 631 117 700 q 90 486 90 561 q 197 124 90 260 l 103 -17 m 272 235 q 217 486 217 332 q 232 622 217 557 q 279 747 247 688 q 369 841 311 806 q 504 876 428 876 q 668 821 599 876 l 272 235 m 504 97 q 339 151 407 97 l 735 738 q 792 486 792 638 q 776 351 792 417 q 728 226 760 285 q 638 133 696 168 q 504 97 581 97 "},"ǿ":{"ha":775,"x_min":74,"x_max":701,"o":"m 600 1017 l 428 1017 l 231 800 l 353 800 l 600 1017 m 701 726 l 589 726 l 557 681 q 388 726 486 726 q 158 627 243 726 q 74 354 74 528 q 150 93 74 192 l 74 -17 l 183 -17 l 217 31 q 388 -17 290 -17 q 617 83 532 -17 q 701 356 701 182 q 625 617 701 518 l 701 726 m 196 354 q 247 547 196 478 q 388 615 297 615 q 490 585 447 615 l 225 201 q 196 354 196 261 m 579 356 q 528 165 579 233 q 388 96 478 96 q 283 128 328 96 l 550 510 q 579 356 579 447 "},"Ș":{"ha":832,"x_min":81,"x_max":739,"o":"m 419 -17 q 650 58 561 -17 q 739 264 739 133 q 714 385 739 332 q 640 475 689 439 q 550 533 592 511 q 444 578 508 554 q 364 610 393 597 q 301 643 335 622 q 251 690 267 664 q 235 749 235 717 q 279 842 235 808 q 400 876 324 876 q 515 849 468 876 q 582 778 563 821 l 693 815 q 596 941 671 893 q 408 989 521 989 q 190 919 271 989 q 110 749 110 850 q 127 659 110 700 q 169 591 144 618 q 237 538 194 564 q 312 499 279 513 q 394 467 344 485 q 556 383 499 429 q 614 261 614 338 q 563 140 614 182 q 422 97 511 97 q 285 136 344 97 q 194 242 225 175 l 81 200 q 205 44 114 104 q 419 -17 296 -17 m 357 -335 l 393 -353 q 501 -162 501 -278 q 476 -97 501 -121 q 417 -72 451 -72 q 360 -95 385 -72 q 336 -154 336 -118 q 359 -212 336 -189 q 419 -235 382 -235 q 357 -335 406 -293 "},"ș":{"ha":651,"x_min":68,"x_max":578,"o":"m 325 -17 q 510 37 442 -17 q 578 185 578 90 q 519 329 578 278 q 347 421 460 381 q 288 445 304 438 q 245 468 272 453 q 208 501 218 483 q 197 539 197 518 q 229 597 197 576 q 315 618 261 618 q 472 550 407 618 l 556 619 q 317 726 465 726 q 145 676 213 726 q 78 539 78 625 q 133 407 78 457 q 297 317 189 357 q 379 283 351 296 q 433 242 407 269 q 460 182 460 215 q 424 115 460 138 q 328 92 388 92 q 154 176 233 92 l 68 103 q 180 16 111 49 q 325 -17 249 -17 m 267 -335 l 303 -353 q 411 -162 411 -278 q 386 -97 411 -121 q 326 -72 361 -72 q 270 -95 294 -72 q 246 -154 246 -118 q 269 -212 246 -189 q 329 -235 292 -235 q 267 -335 315 -293 "},"Ț":{"ha":810,"x_min":74,"x_max":736,"o":"m 465 857 l 736 857 l 736 972 l 74 972 l 74 857 l 344 857 l 344 0 l 465 0 l 465 857 m 346 -335 l 382 -353 q 490 -162 490 -278 q 465 -97 490 -121 q 406 -72 440 -72 q 349 -95 374 -72 q 325 -154 325 -118 q 348 -212 325 -189 q 408 -235 371 -235 q 346 -335 394 -293 "},"ț":{"ha":519,"x_min":42,"x_max":457,"o":"m 307 -17 q 443 15 382 -17 l 457 133 q 351 96 399 96 q 293 121 308 96 q 278 193 278 146 l 278 604 l 453 604 l 453 710 l 278 710 l 278 1003 l 157 944 l 157 710 l 42 710 l 42 604 l 157 604 l 157 153 q 307 -17 157 -17 m 240 -335 l 276 -353 q 385 -162 385 -278 q 360 -97 385 -121 q 300 -72 335 -72 q 244 -95 268 -72 q 219 -154 219 -118 q 242 -212 219 -189 q 303 -235 265 -235 q 240 -335 289 -293 "},"ȷ":{"ha":353,"x_min":-65,"x_max":238,"o":"m -8 -297 q 185 -197 118 -279 q 238 -6 238 -135 l 238 710 l 117 710 l 117 -50 q 77 -153 117 -117 q -65 -206 38 -189 l -8 -297 "},"ˆ":{"ha":511,"x_min":-4,"x_max":517,"o":"m 403 800 l 517 800 l 314 1017 l 200 1017 l -4 800 l 111 800 l 257 925 l 403 800 "},"ˇ":{"ha":511,"x_min":-4,"x_max":517,"o":"m 314 800 l 517 1017 l 403 1017 l 257 892 l 111 1017 l -4 1017 l 199 800 l 314 800 "},"ˉ":{"ha":511,"x_min":26,"x_max":485,"o":"m 26 838 l 485 838 l 485 940 l 26 940 l 26 838 "},"˘":{"ha":511,"x_min":3,"x_max":510,"o":"m 256 804 q 446 868 382 804 q 510 1031 510 932 l 401 1031 q 361 940 401 974 q 256 906 321 906 q 151 940 192 906 q 111 1031 111 974 l 3 1031 q 67 868 3 932 q 256 804 131 804 "},"˙":{"ha":511,"x_min":179,"x_max":332,"o":"m 310 854 q 332 908 332 876 q 310 963 332 940 q 256 985 288 985 q 201 963 224 985 q 179 908 179 940 q 201 854 179 876 q 256 832 224 832 q 299 843 288 832 q 310 854 310 854 "},"˚":{"ha":511,"x_min":92,"x_max":422,"o":"m 257 744 q 373 793 324 744 q 422 908 422 842 q 373 1022 422 975 q 257 1069 324 1069 q 140 1022 189 1069 q 92 908 92 975 q 140 793 92 842 q 257 744 189 744 m 207 855 q 186 908 186 876 q 207 962 186 942 q 257 982 228 982 q 306 962 286 982 q 326 908 326 942 q 306 855 326 876 q 257 833 286 833 q 217 844 228 833 q 207 855 207 855 "},"˛":{"ha":511,"x_min":104,"x_max":407,"o":"m 264 -329 q 407 -269 353 -329 l 344 -224 q 278 -253 318 -253 q 226 -233 247 -253 q 206 -176 206 -214 q 250 -74 206 -124 q 385 14 294 -24 l 294 14 q 154 -68 204 -15 q 104 -189 104 -121 q 149 -292 104 -254 q 264 -329 194 -329 "},"˜":{"ha":511,"x_min":8,"x_max":503,"o":"m 365 826 q 503 993 503 826 l 440 993 q 420 946 439 963 q 375 929 401 929 q 272 964 344 929 q 146 999 199 999 q 8 832 8 999 l 71 832 q 90 878 72 863 q 136 894 108 894 q 240 860 167 894 q 365 826 313 826 "},"˝":{"ha":511,"x_min":54,"x_max":707,"o":"m 176 800 l 424 1017 l 251 1017 l 54 800 l 176 800 m 460 800 l 707 1017 l 535 1017 l 338 800 l 460 800 "},"̒":{"ha":0,"x_min":-339,"x_max":-174,"o":"m -254 829 q -198 853 -222 829 q -174 913 -174 876 q -197 969 -174 946 q -257 992 -219 992 q -194 1092 -243 1054 l -231 1111 q -339 921 -339 1036 q -314 854 -339 879 q -254 829 -289 829 "},"̦":{"ha":0,"x_min":-335,"x_max":-169,"o":"m -314 -335 l -278 -353 q -169 -162 -169 -278 q -194 -97 -169 -121 q -254 -72 -219 -72 q -310 -95 -286 -72 q -335 -154 -335 -118 q -312 -212 -335 -189 q -251 -235 -289 -235 q -314 -335 -265 -293 "},"Ω":{"ha":1033,"x_min":115,"x_max":919,"o":"m 601 0 l 919 0 l 919 114 l 701 114 q 908 542 908 257 q 896 668 908 607 q 854 789 883 729 q 781 892 825 849 q 669 963 738 936 q 517 989 601 989 q 365 963 433 989 q 253 892 297 936 q 178 789 208 847 q 136 669 149 731 q 124 542 124 607 q 331 114 124 256 l 115 114 l 115 0 l 432 0 l 432 113 q 292 312 335 219 q 250 539 250 404 q 315 778 250 679 q 517 876 381 876 q 674 824 611 876 q 760 700 736 772 q 783 540 783 628 q 741 312 783 404 q 601 113 699 219 l 601 0 "},"μ":{"ha":785,"x_min":111,"x_max":671,"o":"m 550 0 l 671 0 l 671 710 l 550 710 l 550 279 q 386 96 550 96 q 270 135 308 96 q 232 282 232 175 l 232 710 l 111 710 l 111 -278 l 232 -221 l 232 54 q 368 -17 279 -17 q 550 69 474 -17 l 550 0 "},"π":{"ha":929,"x_min":61,"x_max":861,"o":"m 710 -17 q 844 15 783 -17 l 861 132 q 754 94 806 94 q 697 120 711 94 q 682 193 682 146 l 682 583 l 854 583 l 854 710 l 99 710 l 99 583 l 232 583 l 232 456 q 219 284 232 356 q 178 168 206 213 q 126 99 151 124 q 61 51 100 75 l 164 -29 q 310 163 274 32 q 347 513 347 294 l 347 583 l 560 583 l 560 153 q 597 28 560 74 q 710 -17 633 -17 "},"Ẁ":{"ha":1167,"x_min":69,"x_max":1097,"o":"m 618 1063 l 740 1063 l 543 1279 l 371 1279 l 618 1063 m 268 0 l 367 0 l 554 664 q 578 760 571 722 q 603 664 582 740 l 790 0 l 886 0 l 1097 972 l 974 972 l 842 340 q 824 244 829 281 q 801 339 818 276 l 628 972 l 532 972 l 360 338 q 333 235 333 236 q 315 339 328 276 l 196 972 l 69 972 l 268 0 "},"ẁ":{"ha":993,"x_min":53,"x_max":942,"o":"m 532 800 l 654 800 l 457 1017 l 285 1017 l 532 800 m 235 0 l 343 0 l 471 421 q 496 514 482 456 q 522 421 503 483 l 651 0 l 760 0 l 942 710 l 822 710 l 715 233 q 708 194 713 221 q 700 156 703 168 l 681 233 l 547 710 l 447 710 l 314 233 q 296 158 299 178 q 288 199 293 172 q 281 233 282 225 l 172 710 l 53 710 l 235 0 "},"Ẃ":{"ha":1167,"x_min":69,"x_max":1097,"o":"m 426 1063 l 549 1063 l 796 1279 l 624 1279 l 426 1063 m 268 0 l 367 0 l 554 664 q 578 760 571 722 q 603 664 582 740 l 790 0 l 886 0 l 1097 972 l 974 972 l 842 340 q 824 244 829 281 q 801 339 818 276 l 628 972 l 532 972 l 360 338 q 333 235 333 236 q 315 339 328 276 l 196 972 l 69 972 l 268 0 "},"ẃ":{"ha":993,"x_min":53,"x_max":942,"o":"m 340 800 l 463 800 l 710 1017 l 538 1017 l 340 800 m 235 0 l 343 0 l 471 421 q 496 514 482 456 q 522 421 503 483 l 651 0 l 760 0 l 942 710 l 822 710 l 715 233 q 708 194 713 221 q 700 156 703 168 l 681 233 l 547 710 l 447 710 l 314 233 q 296 158 299 178 q 288 199 293 172 q 281 233 282 225 l 172 710 l 53 710 l 235 0 "},"Ẅ":{"ha":1167,"x_min":69,"x_max":1097,"o":"m 517 1117 q 539 1171 539 1139 q 517 1225 539 1203 q 463 1247 494 1247 q 408 1225 431 1247 q 386 1171 386 1203 q 408 1117 386 1139 q 463 1094 431 1094 q 506 1106 494 1094 q 517 1117 517 1117 m 757 1117 q 779 1171 779 1139 q 757 1225 779 1203 q 703 1247 735 1247 q 649 1225 671 1247 q 626 1171 626 1203 q 649 1117 626 1139 q 703 1094 671 1094 q 746 1106 735 1094 q 757 1117 757 1117 m 268 0 l 367 0 l 554 664 q 578 760 571 722 q 603 664 582 740 l 790 0 l 886 0 l 1097 972 l 974 972 l 842 340 q 824 244 829 281 q 801 339 818 276 l 628 972 l 532 972 l 360 338 q 333 235 333 236 q 315 339 328 276 l 196 972 l 69 972 l 268 0 "},"ẅ":{"ha":993,"x_min":53,"x_max":942,"o":"m 431 854 q 453 908 453 876 q 431 963 453 940 q 376 985 408 985 q 322 963 344 985 q 300 908 300 940 q 322 854 300 876 q 376 832 344 832 q 419 843 408 832 q 431 854 431 854 m 671 854 q 693 908 693 876 q 671 963 693 940 q 617 985 649 985 q 563 963 585 985 q 540 908 540 940 q 563 854 540 876 q 617 832 585 832 q 660 843 649 832 q 671 854 671 854 m 235 0 l 343 0 l 471 421 q 496 514 482 456 q 522 421 503 483 l 651 0 l 760 0 l 942 710 l 822 710 l 715 233 q 708 194 713 221 q 700 156 703 168 l 681 233 l 547 710 l 447 710 l 314 233 q 296 158 299 178 q 288 199 293 172 q 281 233 282 225 l 172 710 l 53 710 l 235 0 "},"Ỳ":{"ha":890,"x_min":56,"x_max":835,"o":"m 438 1063 l 560 1063 l 363 1279 l 190 1279 l 438 1063 m 386 0 l 507 0 l 507 385 l 835 972 l 703 972 l 446 500 l 192 972 l 56 972 l 386 382 l 386 0 "},"ỳ":{"ha":736,"x_min":46,"x_max":690,"o":"m 400 800 l 522 800 l 325 1017 l 153 1017 l 400 800 m 200 -269 l 322 -269 l 690 710 l 567 710 l 388 226 q 365 158 378 203 q 343 226 353 203 l 167 710 l 46 710 l 308 18 l 200 -269 "},"–":{"ha":708,"x_min":81,"x_max":629,"o":"m 81 347 l 629 347 l 629 451 l 81 451 l 81 347 "},"—":{"ha":819,"x_min":4,"x_max":817,"o":"m 4 347 l 817 347 l 817 451 l 4 451 l 4 347 "},"―":{"ha":819,"x_min":4,"x_max":817,"o":"m 4 347 l 817 347 l 817 451 l 4 451 l 4 347 "},"‘":{"ha":313,"x_min":54,"x_max":253,"o":"m 160 625 q 226 652 199 625 q 253 724 253 679 q 225 788 253 763 q 156 815 197 813 q 183 904 158 863 q 233 968 208 946 l 193 989 q 93 887 132 951 q 54 746 54 822 q 85 656 54 688 q 160 625 115 625 "},"’":{"ha":313,"x_min":60,"x_max":258,"o":"m 79 646 l 119 625 q 219 727 181 663 q 258 868 258 792 q 228 958 258 926 q 153 989 197 989 q 87 962 114 989 q 60 890 60 935 q 88 826 60 851 q 157 799 115 801 q 129 710 154 751 q 79 646 104 668 "},"‚":{"ha":313,"x_min":60,"x_max":258,"o":"m 79 -175 l 119 -196 q 219 -94 181 -158 q 258 47 258 -29 q 228 138 258 107 q 153 169 197 169 q 87 142 114 169 q 60 71 60 114 q 88 6 60 32 q 157 -22 115 -19 q 129 -111 154 -69 q 79 -175 104 -153 "},"‛":{"ha":313,"x_min":54,"x_max":253,"o":"m 193 625 l 233 646 q 183 710 208 668 q 156 799 158 751 q 225 826 197 801 q 253 890 253 851 q 226 962 253 935 q 160 989 199 989 q 85 958 115 989 q 54 868 54 926 q 93 727 54 792 q 193 625 132 663 "},"“":{"ha":603,"x_min":54,"x_max":544,"o":"m 160 625 q 226 652 199 625 q 253 724 253 679 q 225 788 253 763 q 156 815 197 813 q 183 904 158 863 q 233 968 208 946 l 193 989 q 93 887 132 951 q 54 746 54 822 q 85 656 54 688 q 160 625 115 625 m 450 625 q 517 652 489 625 q 544 724 544 679 q 516 788 544 763 q 447 815 488 813 q 524 968 453 904 l 483 989 q 384 887 422 951 q 346 746 346 822 q 376 656 346 688 q 450 625 407 625 "},"”":{"ha":603,"x_min":60,"x_max":549,"o":"m 79 646 l 119 625 q 219 727 181 663 q 258 868 258 792 q 228 958 258 926 q 153 989 197 989 q 87 962 114 989 q 60 890 60 935 q 88 826 60 851 q 157 799 115 801 q 129 710 154 751 q 79 646 104 668 m 371 646 l 411 625 q 510 727 472 663 q 549 868 549 792 q 518 958 549 926 q 444 989 488 989 q 378 962 406 989 q 350 890 350 935 q 378 826 350 851 q 447 799 407 801 q 371 646 442 710 "},"„":{"ha":603,"x_min":60,"x_max":549,"o":"m 79 -175 l 119 -196 q 219 -94 181 -158 q 258 47 258 -29 q 228 138 258 107 q 153 169 197 169 q 87 142 114 169 q 60 71 60 114 q 88 6 60 32 q 157 -22 115 -19 q 129 -111 154 -69 q 79 -175 104 -153 m 371 -175 l 411 -196 q 510 -94 472 -158 q 549 47 549 -29 q 518 138 549 106 q 444 169 488 169 q 378 142 406 169 q 350 71 350 114 q 378 6 350 32 q 447 -22 407 -19 q 371 -175 442 -111 "},"†":{"ha":778,"x_min":101,"x_max":678,"o":"m 433 622 l 614 599 l 678 599 l 678 715 l 614 715 l 436 689 l 450 815 l 450 989 l 328 989 l 328 815 l 339 689 l 164 715 l 101 715 l 101 599 l 164 599 l 342 622 l 328 468 l 375 -196 l 407 -196 l 450 468 l 433 622 "},"‡":{"ha":778,"x_min":101,"x_max":678,"o":"m 678 78 l 678 196 l 614 196 l 433 169 l 450 325 l 450 468 l 433 622 l 614 599 l 678 599 l 678 715 l 614 715 l 436 689 l 450 815 l 450 989 l 328 989 l 328 815 l 339 689 l 164 715 l 101 715 l 101 599 l 164 599 l 342 622 l 328 468 l 328 325 l 342 169 l 164 196 l 101 196 l 101 78 l 164 78 l 339 104 l 328 -22 l 328 -196 l 450 -196 l 450 -22 l 436 104 l 614 78 l 678 78 "},"•":{"ha":571,"x_min":94,"x_max":478,"o":"m 285 303 q 422 356 365 303 q 478 486 478 410 q 422 618 478 564 q 285 672 365 672 q 149 618 203 672 q 94 486 94 564 q 149 356 94 410 q 285 303 203 303 "},"…":{"ha":1307,"x_min":136,"x_max":1172,"o":"m 288 8 q 314 69 314 35 q 288 132 314 106 q 225 158 263 158 q 162 132 188 158 q 136 69 136 106 q 162 8 136 35 q 225 -18 188 -18 q 275 -5 263 -18 q 288 8 288 8 m 717 8 q 743 69 743 35 q 717 132 743 106 q 653 158 690 158 q 590 132 615 158 q 564 69 564 106 q 590 8 564 35 q 653 -18 615 -18 q 703 -5 690 -18 q 717 8 717 8 m 1146 8 q 1172 69 1172 35 q 1146 132 1172 106 q 1082 158 1119 158 q 1019 132 1044 158 q 993 69 993 106 q 1019 8 993 35 q 1082 -18 1044 -18 q 1133 -5 1119 -18 q 1146 8 1146 8 "},"‰":{"ha":1744,"x_min":72,"x_max":1672,"o":"m 296 494 q 426 535 374 494 q 499 629 479 576 q 518 742 518 682 q 463 916 518 843 q 296 989 408 989 q 128 913 183 989 q 72 742 72 838 q 127 568 72 642 q 296 494 182 494 m 331 -17 l 994 989 l 878 989 l 214 -17 l 331 -17 m 296 590 q 206 632 236 590 q 176 742 176 674 q 206 851 176 808 q 296 893 236 893 q 385 852 354 893 q 415 742 415 811 q 384 634 415 678 q 296 590 353 590 m 913 -17 q 1044 24 992 -17 q 1117 118 1097 65 q 1136 231 1136 171 q 1081 405 1136 332 q 913 478 1026 478 q 745 401 800 478 q 690 231 690 325 q 745 57 690 131 q 913 -17 800 -17 m 1449 -17 q 1581 24 1528 -17 q 1653 118 1633 65 q 1672 231 1672 171 q 1617 405 1672 332 q 1449 478 1563 478 q 1281 401 1336 478 q 1226 231 1226 325 q 1281 57 1226 131 q 1449 -17 1336 -17 m 824 121 q 793 231 793 163 q 824 340 793 297 q 913 382 854 382 q 1001 341 971 382 q 1032 231 1032 300 q 1001 122 1032 165 q 913 79 971 79 q 839 100 854 79 q 824 121 824 121 m 1360 121 q 1329 231 1329 163 q 1360 340 1329 297 q 1449 382 1390 382 q 1538 341 1507 382 q 1568 231 1568 300 q 1538 122 1568 165 q 1449 79 1507 79 q 1375 100 1390 79 q 1360 121 1360 121 "},"′":{"ha":303,"x_min":60,"x_max":243,"o":"m 60 581 l 158 581 l 243 1014 l 88 1014 l 60 581 "},"″":{"ha":581,"x_min":60,"x_max":521,"o":"m 60 581 l 158 581 l 243 1014 l 88 1014 l 60 581 m 338 581 l 436 581 l 521 1014 l 365 1014 l 338 581 "},"‹":{"ha":428,"x_min":53,"x_max":396,"o":"m 264 0 l 396 0 l 185 356 l 396 710 l 264 710 l 53 356 l 264 0 "},"›":{"ha":428,"x_min":32,"x_max":375,"o":"m 32 0 l 164 0 l 375 356 l 164 710 l 32 710 l 243 356 l 32 0 "},"⁄":{"ha":457,"x_min":-161,"x_max":618,"o":"m -161 -17 l -47 -17 l 618 989 l 504 989 l -161 -17 "},"ⁿ":{"ha":638,"x_min":94,"x_max":551,"o":"m 439 393 l 551 393 l 551 728 q 504 927 551 865 q 364 989 457 989 q 208 910 264 989 l 208 975 l 94 975 l 94 393 l 208 393 l 208 738 q 328 885 208 885 q 439 733 439 885 l 439 393 "},"₤":{"ha":818,"x_min":115,"x_max":776,"o":"m 119 0 l 776 0 l 776 115 l 240 115 q 361 311 338 201 l 582 311 l 582 411 l 372 411 q 356 503 371 457 l 582 503 l 582 604 l 314 604 q 286 715 286 667 q 334 826 286 779 q 475 874 382 874 q 588 856 536 874 q 660 825 640 839 q 714 783 679 811 l 761 896 q 475 989 638 989 q 240 909 322 989 q 158 715 158 829 q 179 604 158 660 l 115 604 l 115 503 l 221 503 q 244 411 243 451 l 115 411 l 115 311 l 238 311 q 119 111 222 179 l 119 0 "},"€":{"ha":860,"x_min":58,"x_max":804,"o":"m 521 -17 q 690 26 618 -17 q 804 136 763 68 l 706 199 q 519 99 635 99 q 303 313 354 99 l 528 313 l 569 414 l 288 414 q 285 474 285 433 q 288 540 285 517 l 621 540 l 663 642 l 301 642 q 535 875 349 875 q 729 801 646 875 l 776 915 q 536 989 669 989 q 291 891 381 989 q 172 642 201 793 l 104 642 l 60 540 l 160 540 q 158 485 158 521 q 160 414 158 438 l 103 414 l 58 313 l 172 313 q 521 -17 232 -17 "},"℅":{"ha":1432,"x_min":81,"x_max":1351,"o":"m 328 378 q 542 533 496 378 l 442 567 q 325 483 413 483 q 226 535 261 483 q 192 683 192 588 q 226 832 192 779 q 328 885 261 885 q 435 808 411 885 l 543 847 q 329 989 494 989 q 147 908 214 989 q 81 683 81 826 q 145 459 81 540 q 328 378 210 378 m 300 -17 l 418 -17 l 1082 989 l 964 989 l 300 -17 m 1280 65 q 1351 289 1351 146 q 1280 513 1351 432 q 1086 594 1208 594 q 893 513 964 594 q 822 289 822 432 q 893 65 822 146 q 1086 -17 964 -17 q 1244 24 1208 -17 q 1280 65 1280 65 m 1086 88 q 974 140 1015 88 q 933 289 933 193 q 974 438 933 385 q 1086 490 1015 490 q 1201 438 1161 490 q 1240 289 1240 385 q 1201 140 1240 193 q 1086 88 1161 88 "},"ℓ":{"ha":638,"x_min":88,"x_max":565,"o":"m 343 -17 q 446 8 397 -17 q 524 69 494 32 l 492 146 q 397 96 449 96 q 339 117 358 96 q 319 204 319 139 l 319 393 q 383 442 361 424 q 444 501 404 460 q 507 578 485 542 q 547 668 529 614 q 565 781 565 722 q 513 935 565 881 q 382 989 461 989 q 245 925 293 989 q 197 713 197 861 l 197 446 q 88 386 149 411 l 126 289 q 197 328 194 326 l 197 149 q 238 22 197 61 q 343 -17 278 -17 m 382 883 q 443 758 443 883 q 319 517 443 626 l 319 707 q 334 847 319 811 q 382 883 349 883 "},"№":{"ha":1661,"x_min":136,"x_max":1546,"o":"m 1281 379 q 1475 460 1404 379 q 1546 683 1546 540 q 1474 908 1546 826 q 1281 989 1403 989 q 1088 908 1158 989 q 1017 683 1017 826 q 1088 460 1017 540 q 1281 379 1158 379 m 847 0 l 847 972 l 726 972 l 726 279 q 729 208 726 258 q 689 281 711 244 l 258 972 l 136 972 l 136 0 l 257 0 l 257 694 q 254 763 257 721 q 293 694 268 735 l 731 0 l 847 0 m 1281 483 q 1169 536 1210 483 q 1128 683 1128 589 q 1169 832 1128 779 q 1281 885 1210 885 q 1395 833 1356 885 q 1435 683 1435 781 q 1395 535 1435 588 q 1281 483 1356 483 m 1026 172 l 1536 172 l 1536 265 l 1026 265 l 1026 172 "},"™":{"ha":1103,"x_min":39,"x_max":994,"o":"m 196 386 l 288 386 l 288 886 l 443 886 l 443 972 l 39 972 l 39 886 l 196 886 l 196 386 m 994 386 l 994 972 l 914 972 l 760 626 l 746 592 l 733 626 l 579 972 l 497 972 l 497 386 l 588 386 l 588 733 l 607 686 l 747 376 l 886 686 l 904 731 l 904 386 l 994 386 "},"Ω":{"ha":1033,"x_min":115,"x_max":919,"o":"m 601 0 l 919 0 l 919 114 l 701 114 q 908 542 908 257 q 896 668 908 607 q 854 789 883 729 q 781 892 825 849 q 669 963 738 936 q 517 989 601 989 q 365 963 433 989 q 253 892 297 936 q 178 789 208 847 q 136 669 149 731 q 124 542 124 607 q 331 114 124 256 l 115 114 l 115 0 l 432 0 l 432 113 q 292 312 335 219 q 250 539 250 404 q 315 778 250 679 q 517 876 381 876 q 674 824 611 876 q 760 700 736 772 q 783 540 783 628 q 741 312 783 404 q 601 113 699 219 l 601 0 "},"℮":{"ha":1125,"x_min":90,"x_max":1035,"o":"m 569 -17 q 806 42 710 -17 q 976 217 901 101 l 901 263 q 571 74 779 74 q 419 104 486 74 q 318 181 353 135 l 318 482 l 1035 482 q 893 860 1025 726 q 574 993 761 993 q 393 961 479 993 q 239 868 307 929 q 131 708 171 807 q 90 486 90 610 q 229 122 90 261 q 569 -17 368 -17 m 318 571 l 318 811 q 569 904 415 904 q 710 875 643 904 q 814 800 776 846 l 814 572 l 318 571 "},"⅓":{"ha":1003,"x_min":17,"x_max":953,"o":"m 17 -17 l 131 -17 l 794 989 l 681 989 l 17 -17 m 106 393 l 206 393 l 206 979 l 131 979 q 35 922 107 922 l 35 850 l 106 850 l 106 393 m 750 -14 q 897 35 840 -14 q 953 169 953 85 q 927 255 953 218 q 857 308 901 292 q 910 361 890 326 q 931 433 931 396 q 881 551 931 506 q 750 596 832 596 q 631 559 683 596 q 554 461 579 522 l 647 429 q 746 507 679 507 q 806 484 785 507 q 826 426 826 461 q 807 368 826 392 q 747 344 788 344 l 711 344 l 711 256 l 756 256 q 824 228 800 256 q 849 164 849 201 q 823 99 849 124 q 753 75 797 75 q 633 175 667 75 l 539 143 q 618 28 564 69 q 750 -14 672 -14 "},"⅔":{"ha":1222,"x_min":46,"x_max":1174,"o":"m 46 393 l 440 393 l 440 486 l 158 486 q 282 610 188 556 q 403 700 365 657 q 442 814 442 743 q 389 941 442 893 q 250 989 336 989 q 115 946 169 989 q 46 833 61 903 l 138 806 q 244 900 157 900 q 315 875 290 900 q 339 818 339 850 q 317 752 339 778 q 250 700 294 726 q 98 572 150 640 q 46 393 46 503 m 238 -17 l 351 -17 l 1015 989 l 901 989 l 238 -17 m 971 -14 q 1117 35 1061 -14 q 1174 169 1174 85 q 1147 255 1174 218 q 1078 308 1121 292 q 1131 362 1111 326 q 1151 433 1151 397 q 1101 550 1151 504 q 971 596 1051 596 q 851 559 903 596 q 775 461 800 522 l 867 429 q 967 507 899 507 q 1026 484 1004 507 q 1047 426 1047 461 q 1027 368 1047 392 q 967 344 1007 344 l 931 344 l 931 256 l 976 256 q 1044 228 1019 256 q 1069 164 1069 201 q 1043 99 1069 124 q 972 75 1017 75 q 854 175 886 75 l 758 143 q 838 28 783 69 q 971 -14 893 -14 "},"⅛":{"ha":997,"x_min":17,"x_max":940,"o":"m 17 -17 l 131 -17 l 794 989 l 681 989 l 17 -17 m 106 393 l 206 393 l 206 979 l 131 979 q 35 922 107 922 l 35 850 l 106 850 l 106 393 m 885 38 q 940 171 940 89 q 850 322 940 274 q 897 370 879 339 q 914 436 914 401 q 865 551 914 507 q 739 596 817 596 q 612 551 661 596 q 563 436 563 507 q 628 322 563 361 q 536 171 536 274 q 592 38 536 89 q 739 -14 649 -14 q 857 12 829 -14 q 885 38 885 38 m 739 360 q 681 381 704 360 q 658 433 658 401 q 681 490 658 468 q 739 511 704 511 q 797 490 775 511 q 819 433 819 468 q 797 381 819 401 q 739 360 775 360 m 665 101 q 636 175 636 129 q 665 246 636 217 q 739 275 694 275 q 812 246 783 275 q 840 175 840 217 q 812 101 840 129 q 739 74 783 74 q 680 88 694 74 q 665 101 665 101 "},"⅜":{"ha":1181,"x_min":32,"x_max":1124,"o":"m 244 379 q 391 428 335 379 q 447 563 447 478 q 421 648 447 611 q 351 701 394 685 q 405 755 385 719 q 425 826 425 790 q 375 943 425 897 q 244 989 325 989 q 125 952 176 989 q 49 854 74 915 l 140 822 q 240 900 172 900 q 299 877 278 900 q 321 819 321 854 q 301 761 321 785 q 240 738 281 738 l 204 738 l 204 649 l 250 649 q 318 622 293 649 q 343 557 343 594 q 317 492 343 517 q 246 468 290 468 q 128 568 160 468 l 32 536 q 112 421 57 463 q 244 379 167 379 m 200 -17 l 314 -17 l 978 989 l 864 989 l 200 -17 m 1068 38 q 1124 171 1124 89 q 1033 322 1124 274 q 1080 370 1063 339 q 1097 436 1097 401 q 1049 551 1097 507 q 922 596 1000 596 q 795 551 844 596 q 746 436 746 507 q 811 322 746 361 q 719 171 719 274 q 776 38 719 89 q 922 -14 832 -14 q 1040 12 1013 -14 q 1068 38 1068 38 m 922 360 q 865 381 888 360 q 842 433 842 401 q 865 490 842 468 q 922 511 888 511 q 981 490 958 511 q 1003 433 1003 468 q 981 381 1003 401 q 922 360 958 360 m 849 101 q 819 175 819 129 q 849 246 819 217 q 922 275 878 275 q 995 246 967 275 q 1024 175 1024 217 q 995 101 1024 129 q 922 74 967 74 q 863 88 878 74 q 849 101 849 101 "},"⅝":{"ha":1169,"x_min":36,"x_max":1113,"o":"m 189 -17 l 303 -17 l 967 989 l 853 989 l 189 -17 m 226 381 q 385 438 324 381 q 446 585 446 494 q 394 722 446 667 q 254 778 342 778 q 154 750 197 778 l 169 883 l 404 883 l 404 976 l 86 976 l 54 664 l 133 629 q 243 689 174 689 q 318 660 292 689 q 344 583 344 631 q 312 501 344 533 q 224 469 279 469 q 92 524 149 469 l 36 449 q 226 381 104 381 m 910 -14 q 1057 38 1001 -14 q 1113 171 1113 89 q 1021 322 1113 274 q 1086 436 1086 361 q 1037 551 1086 507 q 910 596 988 596 q 783 551 832 596 q 735 436 735 507 q 800 322 735 360 q 708 171 708 274 q 764 38 708 89 q 910 -14 819 -14 m 910 360 q 852 381 875 360 q 829 433 829 401 q 852 490 829 468 q 910 511 875 511 q 969 490 947 511 q 990 433 990 468 q 968 381 990 401 q 910 360 946 360 m 910 74 q 837 101 865 74 q 808 175 808 129 q 837 246 808 217 q 910 275 865 275 q 984 246 956 275 q 1013 175 1013 217 q 984 101 1013 129 q 910 74 956 74 "},"⅞":{"ha":1043,"x_min":18,"x_max":988,"o":"m 63 -17 l 176 -17 l 840 989 l 726 989 l 63 -17 m 132 393 l 235 393 q 275 650 236 518 q 404 885 314 782 l 404 976 l 18 976 l 18 883 l 290 883 q 132 393 133 657 m 785 -14 q 932 38 876 -14 q 988 171 988 89 q 896 322 988 274 q 961 436 961 361 q 912 551 961 507 q 785 596 863 596 q 658 551 707 596 q 610 436 610 507 q 675 322 610 360 q 583 171 583 274 q 639 38 583 89 q 785 -14 694 -14 m 785 360 q 727 381 750 360 q 704 433 704 401 q 727 490 704 468 q 785 511 750 511 q 844 490 822 511 q 865 433 865 468 q 843 381 865 401 q 785 360 821 360 m 785 74 q 712 101 740 74 q 683 175 683 129 q 712 246 683 217 q 785 275 740 275 q 859 246 831 275 q 888 175 888 217 q 859 101 888 129 q 785 74 831 74 "},"←":{"ha":1097,"x_min":56,"x_max":1028,"o":"m 408 251 q 425 267 425 251 q 417 296 425 274 l 363 453 l 1028 438 l 1028 564 l 363 549 l 417 706 q 425 735 425 728 q 408 750 425 750 q 385 739 403 750 l 72 525 q 56 500 56 514 q 72 475 56 486 l 385 263 q 408 251 403 251 "},"↑":{"ha":613,"x_min":58,"x_max":556,"o":"m 243 0 l 371 0 l 354 663 l 518 607 q 536 601 532 601 q 550 608 544 601 q 556 621 556 614 q 547 639 556 628 l 331 958 q 307 972 322 972 q 283 958 293 972 l 65 639 q 58 621 58 628 q 64 608 58 614 q 76 601 69 601 q 96 607 82 601 l 260 663 l 243 0 "},"→":{"ha":1097,"x_min":69,"x_max":1042,"o":"m 689 251 q 713 263 694 251 l 1026 475 q 1042 500 1042 485 q 1026 525 1042 515 l 713 739 q 689 750 694 750 q 672 735 672 750 q 681 706 672 728 l 735 549 l 69 564 l 69 438 l 735 453 l 681 296 q 672 267 672 274 q 689 251 672 251 "},"↓":{"ha":633,"x_min":63,"x_max":571,"o":"m 317 0 q 340 14 332 0 l 563 342 q 571 360 571 354 q 551 379 571 379 q 533 375 544 379 l 364 317 l 381 972 l 253 972 l 269 317 l 100 375 q 81 379 89 379 q 63 360 63 379 q 69 342 63 356 l 293 14 q 317 0 303 0 "},"↔":{"ha":1275,"x_min":56,"x_max":1219,"o":"m 867 251 q 890 263 872 251 l 1204 475 q 1219 500 1219 485 q 1204 525 1219 515 l 890 739 q 867 750 872 750 q 850 735 850 750 q 858 706 850 728 l 911 553 l 364 553 l 417 706 q 425 735 425 728 q 408 750 425 750 q 385 739 403 750 l 72 525 q 56 500 56 514 q 72 475 56 486 l 385 263 q 408 251 403 251 q 425 267 425 251 q 417 296 425 274 l 364 449 l 911 449 l 858 296 q 850 267 850 274 q 867 251 850 251 "},"↕":{"ha":633,"x_min":67,"x_max":565,"o":"m 340 -221 l 554 93 q 565 117 565 111 q 550 133 565 133 q 521 125 543 133 l 368 72 l 368 756 l 521 703 q 550 694 543 694 q 565 711 565 694 q 554 735 565 717 l 340 1049 q 315 1064 331 1064 q 290 1049 300 1064 l 78 735 q 67 711 67 717 q 82 694 67 694 q 111 703 89 694 l 264 756 l 264 72 l 111 125 q 82 133 89 133 q 67 117 67 133 q 78 93 67 111 l 290 -221 q 315 -236 300 -236 q 340 -221 331 -236 "},"↖":{"ha":856,"x_min":76,"x_max":817,"o":"m 728 97 l 817 188 l 335 646 l 486 719 q 517 746 517 735 q 486 765 517 760 l 125 833 q 117 835 122 833 q 108 837 111 836 q 101 838 104 838 q 76 813 76 838 q 78 801 76 810 q 81 786 81 792 l 149 432 q 169 399 153 399 q 196 429 182 399 l 268 579 l 728 97 "},"↗":{"ha":856,"x_min":39,"x_max":779,"o":"m 128 97 l 588 579 l 660 429 q 686 399 674 399 q 707 432 703 399 l 775 786 q 777 801 775 792 q 779 813 779 810 q 754 838 779 838 q 748 837 751 838 q 739 835 744 836 q 731 833 733 833 l 369 765 q 339 746 339 760 q 369 719 339 735 l 521 646 l 39 188 l 128 97 "},"↘":{"ha":856,"x_min":39,"x_max":779,"o":"m 754 97 q 779 122 779 97 q 777 134 779 125 q 775 149 775 143 l 707 503 q 686 536 703 536 q 660 506 674 536 l 588 356 l 128 838 l 39 747 l 521 289 l 369 215 q 339 189 339 200 q 369 169 339 175 l 731 101 q 739 100 733 101 q 748 98 744 99 q 754 97 751 97 "},"↙":{"ha":856,"x_min":76,"x_max":817,"o":"m 101 97 q 108 98 104 97 q 117 100 111 99 q 125 101 122 101 l 486 169 q 517 189 517 175 q 486 215 517 200 l 335 289 l 817 747 l 728 838 l 268 356 l 196 506 q 169 536 182 536 q 149 503 153 536 l 81 149 q 78 134 81 143 q 76 122 76 125 q 101 97 76 97 "},"↳":{"ha":989,"x_min":117,"x_max":933,"o":"m 918 322 l 604 536 q 581 547 586 547 q 564 532 564 547 q 572 503 564 525 l 625 350 l 224 350 l 224 972 l 117 972 l 117 246 l 625 246 l 572 93 q 564 64 564 71 q 581 49 564 49 q 604 60 586 49 l 918 272 q 933 297 933 282 q 918 322 933 313 "},"↴":{"ha":989,"x_min":117,"x_max":933,"o":"m 918 450 q 889 442 914 450 l 739 390 l 739 972 l 117 972 l 117 872 l 631 872 l 631 390 l 479 442 q 450 450 457 450 q 435 433 435 450 q 446 410 435 428 l 660 97 q 685 81 672 81 q 710 97 700 81 l 922 410 q 933 433 933 428 q 918 450 933 450 "},"↵":{"ha":989,"x_min":56,"x_max":874,"o":"m 767 972 l 767 350 l 364 350 l 417 503 q 425 532 425 525 q 408 547 425 547 q 385 536 403 547 l 72 322 q 56 297 56 311 q 72 272 56 283 l 385 60 q 408 49 403 49 q 425 64 425 49 q 417 93 425 71 l 364 246 l 874 246 l 874 972 l 767 972 "},"↶":{"ha":1101,"x_min":56,"x_max":974,"o":"m 352 885 q 251 606 251 781 l 251 551 l 100 603 q 71 611 78 611 q 56 594 56 611 q 67 571 56 589 l 281 258 q 306 242 293 242 q 331 258 319 242 l 543 571 q 554 594 554 589 q 539 611 554 611 q 510 603 535 611 l 360 551 l 360 606 q 429 813 360 739 q 613 888 499 888 q 794 813 725 888 q 864 606 864 738 l 864 0 l 974 0 l 974 606 q 873 885 974 781 q 613 989 772 989 q 402 937 453 989 q 352 885 352 885 "},"↷":{"ha":1101,"x_min":129,"x_max":1046,"o":"m 1031 611 q 1001 603 1024 611 l 851 551 l 851 606 q 751 885 851 781 q 490 989 650 989 q 230 885 331 989 q 129 606 129 781 l 129 0 l 238 0 l 238 606 q 308 813 238 738 q 490 888 378 888 q 672 813 603 888 q 742 606 742 739 l 742 551 l 592 603 q 563 611 569 611 q 547 594 547 611 q 558 571 547 589 l 771 258 q 796 242 781 242 q 821 258 811 242 l 1035 571 q 1046 594 1046 589 q 1031 611 1046 611 "},"↸":{"ha":856,"x_min":76,"x_max":817,"o":"m 76 872 l 817 872 l 817 972 l 76 972 l 76 872 m 728 -7 l 817 83 l 335 542 l 486 615 q 517 642 517 631 q 486 661 517 656 l 125 729 q 117 731 122 729 q 108 733 111 732 q 101 733 104 733 q 84 726 92 733 q 76 708 76 719 q 78 697 76 706 q 81 682 81 688 l 149 328 q 169 294 153 294 q 196 325 182 294 l 268 475 l 728 -7 "},"↹":{"ha":1211,"x_min":117,"x_max":1094,"o":"m 674 494 q 690 510 690 494 q 682 539 690 517 l 628 696 l 1094 681 l 1094 807 l 628 792 l 682 949 q 690 978 690 971 q 674 993 690 993 q 650 982 668 993 l 338 768 q 321 743 321 758 q 338 718 321 728 l 650 506 q 674 494 668 494 m 117 508 l 238 508 l 238 979 l 117 979 l 117 508 m 538 -299 q 561 -287 543 -299 l 874 -75 q 890 -50 890 -64 q 874 -25 890 -37 l 561 189 q 538 200 543 200 q 521 185 521 200 q 529 156 521 178 l 583 -3 l 117 14 l 117 -114 l 583 -97 l 529 -254 q 521 -283 521 -279 q 538 -299 521 -299 m 974 -285 l 1094 -285 l 1094 193 l 974 193 l 974 -285 "},"↺":{"ha":1175,"x_min":139,"x_max":1093,"o":"m 1064 907 l 701 975 q 679 979 681 979 q 654 954 654 979 q 658 928 654 944 l 725 574 q 747 540 732 540 q 774 571 757 540 l 842 713 q 929 486 929 617 q 828 245 929 346 q 588 144 728 144 q 347 245 447 144 q 247 486 247 346 q 347 726 247 625 l 271 803 q 139 486 139 671 q 271 169 139 300 q 588 38 403 38 q 904 169 772 38 q 1036 486 1036 300 q 918 790 1036 661 l 1063 861 q 1093 888 1093 875 q 1064 907 1093 900 "},"⇚":{"ha":1097,"x_min":56,"x_max":1028,"o":"m 1028 592 l 1028 654 l 399 654 l 417 706 q 425 735 425 728 q 408 750 425 750 q 385 739 403 750 l 72 525 q 56 500 56 514 q 72 475 56 486 l 385 263 q 408 251 403 251 q 425 267 425 251 q 417 296 425 274 l 399 349 l 1028 349 l 1028 411 l 376 411 l 357 469 l 1028 469 l 1028 532 l 357 532 l 378 592 l 1028 592 "},"⇛":{"ha":1097,"x_min":69,"x_max":1042,"o":"m 1026 525 l 713 739 q 689 750 694 750 q 672 735 672 750 q 681 706 672 728 l 699 654 l 69 654 l 69 592 l 719 592 l 740 532 l 69 532 l 69 469 l 740 469 l 721 411 l 69 411 l 69 349 l 699 349 l 681 296 q 672 267 672 274 q 689 251 672 251 q 713 263 694 251 l 1026 475 q 1042 500 1042 485 q 1026 525 1042 515 "},"⇜":{"ha":1097,"x_min":56,"x_max":1028,"o":"m 917 553 l 883 654 l 803 654 l 744 472 l 686 654 l 606 654 l 547 472 l 522 553 l 364 553 l 417 706 q 425 735 425 728 q 408 750 425 750 q 385 739 403 750 l 72 525 q 56 500 56 514 q 72 475 56 486 l 385 263 q 408 251 403 251 q 425 267 425 251 q 417 296 425 274 l 364 449 l 475 449 l 507 349 l 588 349 l 646 529 l 704 349 l 785 349 l 843 529 l 869 449 l 1028 449 l 1028 553 l 917 553 "},"⇝":{"ha":1097,"x_min":69,"x_max":1042,"o":"m 1026 525 l 713 739 q 689 750 694 750 q 672 735 672 750 q 681 706 672 728 l 733 553 l 576 553 l 550 472 l 492 654 l 411 654 l 353 472 l 294 654 l 214 654 l 182 553 l 69 553 l 69 449 l 229 449 l 254 528 l 313 349 l 393 349 l 451 529 l 510 349 l 590 349 l 624 449 l 733 449 l 681 296 q 672 267 672 274 q 689 251 672 251 q 713 263 694 251 l 1026 475 q 1042 500 1042 485 q 1026 525 1042 515 "},"⇞":{"ha":613,"x_min":58,"x_max":556,"o":"m 518 607 q 536 601 532 601 q 550 608 544 601 q 556 621 556 614 q 547 639 556 628 l 331 958 q 307 972 322 972 q 283 958 293 972 l 65 639 q 58 621 58 628 q 64 608 58 614 q 76 601 69 601 q 96 607 82 601 l 254 661 l 254 490 l 72 490 l 72 390 l 254 390 l 254 271 l 72 271 l 72 171 l 254 171 l 254 0 l 360 0 l 360 171 l 542 171 l 542 271 l 360 271 l 360 390 l 542 390 l 542 490 l 360 490 l 360 661 l 518 607 "},"⇟":{"ha":613,"x_min":58,"x_max":556,"o":"m 536 371 q 518 367 528 371 l 360 311 l 360 482 l 542 482 l 542 582 l 360 582 l 360 701 l 542 701 l 542 801 l 360 801 l 360 972 l 254 972 l 254 801 l 72 801 l 72 701 l 254 701 l 254 582 l 72 582 l 72 482 l 254 482 l 254 311 l 96 367 q 76 371 86 371 q 58 351 58 371 q 65 333 58 347 l 283 14 q 307 0 293 0 q 331 14 322 0 l 547 333 q 556 351 556 346 q 536 371 556 371 "},"⇠":{"ha":1097,"x_min":56,"x_max":1028,"o":"m 417 706 q 425 735 425 728 q 408 750 425 750 q 385 739 403 750 l 72 525 q 56 500 56 514 q 72 475 56 486 l 385 263 q 408 251 403 251 q 425 267 425 251 q 417 296 425 274 l 364 449 l 489 449 l 489 553 l 364 553 l 417 706 m 604 449 l 758 449 l 758 553 l 604 553 l 604 449 m 874 553 l 874 449 l 1028 449 l 1028 553 l 874 553 "},"⇡":{"ha":610,"x_min":58,"x_max":556,"o":"m 547 639 l 331 958 q 307 972 322 972 q 283 958 293 972 l 65 639 q 58 621 58 628 q 64 608 58 614 q 76 601 69 601 q 96 607 82 601 l 253 661 l 253 528 l 360 528 l 360 661 l 518 607 q 536 601 532 601 q 550 608 544 601 q 556 621 556 614 q 547 639 556 628 m 253 264 l 360 264 l 360 421 l 253 421 l 253 264 m 253 0 l 360 0 l 360 157 l 253 157 l 253 0 "},"⇢":{"ha":1097,"x_min":63,"x_max":1035,"o":"m 1019 525 l 706 739 q 682 750 688 750 q 665 735 665 750 q 674 706 665 728 l 726 553 l 601 553 l 601 449 l 726 449 l 674 296 q 665 267 665 274 q 682 251 665 251 q 706 263 688 251 l 1019 475 q 1035 500 1035 485 q 1019 525 1035 515 m 63 449 l 218 449 l 218 553 l 63 553 l 63 449 m 332 449 l 488 449 l 488 553 l 332 553 l 332 449 "},"⇣":{"ha":613,"x_min":58,"x_max":556,"o":"m 360 972 l 253 972 l 253 813 l 360 813 l 360 972 m 360 706 l 253 706 l 253 546 l 360 546 l 360 706 m 536 371 q 518 367 528 371 l 360 311 l 360 439 l 253 439 l 253 313 l 96 367 q 76 371 86 371 q 58 351 58 371 q 65 333 58 347 l 283 14 q 307 0 293 0 q 331 14 322 0 l 547 333 q 556 351 556 346 q 536 371 556 371 "},"⇤":{"ha":1136,"x_min":117,"x_max":1067,"o":"m 117 144 l 238 144 l 238 854 l 117 854 l 117 144 m 674 251 q 690 267 690 251 q 682 296 690 274 l 628 453 l 1067 438 l 1067 564 l 628 549 l 682 706 q 690 735 690 728 q 674 750 690 750 q 650 739 668 750 l 338 525 q 321 500 321 514 q 338 475 321 486 l 650 263 q 674 251 668 251 "},"⇥":{"ha":1136,"x_min":69,"x_max":1019,"o":"m 899 144 l 1019 144 l 1019 854 l 899 854 l 899 144 m 463 251 q 486 263 468 251 l 799 475 q 815 500 815 486 q 799 525 815 514 l 486 739 q 463 750 468 750 q 446 735 446 750 q 454 706 446 728 l 508 549 l 69 564 l 69 438 l 508 453 l 454 296 q 446 267 446 274 q 463 251 446 251 "},"∂":{"ha":819,"x_min":53,"x_max":732,"o":"m 350 -17 q 526 23 450 -17 q 645 131 601 63 q 710 282 689 199 q 732 463 732 365 q 635 835 732 704 q 322 989 538 965 l 293 876 q 515 792 425 869 q 614 554 606 714 q 614 485 615 521 q 522 576 575 544 q 383 608 468 608 q 151 513 250 608 q 53 265 53 418 q 134 62 53 140 q 350 -17 215 -17 m 350 100 q 224 150 272 100 q 175 286 175 200 q 234 435 175 379 q 392 490 293 490 q 581 314 581 490 q 518 159 581 218 q 350 100 456 100 "},"∆":{"ha":943,"x_min":71,"x_max":872,"o":"m 71 0 l 872 0 l 528 972 l 415 972 l 71 0 m 236 115 l 439 697 q 472 800 451 731 q 504 697 479 772 l 708 115 l 236 115 "},"∏":{"ha":1000,"x_min":136,"x_max":864,"o":"m 742 -194 l 864 -194 l 864 972 l 136 972 l 136 -194 l 257 -194 l 257 854 l 742 854 l 742 -194 "},"∑":{"ha":863,"x_min":74,"x_max":804,"o":"m 74 -196 l 804 -196 l 804 -79 l 231 -79 l 583 403 l 250 854 l 776 854 l 776 971 l 93 971 l 93 865 l 432 401 l 74 -90 l 74 -196 "},"−":{"ha":896,"x_min":122,"x_max":775,"o":"m 122 418 l 775 418 l 775 535 l 122 535 l 122 418 "},"∕":{"ha":457,"x_min":-161,"x_max":618,"o":"m -161 -17 l -47 -17 l 618 989 l 504 989 l -161 -17 "},"∙":{"ha":313,"x_min":60,"x_max":253,"o":"m 224 419 q 253 485 253 447 q 224 551 253 522 q 156 581 196 581 q 88 552 115 581 q 60 485 60 524 q 88 419 60 447 q 156 390 115 390 q 210 405 196 390 q 224 419 224 419 "},"√":{"ha":774,"x_min":74,"x_max":722,"o":"m 722 972 l 596 972 l 360 153 l 199 465 l 74 465 l 317 0 l 426 0 l 722 972 "},"∞":{"ha":1400,"x_min":60,"x_max":1340,"o":"m 1019 171 q 1249 256 1158 171 q 1340 492 1340 342 q 1249 728 1340 642 q 1017 814 1157 814 q 828 756 903 814 q 700 592 753 697 q 381 814 581 814 q 151 728 242 814 q 60 492 60 642 q 151 256 60 342 q 381 171 242 171 q 700 390 582 171 q 1019 171 810 171 m 390 283 q 240 339 299 283 q 181 492 181 394 q 240 645 181 589 q 390 701 299 701 q 650 492 536 701 q 390 283 538 283 m 1010 283 q 749 492 858 283 q 1010 701 860 701 q 1160 645 1101 701 q 1218 492 1218 589 q 1160 339 1218 394 q 1010 283 1101 283 "},"∫":{"ha":596,"x_min":67,"x_max":529,"o":"m 204 -194 q 358 -33 358 -194 l 358 811 q 428 885 358 885 q 529 863 468 885 l 529 956 q 392 989 467 989 q 238 828 238 989 l 238 -18 q 168 -90 238 -90 q 67 -69 122 -90 l 67 -162 q 204 -194 128 -194 "},"≈":{"ha":896,"x_min":124,"x_max":774,"o":"m 594 510 q 729 566 685 510 q 774 708 774 622 l 693 708 q 665 648 690 671 q 597 625 639 625 q 463 667 560 625 q 303 708 367 708 q 167 653 211 708 q 124 510 124 597 l 203 510 q 231 571 206 547 q 299 594 257 594 q 435 552 339 594 q 594 510 532 510 m 594 244 q 729 301 685 244 q 774 444 774 358 l 693 444 q 665 384 690 407 q 597 361 639 361 q 463 403 560 361 q 303 444 367 444 q 167 388 211 444 q 124 244 124 332 l 203 244 q 231 306 206 282 q 299 329 257 329 q 435 287 339 329 q 594 244 532 244 "},"≠":{"ha":896,"x_min":132,"x_max":782,"o":"m 428 293 l 782 293 l 782 414 l 488 414 l 549 539 l 782 539 l 782 660 l 607 660 l 668 781 l 542 781 l 482 660 l 132 660 l 132 539 l 424 539 l 363 414 l 132 414 l 132 293 l 301 293 l 239 161 l 365 161 l 428 293 "},"≤":{"ha":896,"x_min":122,"x_max":775,"o":"m 774 253 l 774 381 l 283 544 l 774 708 l 774 836 l 122 599 l 122 489 l 774 253 m 122 0 l 775 0 l 775 117 l 122 117 l 122 0 "},"≥":{"ha":896,"x_min":122,"x_max":775,"o":"m 122 253 l 774 489 l 774 599 l 122 836 l 122 708 l 613 544 l 122 381 l 122 253 m 122 0 l 775 0 l 775 117 l 122 117 l 122 0 "},"◊":{"ha":847,"x_min":88,"x_max":761,"o":"m 368 -17 l 482 -17 l 761 486 l 482 989 l 368 989 l 88 486 l 368 -17 m 425 865 l 642 486 l 425 108 l 208 486 l 425 865 "},"◌":{"ha":915,"x_min":88,"x_max":829,"o":"m 428 794 q 458 783 439 783 q 489 794 478 783 q 500 825 500 806 q 488 857 500 844 q 458 869 476 869 q 428 857 440 869 q 417 825 417 844 q 422 800 417 806 q 428 794 428 794 m 290 800 q 303 770 290 782 q 333 758 315 758 q 363 770 351 758 q 375 800 375 782 q 363 832 375 819 q 333 844 351 844 q 302 832 314 844 q 290 800 290 819 m 552 770 q 582 758 564 758 q 614 770 601 758 q 626 800 626 782 q 614 831 626 819 q 582 843 601 843 q 553 831 565 843 q 540 800 540 818 q 546 776 540 782 q 552 770 552 770 m 185 731 q 197 699 185 711 q 228 688 208 688 q 258 699 247 688 q 269 731 269 711 q 258 761 269 750 q 228 772 247 772 q 197 760 208 772 q 185 731 185 749 m 658 699 q 689 688 669 688 q 720 699 708 688 q 732 731 732 711 q 720 760 732 749 q 689 772 708 772 q 658 761 669 772 q 647 731 647 750 q 653 705 647 711 q 658 699 658 699 m 730 594 q 760 582 742 582 q 790 594 778 582 q 803 624 803 606 q 790 655 803 642 q 760 668 778 668 q 730 655 742 668 q 718 624 718 642 q 724 600 718 606 q 730 594 730 594 m 126 593 q 157 581 139 581 q 187 593 174 581 q 200 624 200 606 q 188 654 200 642 q 157 667 175 667 q 126 654 139 667 q 114 624 114 642 q 120 599 114 606 q 126 593 126 593 m 88 499 q 100 469 88 481 q 132 457 113 457 q 162 469 150 457 q 174 499 174 481 q 163 530 174 518 q 132 542 151 542 q 100 530 113 542 q 88 499 88 518 m 743 499 q 755 469 743 481 q 785 457 767 457 q 816 469 803 457 q 829 499 829 481 q 816 530 829 518 q 785 542 803 542 q 754 530 765 542 q 743 499 743 518 m 126 343 q 157 331 139 331 q 187 343 175 331 q 199 374 199 356 q 187 404 199 392 q 157 417 175 417 q 126 404 139 417 q 114 374 114 392 q 120 349 114 356 q 126 343 126 343 m 717 375 q 729 344 717 356 q 760 332 742 332 q 790 344 778 332 q 803 375 803 356 q 790 405 803 393 q 760 417 778 417 q 729 405 742 417 q 717 375 717 393 m 197 238 q 228 226 208 226 q 258 238 247 226 q 269 268 269 250 q 258 299 269 288 q 228 311 246 311 q 197 299 208 311 q 185 268 185 286 q 191 244 185 250 q 197 238 197 238 m 647 268 q 658 238 647 250 q 689 226 669 226 q 720 238 708 226 q 732 268 732 250 q 720 299 732 286 q 689 311 708 311 q 659 299 671 311 q 647 268 647 288 m 290 199 q 303 167 290 179 q 335 154 315 154 q 364 167 351 154 q 376 199 376 181 q 365 228 376 217 q 335 240 353 240 q 303 228 315 240 q 290 199 290 217 m 553 167 q 583 154 565 154 q 615 166 603 154 q 626 197 626 178 q 615 228 626 217 q 583 240 603 240 q 553 228 565 240 q 542 197 542 215 q 548 173 542 179 q 553 167 553 167 m 428 141 q 458 129 440 129 q 488 141 476 129 q 500 172 500 153 q 488 203 500 192 q 458 215 476 215 q 428 203 440 215 q 417 172 417 192 q 423 147 417 153 q 428 141 428 141 "},"":{"ha":0,"x_min":-336,"x_max":-176,"o":"m -176 1014 l -294 1014 q -306 840 -294 928 q -336 713 -318 751 l -300 686 q -176 1003 -176 808 l -176 1014 "},"ﬁ":{"ha":815,"x_min":46,"x_max":715,"o":"m 639 839 q 693 860 671 839 q 715 914 715 882 q 693 969 715 946 q 639 992 671 992 q 586 969 608 992 q 564 914 564 946 q 586 861 564 883 q 639 839 608 839 m 276 604 l 442 604 l 442 710 l 276 710 l 276 807 q 289 861 276 842 q 340 881 301 881 q 442 854 385 881 l 442 956 q 310 989 379 989 q 200 951 244 989 q 156 828 156 914 l 156 710 l 46 710 l 46 604 l 156 604 l 156 0 l 276 0 l 276 604 m 579 0 l 700 0 l 700 710 l 579 710 l 579 0 "},"ﬂ":{"ha":826,"x_min":46,"x_max":706,"o":"m 585 0 l 706 0 l 706 1003 l 585 946 l 585 0 m 276 604 l 442 604 l 442 710 l 276 710 l 276 807 q 289 861 276 842 q 340 881 301 881 q 442 854 385 881 l 442 956 q 310 989 379 989 q 200 951 244 989 q 156 828 156 914 l 156 710 l 46 710 l 46 604 l 156 604 l 156 0 l 276 0 l 276 604 "}}}
